<svg width="79" height="79" viewBox="0 0 79 79" fill="none" xmlns="http://www.w3.org/2000/svg">
<rect width="79" height="79" rx="39.5" fill="#CE6C39"/>
<g clip-path="url(#clip0_1376_87241)">
<path d="M50.9336 53.4971C52.3471 53.4971 53.4971 52.3471 53.4971 50.9336C53.4971 49.5201 52.3471 48.3701 50.9336 48.3701C49.5201 48.3701 48.3701 49.5201 48.3701 50.9336C48.3701 52.3471 49.5201 53.4971 50.9336 53.4971ZM50.9336 49.3955C51.7817 49.3955 52.4717 50.0855 52.4717 50.9336C52.4717 51.7817 51.7817 52.4717 50.9336 52.4717C50.0855 52.4717 49.3955 51.7817 49.3955 50.9336C49.3955 50.0855 50.0855 49.3955 50.9336 49.3955Z" fill="white"/>
<path d="M57.8037 48.541H57.3083C57.2385 48.541 57.1762 48.4979 57.1493 48.4312C57.1327 48.3899 57.1157 48.3489 57.0983 48.3082C57.0701 48.2419 57.0837 48.1672 57.1331 48.1178L57.4834 47.7675C57.7093 47.5416 57.8337 47.2412 57.8337 46.9216C57.8337 46.602 57.7093 46.3016 57.4834 46.0757L55.7916 44.3839C55.3251 43.9175 54.5662 43.9174 54.0998 44.3839L53.7494 44.7342C53.7001 44.7835 53.6253 44.7972 53.5589 44.7688C53.5179 44.7514 53.4769 44.7344 53.4359 44.7179C53.3692 44.691 53.3262 44.6287 53.3262 44.5589V44.0635C53.3262 43.5353 52.9817 43.0867 52.5059 42.9286V38.389C52.5059 38.1058 52.2764 37.8763 51.9932 37.8763C51.71 37.8763 51.4805 38.1058 51.4805 38.389V42.8672H49.7374C49.0778 42.8672 48.5411 43.4039 48.5411 44.0635V44.5589C48.5411 44.6287 48.498 44.691 48.4317 44.7177C48.3904 44.7344 48.3493 44.7514 48.3081 44.7689C48.2419 44.7972 48.1672 44.7836 48.1178 44.7342L47.7675 44.3839C47.3011 43.9175 46.5423 43.9175 46.0757 44.3839L45.3452 45.1144L39.2783 43.1968V35.5527H39.4492C39.9204 35.5527 40.3037 35.1694 40.3037 34.6982V34.0318L50.5258 30.7993C50.6574 31.1021 50.959 31.3145 51.3096 31.3145H51.4805V35.9978C51.4805 36.281 51.71 36.5105 51.9932 36.5105C52.2764 36.5105 52.5059 36.281 52.5059 35.9978V31.3145H52.6768C53.148 31.3145 53.5313 30.9312 53.5313 30.46V29.0928C53.5313 28.6216 53.148 28.2383 52.6768 28.2383H51.3096C50.9624 28.2383 50.6636 28.4467 50.5299 28.7447L40.3037 25.4897V24.8545C40.3037 24.3833 39.9204 24 39.4492 24H38.082C37.6108 24 37.2275 24.3833 37.2275 24.8545V25.4897L33.462 26.6882C33.1922 26.7741 33.0431 27.0624 33.129 27.3322C33.1984 27.5503 33.4001 27.6896 33.6174 27.6896C33.669 27.6896 33.7214 27.6818 33.773 27.6653L37.2917 26.5453C37.4195 26.8564 37.7254 27.0762 38.082 27.0762H38.2529V32.4766H38.082C37.7376 32.4766 37.441 32.6817 37.3058 32.9759L27.2158 29.7524L31.5035 28.3876C31.7733 28.3018 31.9224 28.0134 31.8365 27.7436C31.7507 27.4738 31.4621 27.3246 31.1925 27.4106L27.0013 28.7447C26.8677 28.4467 26.5688 28.2383 26.2217 28.2383H24.8545C24.3833 28.2383 24 28.6216 24 29.0928V30.46C24 30.9312 24.3833 31.3145 24.8545 31.3145H25.0254V46.2852H24.8545C24.3833 46.2852 24 46.6684 24 47.1396V48.5068C24 48.978 24.3833 49.3613 24.8545 49.3613H26.2217C26.5919 49.3613 26.907 49.1242 27.0254 48.7942L30.7236 49.9714C30.9283 50.0312 31.2243 49.964 31.3676 49.6383C31.4536 49.3685 31.3044 49.0802 31.0346 48.9943L27.231 47.7836L38.2529 44.2737V50.4551H38.082C37.7254 50.4551 37.4195 50.6749 37.2916 50.986L33.3156 49.7204C33.0462 49.6345 32.7575 49.7837 32.6716 50.0535C32.5857 50.3233 32.7348 50.6117 33.0046 50.6975L37.2275 52.0416V52.6768C37.2275 53.148 37.6108 53.5312 38.082 53.5312H39.4492C39.9204 53.5312 40.3036 53.148 40.3036 52.6768V52.0416L42.8671 51.2257V52.1299C42.8671 52.7895 43.4038 53.3262 44.0634 53.3262H44.5588C44.6286 53.3262 44.6909 53.3692 44.7178 53.436C44.7344 53.4773 44.7514 53.5183 44.7688 53.559C44.797 53.6253 44.7834 53.7 44.734 53.7494L44.3837 54.0997C44.1578 54.3256 44.0334 54.626 44.0334 54.9456C44.0334 55.2652 44.1578 55.5656 44.3837 55.7915L46.0756 57.4833C46.5419 57.9497 47.3008 57.9497 47.7673 57.4833L48.1177 57.133C48.167 57.0836 48.2418 57.07 48.3083 57.0984C48.3492 57.1158 48.3902 57.1328 48.4312 57.1493C48.4979 57.1762 48.5409 57.2385 48.5409 57.3083V57.8037C48.5409 58.4633 49.0776 59 49.7372 59H52.1297C52.7893 59 53.326 58.4633 53.326 57.8037V57.3083C53.326 57.2385 53.3691 57.1762 53.4354 57.1494C53.4767 57.1328 53.5178 57.1158 53.559 57.0982C53.6252 57.0701 53.7 57.0836 53.7493 57.133L54.0996 57.4832C54.566 57.9496 55.3249 57.9497 55.7914 57.4832L57.4832 55.7914C57.7092 55.5655 57.8336 55.265 57.8336 54.9455C57.8336 54.6259 57.7092 54.3255 57.4832 54.0995L57.1329 53.7492C57.0835 53.6998 57.0699 53.6251 57.0981 53.5589C57.1155 53.5181 57.1326 53.477 57.1492 53.4356C57.1761 53.369 57.2385 53.326 57.3082 53.326H57.8036C58.4632 53.326 58.9999 52.7893 58.9999 52.1297V49.7371C59 49.0777 58.4633 48.541 57.8037 48.541ZM51.4805 29.2637H52.5059V30.2891H51.4805V29.2637ZM38.2529 25.0254H39.2783V26.0508H38.2529V25.0254ZM39.2783 27.0762H39.4492C39.8059 27.0762 40.1118 26.8564 40.2397 26.5453L50.3752 29.7714L40.2276 32.9804C40.0934 32.6838 39.7954 32.4766 39.4492 32.4766H39.2783V27.0762ZM38.2529 33.502H39.2783V34.5273H38.2529V33.502ZM25.0254 29.2637H26.0508V30.2891H25.0254V29.2637ZM26.0508 48.3359H25.0254V47.3105H26.0508V48.3359ZM26.9967 46.7821C26.861 46.4893 26.5651 46.2852 26.2217 46.2852H26.0508V31.3145H26.2217C26.5849 31.3145 26.8952 31.0862 27.0186 30.7659L37.2275 34.0273V34.6982C37.2275 35.1694 37.6108 35.5527 38.082 35.5527H38.2529V43.1976L26.9967 46.7821ZM39.2783 52.5059H38.2529V51.4805H39.2783V52.5059ZM40.2397 50.986C40.1118 50.6749 39.8059 50.4551 39.4492 50.4551H39.2783V44.2722L44.528 45.9315L44.3839 46.0757C44.1579 46.3016 44.0335 46.6021 44.0335 46.9216C44.0335 47.2412 44.1579 47.5416 44.3838 47.7676L44.7342 48.1179C44.7835 48.1673 44.7971 48.242 44.7689 48.3082C44.7515 48.3491 44.7345 48.3901 44.7178 48.4315C44.6909 48.4981 44.6286 48.5412 44.5589 48.5412H44.0635C43.4039 48.5412 42.8672 49.0778 42.8672 49.7374V50.1498L40.2397 50.986ZM57.9746 52.1299C57.9746 52.2241 57.898 52.3008 57.8037 52.3008H57.3083C56.8179 52.3008 56.3822 52.596 56.1983 53.0527C56.1842 53.0876 56.1699 53.1223 56.155 53.1571C55.9618 53.6105 56.0611 54.1277 56.408 54.4745L56.7582 54.8247C56.8018 54.8683 56.8083 54.9192 56.8083 54.9456C56.8083 54.9721 56.8018 55.0229 56.7582 55.0665L55.0664 56.7583C54.9997 56.8249 54.8913 56.8249 54.8247 56.7583L54.4745 56.408C54.1276 56.0611 53.6106 55.9618 53.1572 56.155C53.1227 56.1697 53.088 56.1841 53.0528 56.1983C52.596 56.3822 52.3008 56.818 52.3008 57.3084V57.8038C52.3008 57.898 52.2242 57.9747 52.1299 57.9747H49.7373C49.643 57.9747 49.5664 57.898 49.5664 57.8038V57.3084C49.5664 56.818 49.2712 56.3822 48.814 56.1982C48.7791 56.1841 48.7445 56.1697 48.7102 56.1552C48.5564 56.0896 48.3953 56.0577 48.2359 56.0577C47.9255 56.0577 47.6219 56.1788 47.3927 56.408L47.0423 56.7584C46.9755 56.825 46.8672 56.8249 46.8007 56.7584L45.1088 55.0665C45.0653 55.0229 45.0589 54.9721 45.0589 54.9457C45.0589 54.9192 45.0654 54.8684 45.1089 54.8248L45.4591 54.4745C45.806 54.1277 45.9054 53.6105 45.712 53.1569C45.6973 53.1223 45.6829 53.0876 45.6689 53.0529C45.4849 52.596 45.0492 52.3008 44.5588 52.3008H44.0635C43.9692 52.3008 43.8926 52.2242 43.8926 52.13V49.7374C43.8926 49.6432 43.9692 49.5665 44.0635 49.5665H44.5589C45.0493 49.5665 45.485 49.2713 45.6689 48.8146C45.683 48.7797 45.6973 48.7449 45.7122 48.7102C45.9054 48.2568 45.8061 47.7396 45.4592 47.3928L45.109 47.0425C45.0654 46.999 45.0589 46.9481 45.0589 46.9216C45.0589 46.8952 45.0654 46.8444 45.109 46.8008L46.8008 45.109C46.8674 45.0422 46.9759 45.0423 47.0424 45.109L47.3927 45.4592C47.7396 45.8062 48.2567 45.9055 48.71 45.7122C48.7445 45.6975 48.7792 45.6831 48.8144 45.669C49.2712 45.485 49.5664 45.0493 49.5664 44.5588V44.0635C49.5664 43.9693 49.643 43.8926 49.7373 43.8926H52.1299C52.2242 43.8926 52.3008 43.9693 52.3008 44.0635V44.5589C52.3008 45.0493 52.596 45.4851 53.0531 45.6692C53.0881 45.6832 53.1227 45.6976 53.157 45.7122C53.6105 45.9054 54.1276 45.8062 54.4744 45.4593L54.8248 45.109C54.8915 45.0422 54.9998 45.0423 55.0664 45.109L56.7583 46.8009C56.8018 46.8444 56.8083 46.8952 56.8083 46.9216C56.8083 46.9481 56.8018 46.999 56.7582 47.0425L56.408 47.3928C56.0611 47.7396 55.9618 48.2568 56.1551 48.7104C56.1699 48.745 56.1842 48.7797 56.1982 48.8145C56.3822 49.2713 56.8179 49.5665 57.3083 49.5665H57.8037C57.898 49.5665 57.9746 49.6432 57.9746 49.7374V52.1299Z" fill="white"/>
<path d="M50.9336 46.3193C48.3893 46.3193 46.3193 48.3893 46.3193 50.9336C46.3193 51.6659 46.4953 52.395 46.8283 53.0421C46.9579 53.294 47.2671 53.393 47.5188 53.2635C47.7705 53.134 47.8697 52.8248 47.74 52.5731C47.4777 52.0632 47.3447 51.5116 47.3447 50.9337C47.3447 48.9547 48.9547 47.3448 50.9336 47.3448C52.9125 47.3448 54.5225 48.9547 54.5225 50.9337C54.5225 52.9126 52.9125 54.5225 50.9336 54.5225C50.3145 54.5225 49.7046 54.3625 49.1693 54.0598C48.9229 53.9204 48.6101 54.0071 48.4706 54.2536C48.3312 54.5 48.418 54.8129 48.6645 54.9523C49.3533 55.342 50.138 55.5479 50.9335 55.5479C53.4779 55.5479 55.5478 53.478 55.5478 50.9337C55.5478 48.3893 53.4779 46.3193 50.9336 46.3193Z" fill="white"/>
</g>
<defs>
<clipPath id="clip0_1376_87241">
<rect width="35" height="35" fill="white" transform="translate(24 24)"/>
</clipPath>
</defs>
</svg>
