<svg width="79" height="79" viewBox="0 0 79 79" fill="none" xmlns="http://www.w3.org/2000/svg">
<rect width="79" height="79" rx="39.5" fill="#CE6C39"/>
<g clip-path="url(#clip0_1376_86643)">
<path d="M39.3736 32.4226V34.526C38.8146 34.2849 38.2306 34.1065 37.6323 33.9949C40.2023 31.8725 41.1642 28.3652 40.0364 25.2285C38.9086 22.0918 35.9335 20 32.6003 20C29.2669 20 26.292 22.0918 25.1642 25.2285C24.0365 28.3652 24.998 31.8725 27.5683 33.9949C25.6633 34.3879 24.6982 34.9956 24.6982 35.8092V52.7424C24.6982 54.9367 31.7914 55.0001 32.6003 55.0001C33.2058 55.0001 37.3377 54.9646 39.3736 54.0242V55.0001H56.3067V32.4226H39.3736ZM39.303 49.3918C39.2848 49.4076 39.2611 49.4238 39.238 49.4404C39.2148 49.4566 39.2013 49.4668 39.1787 49.4809C39.1561 49.4949 39.1178 49.5153 39.085 49.533C39.0522 49.5503 39.0343 49.5605 39.0048 49.5746C38.9756 49.5886 38.9254 49.6101 38.8841 49.6278C38.843 49.6451 38.8188 49.657 38.7813 49.6716C38.7441 49.6865 38.6848 49.7071 38.6352 49.7253C38.5939 49.7399 38.5545 49.7545 38.5098 49.77C38.4536 49.7879 38.3971 49.8061 38.3356 49.8265L38.1921 49.8697C38.1284 49.8879 38.0578 49.9053 37.9895 49.9262C37.933 49.9403 37.8839 49.9544 37.8263 49.9687C37.7558 49.9855 37.6786 50.0026 37.6034 50.0194C37.5408 50.0329 37.481 50.0475 37.4154 50.0613C37.3382 50.077 37.2547 50.0927 37.1734 50.1081C37.1023 50.1217 37.034 50.1357 36.9593 50.1487C36.8725 50.1644 36.7793 50.1787 36.6878 50.1933C36.6128 50.2052 36.5406 50.2181 36.4621 50.2294C36.364 50.244 36.259 50.2575 36.1562 50.271C36.0779 50.2812 36.0015 50.2925 35.9197 50.3027C35.8141 50.3151 35.7011 50.3264 35.5906 50.3383C35.506 50.3474 35.4242 50.3576 35.336 50.3653C35.2232 50.376 35.1042 50.3851 34.9873 50.3948C34.8947 50.4022 34.8054 50.4105 34.7106 50.4174C34.586 50.4265 34.4551 50.4331 34.3259 50.4405C34.2327 50.4455 34.1423 50.4518 34.047 50.4562C33.8929 50.4637 33.7314 50.4681 33.5715 50.4733C33.4949 50.4733 33.4211 50.4794 33.3431 50.481C33.1014 50.4832 32.8539 50.4846 32.6003 50.4846C32.3468 50.4846 32.099 50.4816 31.8576 50.4761C31.7796 50.4761 31.7057 50.4703 31.6288 50.4681C31.4692 50.4631 31.3077 50.4584 31.1537 50.4513C31.0583 50.4466 30.9679 50.4405 30.8748 50.4353C30.7455 50.4281 30.6146 50.4212 30.4897 50.4121C30.3944 50.4055 30.3048 50.397 30.2122 50.3895C30.0959 50.3802 29.9768 50.3711 29.8644 50.3603C29.7765 50.3523 29.6952 50.3421 29.6081 50.3333C29.4987 50.3215 29.3862 50.3102 29.2807 50.2978C29.1991 50.2876 29.1227 50.2763 29.0442 50.2661C28.9417 50.2526 28.8367 50.2391 28.7383 50.2242C28.66 50.2129 28.5878 50.1999 28.5125 50.1881C28.421 50.1735 28.3279 50.1594 28.2411 50.1437C28.1667 50.1305 28.0983 50.1164 28.0272 50.1029C27.9459 50.0878 27.8624 50.0718 27.7849 50.0561C27.7196 50.0426 27.6598 50.0279 27.597 50.0144C27.522 49.9974 27.4446 49.9805 27.374 49.9635C27.3178 49.9494 27.2652 49.9353 27.2109 49.9213C27.1428 49.9031 27.0722 49.8857 27.0083 49.8648L26.865 49.8212C26.8057 49.8033 26.7454 49.7851 26.6905 49.7647C26.6459 49.7496 26.6065 49.735 26.5648 49.7198C26.523 49.7044 26.4643 49.684 26.4196 49.6666C26.375 49.6493 26.3502 49.6374 26.3157 49.6225C26.2813 49.6079 26.2322 49.587 26.1955 49.5696C26.1589 49.552 26.1421 49.5418 26.1153 49.5277C26.0889 49.5137 26.0489 49.4927 26.0216 49.4759C25.9946 49.4588 25.9817 49.4486 25.9654 49.4351C25.9489 49.4216 25.9186 49.4026 25.9004 49.3866C25.8869 49.3748 25.8742 49.3615 25.8632 49.3472C25.8502 49.3367 25.8381 49.3252 25.8271 49.3128V47.251L25.8384 47.2559C25.9511 47.3061 26.0668 47.3535 26.1881 47.3992L26.279 47.4326C26.4072 47.4783 26.5392 47.5219 26.677 47.5624H26.682C26.8192 47.6023 26.9642 47.6398 27.1072 47.6754L27.2087 47.7002C27.5058 47.7702 27.8144 47.8305 28.1281 47.8829L28.2303 47.9C28.5475 47.9513 28.8681 47.9943 29.1847 48.0309L29.2815 48.0417C29.5979 48.0767 29.9085 48.1048 30.2064 48.1279L30.2996 48.1354C30.5953 48.1569 30.8759 48.1737 31.1349 48.1861L31.2088 48.1894C31.4645 48.2012 31.6955 48.2092 31.8959 48.215H31.9551C32.1475 48.22 32.3068 48.2222 32.4264 48.2227H32.6003C32.7075 48.2227 32.9299 48.2227 33.2279 48.2142C33.5875 48.207 33.9516 48.1963 34.3212 48.177C34.446 48.1709 34.5634 48.164 34.6599 48.1538C36.1192 48.0938 37.5645 47.8457 38.9604 47.4163L38.9891 47.4056C39.1117 47.3604 39.2289 47.3124 39.3402 47.2614C39.3515 47.2565 39.3645 47.2526 39.3758 47.2468V49.3089C39.3659 49.3229 39.3548 49.3362 39.3424 49.3483C39.3308 49.364 39.3176 49.3786 39.303 49.3918ZM25.8271 37.0911L25.8384 37.096C25.9511 37.1462 26.0668 37.1936 26.1881 37.2393L26.279 37.2727C26.4072 37.3184 26.5392 37.362 26.677 37.4025H26.682C26.8192 37.4425 26.9642 37.4799 27.1072 37.5155L27.2087 37.5403C27.5058 37.6103 27.8144 37.6707 28.1281 37.723L28.2303 37.7401C28.5475 37.7914 28.8681 37.8344 29.1847 37.871L29.2815 37.8818C29.5979 37.9168 29.9085 37.9449 30.2064 37.968L30.2996 37.9755C30.5953 37.997 30.8759 38.0138 31.1349 38.0262L31.2088 38.0295C31.4645 38.0414 31.6955 38.0493 31.8959 38.0551H31.9551C32.1475 38.0601 32.3068 38.0623 32.4264 38.0628H32.7742C32.8938 38.0628 33.0529 38.0628 33.2455 38.0551H33.3048C33.5051 38.0493 33.7358 38.0414 33.9916 38.0295L34.0654 38.0262C34.3245 38.0138 34.6051 37.997 34.9008 37.9755L34.9939 37.968C35.2921 37.9449 35.6025 37.9168 35.9191 37.8818L36.0156 37.871C36.3323 37.8344 36.6528 37.7914 36.97 37.7401L37.0723 37.723C37.3862 37.6707 37.6932 37.6103 37.9917 37.5403L38.0939 37.5155C38.2384 37.4799 38.3806 37.4433 38.5178 37.4025H38.5242C38.6617 37.362 38.7931 37.3184 38.9191 37.2727L39.01 37.2393C39.1313 37.1936 39.2493 37.1462 39.3601 37.096L39.3714 37.0911V39.1567C39.1771 39.4298 37.761 40.0538 34.5582 40.2602C34.4617 40.2704 34.3653 40.2749 34.2619 40.2801C33.6936 40.3099 33.1331 40.3247 32.5981 40.3247C32.344 40.3247 32.0965 40.3217 31.8551 40.3162C31.7774 40.3162 31.7035 40.3104 31.6266 40.3082C31.4668 40.3032 31.3055 40.2986 31.1515 40.2914C31.0558 40.2867 30.9657 40.2806 30.8725 40.2754C30.7433 40.2682 30.6124 40.2613 30.4875 40.2523C30.3922 40.2456 30.3023 40.2371 30.2097 40.2297C30.0937 40.2203 29.9744 40.2112 29.8622 40.2004C29.774 40.1924 29.693 40.1822 29.6059 40.1734C29.4965 40.1616 29.384 40.1503 29.2785 40.1379C29.1966 40.1277 29.1205 40.1164 29.042 40.1062C28.9392 40.0927 28.8345 40.0792 28.7361 40.0643C28.6575 40.053 28.5853 40.04 28.5103 40.0282C28.4188 40.0136 28.3257 39.9995 28.2389 39.9838C28.1645 39.9706 28.0961 39.9565 28.025 39.943C27.9437 39.9279 27.8602 39.9119 27.7827 39.8962C27.7174 39.8827 27.6573 39.8681 27.5948 39.8546C27.5198 39.8375 27.4424 39.8207 27.3718 39.8036C27.3153 39.7895 27.263 39.7755 27.2087 39.7614C27.1403 39.7432 27.0698 39.7258 27.0061 39.7049L26.8628 39.6614C26.8035 39.6434 26.7432 39.6252 26.6883 39.6049C26.6437 39.5897 26.6043 39.5751 26.5624 39.5599C26.5208 39.5445 26.462 39.5241 26.4174 39.5067C26.3728 39.4894 26.3479 39.4775 26.3135 39.4626C26.279 39.448 26.23 39.4271 26.1933 39.4097C26.1567 39.3921 26.1396 39.3819 26.1131 39.3678C26.0867 39.3538 26.0464 39.3328 26.0194 39.316C25.9924 39.2989 25.9795 39.2887 25.9629 39.2752C25.9467 39.2617 25.9161 39.2427 25.8982 39.2267C25.8847 39.2149 25.872 39.2016 25.861 39.1873C25.8486 39.1768 25.8373 39.1653 25.8271 39.1529V37.0911ZM25.8271 40.4777L25.8384 40.4827C25.9511 40.5328 26.0668 40.5802 26.1881 40.626L26.279 40.6593C26.4072 40.7051 26.5392 40.7486 26.677 40.7891H26.682C26.8192 40.8291 26.9642 40.8666 27.1072 40.9021L27.2087 40.9269C27.5058 40.9969 27.8144 41.0573 28.1281 41.1097L28.2303 41.1267C28.5475 41.178 28.8681 41.221 29.1847 41.2577L29.2815 41.2684C29.5979 41.3034 29.9085 41.3315 30.2064 41.3547L30.2996 41.3621C30.5953 41.3836 30.8759 41.4004 31.1349 41.4128L31.2088 41.4161C31.4645 41.428 31.6955 41.436 31.8959 41.4418H31.9551C32.1475 41.4467 32.3068 41.4489 32.4264 41.4495H32.6003C33.1551 41.4495 33.7353 41.4343 34.3228 41.4037C34.4466 41.3977 34.5634 41.3908 34.6577 41.3806C36.0765 41.2894 38.1165 41.0556 39.3736 40.4714V42.5356C39.1911 42.8071 37.78 43.4352 34.5604 43.643C34.4639 43.6532 34.3675 43.6576 34.2641 43.6626C33.6958 43.6926 33.1353 43.7072 32.6003 43.7072C32.3462 43.7072 32.0987 43.7045 31.8576 43.6987C31.7796 43.6987 31.7057 43.6932 31.6288 43.691C31.4692 43.6857 31.3077 43.6813 31.1537 43.6739C31.0583 43.6695 30.9679 43.6631 30.8748 43.6582C30.7455 43.6507 30.6146 43.6441 30.4897 43.635C30.3944 43.6281 30.3048 43.6199 30.2122 43.6124C30.0959 43.6028 29.9768 43.594 29.8644 43.5832C29.7765 43.5752 29.6952 43.565 29.6081 43.5559C29.4987 43.5441 29.3862 43.5328 29.2807 43.5204C29.1991 43.5102 29.1227 43.4991 29.0442 43.489C28.9417 43.4752 28.8367 43.4617 28.7383 43.4471C28.66 43.4358 28.5878 43.4228 28.5125 43.411C28.421 43.3963 28.3279 43.3823 28.2411 43.3663C28.1667 43.3534 28.0983 43.3393 28.0272 43.3258C27.9459 43.3104 27.8624 43.2946 27.7849 43.2789C27.7196 43.2654 27.6598 43.2506 27.597 43.237C27.522 43.2202 27.4446 43.2031 27.374 43.1863C27.3178 43.1723 27.2652 43.1582 27.2109 43.1439C27.1428 43.126 27.0722 43.1083 27.0083 43.0877L26.865 43.0441C26.8057 43.0259 26.7454 43.008 26.6905 42.9876C26.6459 42.9725 26.6065 42.9576 26.5648 42.9424C26.523 42.9273 26.4643 42.9069 26.4196 42.8895C26.375 42.8719 26.3502 42.86 26.3157 42.8454C26.2813 42.8308 26.2322 42.8099 26.1955 42.7922C26.1589 42.7749 26.1421 42.7647 26.1153 42.7506C26.0889 42.7366 26.0489 42.7156 26.0216 42.6985C25.9946 42.6817 25.9817 42.6715 25.9654 42.658C25.9489 42.6445 25.9186 42.6252 25.9004 42.6095C25.8869 42.5974 25.8742 42.5841 25.8632 42.5698C25.8502 42.5607 25.8381 42.5505 25.8271 42.5395V40.4777ZM25.8271 43.8643L25.8384 43.8693C25.9511 43.9194 26.0668 43.9668 26.1881 44.0126L26.279 44.0459C26.4072 44.0917 26.5392 44.1352 26.677 44.1758H26.682C26.8192 44.2157 26.9642 44.2532 27.1072 44.2888L27.2087 44.3136C27.5058 44.3836 27.8144 44.4439 28.1281 44.4963L28.2303 44.5134C28.5475 44.5646 28.8681 44.6076 29.1847 44.6443L29.2815 44.655C29.5979 44.69 29.9085 44.7181 30.2064 44.7413L30.2996 44.7487C30.5953 44.7702 30.8759 44.787 31.1349 44.7994L31.2088 44.8028C31.4645 44.8146 31.6955 44.8226 31.8959 44.8284H31.9551C32.1475 44.8333 32.3068 44.8356 32.4264 44.8361H32.6003C33.1551 44.8361 33.7353 44.8209 34.3212 44.7904C34.446 44.7843 34.5634 44.7774 34.6599 44.7672C36.0771 44.6765 38.1182 44.4456 39.3758 43.8643V45.9234C39.3661 45.9371 39.3554 45.9501 39.3435 45.9622C38.9748 46.2282 38.5534 46.4117 38.1074 46.5008L38.0471 46.517C37.9732 46.5369 37.8969 46.5573 37.8161 46.5768C37.4454 46.6667 37.0136 46.7518 36.523 46.8257L36.3948 46.8444C36.2882 46.8596 36.1777 46.8745 36.0658 46.8891C35.9649 46.902 35.8621 46.9144 35.7565 46.9263L35.6149 46.9415C35.2875 46.9759 34.9377 47.0065 34.5629 47.0307C34.5108 47.0363 34.4568 47.0379 34.4041 47.0415L34.209 47.0528C33.9464 47.0657 33.6851 47.077 33.4282 47.0837H33.4186C33.141 47.093 32.8682 47.098 32.6003 47.098C32.3462 47.098 32.0987 47.095 31.8576 47.0894C31.7796 47.0894 31.7057 47.0837 31.6288 47.0815C31.4692 47.0765 31.3077 47.0718 31.1537 47.0646C31.0583 47.06 30.9679 47.0539 30.8748 47.0487C30.7455 47.0415 30.6146 47.0346 30.4897 47.0255C30.3944 47.0189 30.3048 47.0104 30.2122 47.0029C30.0959 46.9935 29.9768 46.9844 29.8644 46.9737C29.7765 46.9657 29.6952 46.9555 29.6081 46.9467C29.4987 46.9348 29.3862 46.9235 29.2807 46.9111C29.1991 46.9009 29.1227 46.8896 29.0442 46.8794C28.9417 46.8659 28.8367 46.8524 28.7383 46.8375C28.66 46.8262 28.5878 46.8133 28.5125 46.8014C28.421 46.7868 28.3279 46.7728 28.2411 46.7571C28.1667 46.7438 28.0983 46.7298 28.0272 46.7163C27.9459 46.7011 27.8624 46.6851 27.7849 46.6694C27.7196 46.6559 27.6598 46.6413 27.597 46.6278C27.522 46.6107 27.4446 46.5939 27.374 46.5768C27.3178 46.5628 27.2652 46.5487 27.2109 46.5347C27.1428 46.5165 27.0722 46.4991 27.0083 46.4782L26.865 46.4346C26.8057 46.4167 26.7454 46.3985 26.6905 46.3781C26.6459 46.363 26.6065 46.3483 26.5648 46.3332C26.523 46.3178 26.4643 46.2974 26.4196 46.28C26.375 46.2626 26.3502 46.2508 26.3157 46.2359C26.2813 46.2213 26.2322 46.2003 26.1955 46.183C26.1589 46.1653 26.1421 46.1551 26.1153 46.1411C26.0889 46.127 26.0489 46.1061 26.0216 46.0893C25.9946 46.0722 25.9817 46.062 25.9654 46.0485C25.9489 46.035 25.9186 46.016 25.9004 46C25.8869 45.9881 25.8742 45.9749 25.8632 45.9606C25.8502 45.9501 25.8381 45.9385 25.8271 45.9261V43.8643ZM25.8271 27.9071C25.8271 24.1663 28.8595 21.1338 32.6003 21.1338C36.3411 21.1338 39.3736 24.1663 39.3736 27.9071C39.3736 31.6479 36.3411 34.6804 32.6003 34.6804C28.8612 34.6762 25.8309 31.6459 25.8271 27.9071ZM32.6003 35.8092C33.8714 35.8092 35.1235 35.5006 36.2488 34.9094C38.3078 35.1916 39.1341 35.6155 39.3375 35.8125C39.3322 35.8175 39.33 35.8227 39.3245 35.8282C39.3187 35.834 39.2956 35.8525 39.2804 35.8649C39.2653 35.8773 39.2385 35.8982 39.2126 35.9153C39.1867 35.9321 39.171 35.9412 39.149 35.9542C39.1184 35.9716 39.0872 35.9892 39.0517 36.0071L38.9682 36.0474C38.9293 36.0653 38.888 36.0835 38.8441 36.1039C38.8108 36.1174 38.7752 36.1314 38.7391 36.1449C38.6917 36.1631 38.6421 36.1816 38.59 36.2014L38.4635 36.2439C38.4073 36.2618 38.3508 36.28 38.2888 36.3001L38.1424 36.3425C38.0788 36.3599 38.0115 36.3775 37.9432 36.3949C37.8867 36.4092 37.8305 36.4233 37.774 36.4368C37.7023 36.4541 37.6276 36.4707 37.5521 36.4875C37.4901 36.501 37.4278 36.5148 37.3636 36.5277C37.2839 36.544 37.201 36.5597 37.118 36.5757L36.9091 36.6134C36.8223 36.6286 36.7308 36.6432 36.6393 36.6581L36.4136 36.6925C36.3177 36.7066 36.2165 36.7196 36.1162 36.7331L35.8756 36.7642C35.7711 36.7766 35.6617 36.7873 35.5534 36.7992C35.4683 36.8083 35.3842 36.8171 35.2977 36.8257C35.1849 36.8364 35.0628 36.8455 34.9432 36.8549C34.8559 36.8618 34.7704 36.8698 34.6803 36.8758C34.5505 36.8849 34.4149 36.8924 34.2801 36.8995C34.1947 36.9042 34.1106 36.9097 34.0249 36.9136C33.8708 36.921 33.7099 36.9254 33.5498 36.9307C33.4756 36.9307 33.4051 36.9362 33.3301 36.9381C33.0936 36.9381 32.8506 36.9381 32.6003 36.9381C32.3501 36.9381 32.1053 36.9351 31.8664 36.9296C31.7914 36.9296 31.7209 36.9243 31.647 36.9221C31.4866 36.9172 31.3256 36.9125 31.1716 36.9053C31.0842 36.9012 31.0024 36.8957 30.9166 36.8913C30.7816 36.8838 30.6463 36.8764 30.5165 36.8676C30.4261 36.8612 30.3404 36.8532 30.2527 36.8466C30.1337 36.837 30.0135 36.8279 29.8988 36.8171C29.8115 36.8088 29.7296 36.7992 29.6431 36.7907C29.5342 36.7788 29.4253 36.7681 29.3209 36.7557L29.0803 36.7245C28.98 36.711 28.8788 36.6981 28.7829 36.684L28.5572 36.6495C28.4657 36.6349 28.3742 36.6203 28.2874 36.6049L28.0785 36.5671C27.9955 36.5514 27.9126 36.5354 27.8329 36.5192C27.7687 36.5062 27.7067 36.4927 27.6444 36.4792C27.5689 36.4621 27.4945 36.4459 27.4225 36.4282C27.3663 36.4147 27.3098 36.4007 27.2533 36.3866C27.185 36.369 27.118 36.3516 27.054 36.334L26.908 36.2918C26.8476 36.2736 26.7889 36.2557 26.7335 36.2353C26.6894 36.2213 26.6473 36.2072 26.6065 36.1929C26.5541 36.175 26.5048 36.1568 26.4579 36.1364L26.3524 36.0948C26.3085 36.076 26.2672 36.0581 26.2283 36.0383L26.1448 35.9983C26.1093 35.9801 26.0781 35.9627 26.0478 35.9451C26.0258 35.9321 26.0032 35.9192 25.9839 35.9062C25.9646 35.8933 25.937 35.8723 25.9161 35.8561C25.8954 35.8395 25.8847 35.831 25.8723 35.8192C25.8599 35.8073 25.8681 35.8147 25.8632 35.8092C26.0663 35.6149 26.8925 35.1883 28.9519 34.9061C30.0769 35.4983 31.3289 35.8081 32.6003 35.8092ZM32.6003 53.8713C28.5685 53.8713 26.1159 53.1324 25.8271 52.7043V50.6376L25.8384 50.6425C25.9511 50.6927 26.0668 50.7401 26.1881 50.7859L26.279 50.8192C26.4072 50.865 26.5392 50.9085 26.677 50.949H26.682C26.8192 50.989 26.9642 51.0265 27.1072 51.062L27.2087 51.0868C27.5058 51.1568 27.8144 51.2172 28.1281 51.2695L28.2303 51.2866C28.5475 51.3379 28.8681 51.3809 29.1847 51.4175L29.2815 51.4283C29.5979 51.4633 29.9085 51.4914 30.2064 51.5146L30.2996 51.522C30.5953 51.5435 30.8759 51.5603 31.1349 51.5727L31.2088 51.576C31.4645 51.5879 31.6955 51.5959 31.8959 51.6016H31.9551C32.1475 51.6066 32.3068 51.6088 32.4264 51.6094H32.7742C32.8938 51.6094 33.0529 51.6094 33.2455 51.6016H33.3048C33.5051 51.5959 33.7358 51.5879 33.9916 51.576L34.0654 51.5727C34.3245 51.5603 34.6051 51.5435 34.9008 51.522L34.9939 51.5146C35.2921 51.4914 35.6025 51.4633 35.9191 51.4283L36.0156 51.4175C36.3323 51.3809 36.6528 51.3379 36.97 51.2866L37.0723 51.2695C37.3862 51.2172 37.6932 51.1568 37.9917 51.0868L38.0939 51.062C38.2384 51.0265 38.3806 50.9898 38.5178 50.949H38.5242C38.6617 50.9085 38.7931 50.865 38.9191 50.8192L39.01 50.7859C39.1313 50.7401 39.2493 50.6927 39.3601 50.6425L39.3714 50.6376V52.7043C39.0845 53.1324 36.6321 53.8713 32.6003 53.8713ZM55.1778 53.8713H40.5024V33.5515H55.1778V53.8713Z" fill="white"/>
<path d="M54.049 34.6807H41.6313V39.1962H54.049V34.6807ZM52.9201 38.0673H42.7602V35.8095H52.9201V38.0673Z" fill="white"/>
<path d="M45.018 40.3242H41.6313V43.7108H45.018V40.3242ZM43.8891 42.582H42.7602V41.4531H43.8891V42.582Z" fill="white"/>
<path d="M46.147 43.7108H49.5336V40.3242H46.147V43.7108ZM47.2758 41.4531H48.4047V42.582H47.2758V41.4531Z" fill="white"/>
<path d="M50.6624 43.7108H54.049V40.3242H50.6624V43.7108ZM51.7912 41.4531H52.9201V42.582H51.7912V41.4531Z" fill="white"/>
<path d="M45.018 44.8398H41.6313V48.2265H45.018V44.8398ZM43.8891 47.0976H42.7602V45.9687H43.8891V47.0976Z" fill="white"/>
<path d="M46.147 48.2265H49.5336V44.8398H46.147V48.2265ZM47.2758 45.9687H48.4047V47.0976H47.2758V45.9687Z" fill="white"/>
<path d="M50.6624 52.742H54.049V44.8398H50.6624V52.742ZM51.7912 45.9687H52.9201V51.6131H51.7912V45.9687Z" fill="white"/>
<path d="M45.018 49.3555H41.6313V52.7421H45.018V49.3555ZM43.8891 51.6132H42.7602V50.4843H43.8891V51.6132Z" fill="white"/>
<path d="M46.147 52.7421H49.5336V49.3555H46.147V52.7421ZM47.2758 50.4843H48.4047V51.6132H47.2758V50.4843Z" fill="white"/>
<path d="M30.3425 31.2937C30.0308 31.2937 29.778 31.041 29.778 30.7293H28.6492C28.6492 31.6644 29.4074 32.4226 30.3425 32.4226H32.0358V33.5515H33.1647V32.4226H34.858C35.7931 32.4226 36.5513 31.6644 36.5513 30.7293V29.036C36.5513 28.1006 35.7931 27.3426 34.858 27.3426H33.1647V24.5204H34.858C35.1697 24.5204 35.4224 24.7729 35.4224 25.0849H36.5513C36.5513 24.1495 35.7931 23.3916 34.858 23.3916H33.1647V22.2627H32.0358V23.3916H30.3425C29.4074 23.3916 28.6492 24.1495 28.6492 25.0849V26.7782C28.6492 27.7133 29.4074 28.4715 30.3425 28.4715H32.0358V31.2937H30.3425ZM30.3425 27.3426C30.0308 27.3426 29.778 27.0899 29.778 26.7782V25.0849C29.778 24.7729 30.0308 24.5204 30.3425 24.5204H32.0358V27.3426H30.3425ZM33.1647 28.4715H34.858C35.1697 28.4715 35.4224 28.724 35.4224 29.036V30.7293C35.4224 31.041 35.1697 31.2937 34.858 31.2937H33.1647V28.4715Z" fill="white"/>
<path d="M26.9561 27.3428H27.5205V28.4717H26.9561V27.3428Z" fill="white"/>
<path d="M37.6804 27.3428H38.2449V28.4717H37.6804V27.3428Z" fill="white"/>
</g>
<defs>
<clipPath id="clip0_1376_86643">
<rect width="35" height="35" fill="white" transform="translate(23 20)"/>
</clipPath>
</defs>
</svg>
