<svg width="79" height="79" viewBox="0 0 79 79" fill="none" xmlns="http://www.w3.org/2000/svg">
<rect width="79" height="79" rx="39.5" fill="#CE6C39"/>
<g clip-path="url(#clip0_1374_85622)">
<path d="M28.4889 26.3481C28.8695 26.3481 29.1781 26.0391 29.1781 25.6578V24.0232H30.8104C31.191 24.0232 31.4997 23.7142 31.4997 23.3329C31.4997 22.9516 31.191 22.6426 30.8104 22.6426H28.6727C28.1913 22.6426 27.7996 23.0349 27.7996 23.517V25.6578C27.7996 26.039 28.1082 26.3481 28.4889 26.3481Z" fill="white"/>
<path d="M28.6727 41.6529H30.8104C31.191 41.6529 31.4997 41.3439 31.4997 40.9626C31.4997 40.5813 31.191 40.2723 30.8104 40.2723H29.1781V38.6376C29.1781 38.2562 28.8695 37.9473 28.4889 37.9473C28.1082 37.9473 27.7996 38.2562 27.7996 38.6376V40.7785C27.7996 41.2606 28.1913 41.6529 28.6727 41.6529Z" fill="white"/>
<path d="M50.1888 41.6529H52.3265C52.8079 41.6529 53.1996 41.2606 53.1996 40.7785V38.6376C53.1996 38.2562 52.891 37.9473 52.5103 37.9473C52.1297 37.9473 51.821 38.2562 51.821 38.6376V40.2723H50.1888C49.8081 40.2723 49.4995 40.5813 49.4995 40.9626C49.4995 41.3439 49.8081 41.6529 50.1888 41.6529Z" fill="white"/>
<path d="M61.9186 24.3194H60.8586C60.3422 22.8481 59.4291 21.5624 58.248 20.592V17.7606C58.248 16.771 57.444 15.9658 56.4558 15.9658H28.8521C28.4714 15.9658 28.1628 16.2748 28.1628 16.6561C28.1628 17.0374 28.4714 17.3464 28.8521 17.3464H56.4558C56.6839 17.3464 56.8694 17.5323 56.8694 17.7606V19.6702C55.6916 19.0404 54.3476 18.6828 52.9217 18.6828C51.1939 18.6828 49.5863 19.2075 48.249 20.1059H24.1308V17.7606C24.1308 17.5323 24.3164 17.3464 24.5444 17.3464H25.6353C26.016 17.3464 26.3246 17.0374 26.3246 16.6561C26.3246 16.2748 26.016 15.9658 25.6353 15.9658H24.5444C23.5562 15.9658 22.7522 16.771 22.7522 17.7606V24.3194H19.0815C17.9413 24.3194 17.0137 25.2484 17.0137 26.3903V51.7676C17.0137 52.9095 17.9413 53.8385 19.0815 53.8385H35.6631V57.5723H32.3404C31.5549 57.5723 30.9159 58.2123 30.9159 58.9989V61.6081C30.9159 62.3947 31.5549 63.0347 32.3404 63.0347H48.6596C49.4451 63.0347 50.0841 62.3947 50.0841 61.6081V58.9989C50.0841 58.2123 49.4451 57.5723 48.6596 57.5723H45.337V53.8385H56.3187C56.6994 53.8385 57.008 53.5295 57.008 53.1482C57.008 52.7669 56.6994 52.4579 56.3187 52.4579H19.0815C18.7014 52.4579 18.3923 52.1483 18.3923 51.7676V48.7873C18.6868 48.9213 19.0133 48.9964 19.3573 48.9964H61.6429C61.9868 48.9964 62.3133 48.9212 62.6079 48.7873V51.7676C62.6079 52.1483 62.2986 52.4579 61.9186 52.4579H59.5355C59.1548 52.4579 58.8462 52.7669 58.8462 53.1482C58.8462 53.5295 59.1548 53.8385 59.5355 53.8385H61.9186C63.0589 53.8385 63.9865 52.9095 63.9865 51.7676V26.3903C63.9865 25.2484 63.0588 24.3194 61.9186 24.3194ZM48.7056 58.999V61.6082C48.7056 61.6335 48.685 61.6542 48.6596 61.6542H32.3404C32.3151 61.6542 32.2945 61.6335 32.2945 61.6082V58.999C32.2945 58.9737 32.3151 58.953 32.3404 58.953H48.6596C48.685 58.953 48.7056 58.9736 48.7056 58.999ZM43.9585 57.5724H37.0417V53.8385H43.9585V57.5724ZM59.9534 27.1053C59.9534 30.9883 56.7989 34.1474 52.9216 34.1474C49.0443 34.1474 45.8899 30.9884 45.8899 27.1053C45.8899 23.2223 49.0443 20.0633 52.9216 20.0633C56.7989 20.0633 59.9534 23.2224 59.9534 27.1053ZM40.5001 24.0905L44.5389 26.4252C44.5208 26.6496 44.5114 26.8764 44.5114 27.1053C44.5114 27.7212 44.5784 28.3216 44.7043 28.9002L40.5002 31.3309L34.2389 27.7106L40.5001 24.0905ZM33.5493 28.9061L39.8109 32.5267V39.7671L33.5493 36.1468V28.9061ZM41.1895 32.5266L45.1213 30.2534C45.6305 31.5143 46.4359 32.6246 47.4509 33.4972V36.1468L41.1895 39.767V32.5266ZM46.6621 21.4864C45.7819 22.4689 45.1282 23.6588 44.7845 24.9732L40.9382 22.7497C40.6679 22.5923 40.332 22.5924 40.0634 22.7487L32.6133 27.0564C32.3403 27.2106 32.1706 27.502 32.1706 27.8169V36.4393C32.1706 36.75 32.3375 37.0398 32.6072 37.1964L40.0618 41.5065C40.1972 41.5853 40.349 41.6246 40.5004 41.6246C40.6515 41.6246 40.8024 41.5855 40.9365 41.5075L48.3938 37.1958C48.6625 37.0399 48.8294 36.75 48.8294 36.4393V34.4615C50.0413 35.1404 51.437 35.5281 52.9215 35.5281C54.3475 35.5281 55.6913 35.1705 56.8692 34.5407V42.3557C56.8692 42.584 56.6837 42.7698 56.4557 42.7698H24.5444C24.3164 42.7698 24.1308 42.584 24.1308 42.3557V21.4864H46.6621ZM61.6429 47.6159H19.3573C18.8251 47.6159 18.3923 47.1823 18.3923 46.6494V26.3903C18.3923 26.0096 18.7014 25.7 19.0815 25.7H22.7522V42.3556C22.7522 43.3452 23.5562 44.1504 24.5444 44.1504H56.4558C57.4439 44.1504 58.2479 43.3452 58.2479 42.3556V33.6188C60.1294 32.0728 61.332 29.7272 61.332 27.1053C61.332 26.6266 61.2913 26.1572 61.2142 25.6999H61.9186C62.2986 25.6999 62.6079 26.0095 62.6079 26.3902V46.6493C62.6079 47.1823 62.1749 47.6159 61.6429 47.6159Z" fill="white"/>
<path d="M51.1963 29.9121C51.3612 30.0773 51.5805 30.1684 51.8138 30.1684C52.0471 30.1684 52.2663 30.0774 52.4312 29.9123L57.1163 25.2204C57.3855 24.9507 57.3855 24.5137 57.1163 24.2441C56.8471 23.9746 56.4106 23.9746 56.1415 24.2441L51.8139 28.5781L49.7015 26.4626C49.4324 26.1932 48.9959 26.1932 48.7268 26.4626C48.4576 26.7323 48.4576 27.1693 48.7268 27.4389L51.1963 29.9121Z" fill="white"/>
</g>
<defs>
<clipPath id="clip0_1374_85622">
<rect width="47" height="47.069" fill="white" transform="translate(17 15.9658)"/>
</clipPath>
</defs>
</svg>
