<svg width="79" height="79" viewBox="0 0 79 79" fill="none" xmlns="http://www.w3.org/2000/svg">
<rect width="79" height="79" rx="39.5" fill="#CE6C39"/>
<g clip-path="url(#clip0_1376_87624)">
<path d="M54.8984 28.2715V24.1016H50.7285C50.7285 21.84 48.8886 20 46.627 20C44.3654 20 42.5254 21.84 42.5254 24.1016H39.4492C30.9467 24.1016 24 31.0491 24 39.5508C24 48.0533 30.9475 55 39.4492 55C47.9518 55 54.8984 48.0525 54.8984 39.5508V36.4746C57.16 36.4746 59 34.6346 59 32.373C59 30.1114 57.16 28.2715 54.8984 28.2715ZM38.4238 26.1912V30.9288C39.6602 30.516 39.9089 30.3223 40.4746 30.3223C41.6054 30.3223 42.5254 31.2422 42.5254 32.373C42.5254 33.5038 41.6054 34.4238 40.4746 34.4238C39.9081 34.4238 39.6566 34.2289 38.4238 33.8173V38.5254H36.373C36.373 36.2638 34.5331 34.4238 32.2715 34.4238C30.0099 34.4238 28.1699 36.2638 28.1699 38.5254H26.0897C26.5894 31.9532 31.8516 26.6909 38.4238 26.1912ZM26.0897 40.5762H30.8274C30.414 39.3387 30.2207 39.0911 30.2207 38.5254C30.2207 37.3946 31.1407 36.4746 32.2715 36.4746C33.4023 36.4746 34.3223 37.3946 34.3223 38.5254C34.3223 39.0911 34.1287 39.3393 33.7156 40.5762H38.4238V42.627C36.1622 42.627 34.3223 44.4669 34.3223 46.7285C34.3223 48.9901 36.1622 50.8301 38.4238 50.8301V52.9103C31.8516 52.4106 26.5894 47.1484 26.0897 40.5762ZM40.4746 52.9103V48.1727C39.2383 48.5856 38.9895 48.7793 38.4238 48.7793C37.293 48.7793 36.373 47.8593 36.373 46.7285C36.373 45.5977 37.293 44.6777 38.4238 44.6777C38.9903 44.6777 39.2419 44.8726 40.4746 45.2843V40.5762H42.5254C42.5254 42.8378 44.3654 44.6777 46.627 44.6777C48.8886 44.6777 50.7285 42.8371 50.7285 40.5755L52.8088 40.5762C52.3091 47.1484 47.0468 52.4106 40.4746 52.9103ZM54.8984 34.4238C54.4335 34.4238 54.0811 34.2123 52.8477 33.7891V38.5254H48.071C48.4843 39.7629 48.6777 40.0105 48.6777 40.5762C48.6777 41.707 47.7578 42.627 46.627 42.627C45.4962 42.627 44.5762 41.707 44.5762 40.5762C44.5762 40.0105 44.7698 39.7622 45.1829 38.5254H40.4746V36.4746C42.7362 36.4746 44.5762 34.6346 44.5762 32.373C44.5762 30.1114 42.7362 28.2715 40.4746 28.2715V26.1523H45.2109C44.7925 24.9327 44.5762 24.5663 44.5762 24.1016C44.5762 22.9708 45.4962 22.0508 46.627 22.0508C47.7578 22.0508 48.6777 22.9708 48.6777 24.1016C48.6777 24.5667 48.466 24.9196 48.043 26.1523H52.8477V30.957C54.0673 30.5385 54.4337 30.3223 54.8984 30.3223C56.0292 30.3223 56.9492 31.2422 56.9492 32.373C56.9492 33.5038 56.0292 34.4238 54.8984 34.4238Z" fill="white"/>
</g>
<defs>
<clipPath id="clip0_1376_87624">
<rect width="35" height="35" fill="white" transform="translate(24 20)"/>
</clipPath>
</defs>
</svg>
