<svg width="122" height="122" viewBox="0 0 122 122" fill="none" xmlns="http://www.w3.org/2000/svg">
<path d="M35.6708 20.397C35.3849 20.397 35.0751 20.397 34.7892 20.4208C26.7115 20.6114 16.799 22.9704 4.45605 28.4509V86.4484C18.9435 79.5859 29.8806 77.6082 38.8161 78.5613C42.0805 78.8949 45.0829 79.6336 47.8469 80.6105L37.1005 61.834C35.0513 62.668 32.8353 63.1445 30.5001 63.1445C20.9189 63.1445 13.1056 55.3289 13.1056 45.75C13.1056 36.1712 20.9189 28.3555 30.5001 28.3555C40.079 28.3555 47.8946 36.1712 47.8946 45.75C47.8946 51.4688 45.1067 56.5442 40.8177 59.7371L54.4711 83.5652C55.9485 84.3277 57.3543 85.1617 58.7364 85.9957V28.0934C53.2082 23.8759 46.7747 20.945 38.2442 20.4685C37.4102 20.4208 36.5524 20.397 35.6708 20.397ZM86.1863 20.397C85.3046 20.397 84.423 20.4208 83.589 20.4685C75.0586 20.945 68.6488 23.8759 63.0969 28.0934V85.9957C68.7918 82.5168 75.0347 79.3953 83.0171 78.5613C91.9527 77.6082 102.914 79.5859 117.377 86.4484V28.4509C105.058 22.9704 95.1456 20.6114 87.0679 20.4208C86.7581 20.4208 86.4722 20.397 86.1863 20.397ZM30.5001 32.6446C23.2373 32.6446 17.3947 38.4825 17.3947 45.75C17.3947 53.0176 23.2373 58.8555 30.5001 58.8555C37.7677 58.8555 43.6055 53.0176 43.6055 45.75C43.6055 38.4825 37.7677 32.6446 30.5001 32.6446ZM31.0482 35.9567H31.7153C25.9728 40.2934 23.4279 45.9883 23.7639 52.684C17.5543 43.4387 24.0665 36.1473 31.0482 35.9567ZM34.1696 82.7789C26.5447 82.8503 17.0611 85.114 4.45605 91.357V101.484C18.9435 94.6214 29.8806 92.6437 38.8161 93.5968C43.2481 94.0734 47.1321 95.2409 50.6825 96.7659C49.5626 98.2195 48.4665 99.9351 47.3704 101.937H60.0707L51.4926 86.9964C47.5372 85.0187 43.3196 83.5175 38.3634 82.9933C37.029 82.8503 35.6231 82.7789 34.1696 82.7789ZM86.8058 82.7789C85.662 82.8027 84.566 82.8742 83.4937 82.9933C75.3922 83.8511 69.2922 87.2824 63.0969 91.1902V91.2617C61.6434 90.8089 60.166 90.7136 58.7364 90.9757L65.0031 101.937H75.2968C73.8672 99.9827 72.4851 98.2671 71.0793 96.7898C74.6535 95.2409 78.5613 94.0734 83.0171 93.5968C91.9527 92.6437 102.914 94.6214 117.377 101.484V91.357C104.724 85.0902 95.1933 82.8027 87.5445 82.7789H86.8058Z" fill="#545454"/>
</svg>
