<svg width="79" height="79" viewBox="0 0 79 79" fill="none" xmlns="http://www.w3.org/2000/svg">
<rect width="79" height="79" rx="39.5" fill="#CE6C39"/>
<g clip-path="url(#clip0_1377_78583)">
<path d="M34.7971 25.0762C33.5572 25.0762 32.5483 26.0678 32.5483 27.2867C32.5483 28.5116 33.5572 29.5082 34.7971 29.5082C36.0376 29.5082 37.0468 28.5116 37.0468 27.2867C37.0468 26.0678 36.0376 25.0762 34.7971 25.0762ZM34.7971 27.7773C34.5191 27.7773 34.3013 27.5617 34.3013 27.2867C34.3013 27.0178 34.519 26.8072 34.7971 26.8072C35.0802 26.8072 35.2939 27.0133 35.2939 27.2867C35.2939 27.5617 35.0757 27.7773 34.7971 27.7773Z" fill="white"/>
<path d="M43.2034 25.0762C41.9629 25.0762 40.9536 26.0678 40.9536 27.2867C40.9536 28.5116 41.9629 29.5082 43.2034 29.5082C44.4433 29.5082 45.4521 28.5116 45.4521 27.2867C45.4521 26.0678 44.4433 25.0762 43.2034 25.0762ZM43.2034 27.7773C42.9248 27.7773 42.7066 27.5617 42.7066 27.2867C42.7066 27.0134 42.9202 26.8072 43.2034 26.8072C43.486 26.8072 43.6991 27.0133 43.6991 27.2867C43.6991 27.5617 43.4814 27.7773 43.2034 27.7773Z" fill="white"/>
<path d="M53.5209 31.4669H53.4132C52.8076 31.4669 52.2387 31.6242 51.7448 31.8986V30.9989C51.7448 27.2722 49.5583 23.814 45.9873 21.8089L48.0693 19.753C48.4116 19.415 48.4116 18.867 48.0693 18.5289C47.7269 18.1909 47.1721 18.1909 46.8296 18.5289L44.3138 21.0132C42.6401 20.3547 40.8548 20.0201 39.0046 20.0201C37.149 20.0201 35.3609 20.355 33.6867 21.0138L31.1704 18.5289C30.828 18.1909 30.2732 18.1909 29.9307 18.5289C29.5884 18.8669 29.5884 19.4149 29.9307 19.753L32.0126 21.8087C28.4415 23.8145 26.255 27.2728 26.255 30.9989V31.8986C25.7611 31.6241 25.1922 31.4669 24.5868 31.4669H24.4791C22.5865 31.4669 21.0469 32.9872 21.0469 34.856V45.8439C21.0469 47.7141 22.5865 49.2357 24.4791 49.2357H24.5868C25.1923 49.2357 25.7611 49.0783 26.255 48.8036V50.0803C26.255 51.8333 27.7166 53.2595 29.5131 53.2595H31.1465V58.3346C31.1465 60.2034 32.6873 61.7238 34.5813 61.7238H34.6865C36.5804 61.7238 38.1213 60.2034 38.1213 58.3346V53.2595H39.8803V58.3346C39.8803 60.2034 41.4202 61.7238 43.3131 61.7238H43.4201C45.3131 61.7238 46.8531 60.2034 46.8531 58.3346V53.2595H48.4884C50.2838 53.2595 51.7445 51.8334 51.7445 50.0803V48.8035C52.2383 49.0782 52.8073 49.2356 53.4129 49.2356H53.5205C55.4131 49.2356 56.9528 47.7141 56.9528 45.8438V34.8561C56.9531 32.9873 55.4135 31.4669 53.5209 31.4669ZM26.2551 45.844C26.2552 46.7597 25.5069 47.5047 24.587 47.5047H24.4791C23.5532 47.5047 22.7998 46.7597 22.7998 45.8439V34.8561C22.7998 33.9418 23.5532 33.1979 24.4791 33.1979H24.5868C25.5067 33.1979 26.255 33.9417 26.255 34.8561V45.844H26.2551ZM49.9919 50.0803C49.9918 50.8653 49.3034 51.5284 48.4886 51.5284H45.9769C45.4929 51.5284 45.1004 51.9159 45.1004 52.3939V58.3345C45.1004 59.2487 44.3467 59.9926 43.4203 59.9926H43.3133C42.3872 59.9926 41.6335 59.2488 41.6335 58.3345V52.3939C41.6335 51.9159 41.241 51.5284 40.757 51.5284H37.2451C36.7611 51.5284 36.3686 51.9159 36.3686 52.3939V58.3345C36.3686 59.2487 35.6142 59.9926 34.6869 59.9926H34.5817C33.6543 59.9926 32.8999 59.2488 32.8999 58.3345V52.3939C32.8999 51.9159 32.5074 51.5284 32.0234 51.5284H29.5135C28.6835 51.5284 28.0084 50.8787 28.0084 50.0803V32.6534H44.3467C44.8307 32.6534 45.2232 32.2659 45.2232 31.7879C45.2232 31.3099 44.8307 30.9224 44.3467 30.9224H28.0097C28.0419 27.6551 30.1304 24.6256 33.4793 22.9993L34.2397 22.659C35.7339 22.0567 37.3371 21.7512 39.0047 21.7512C40.6673 21.7512 42.2679 22.0565 43.7622 22.6588L44.5197 22.999C47.8954 24.6372 49.9919 27.7015 49.9919 30.9989V50.0803ZM55.2001 45.8439C55.2001 46.7597 54.4468 47.5047 53.5208 47.5047H53.4131C52.4932 47.5047 51.7447 46.7597 51.7447 45.8439V34.8561C51.7447 33.9418 52.4932 33.1979 53.4131 33.1979H53.5208C54.4467 33.1979 55.2001 33.9417 55.2001 34.8561V45.8439Z" fill="white"/>
<path d="M47.7649 30.9229H47.502C47.018 30.9229 46.6255 31.3103 46.6255 31.7883C46.6255 32.2664 47.018 32.6538 47.502 32.6538H47.7649C48.2489 32.6538 48.6414 32.2664 48.6414 31.7883C48.6414 31.3103 48.249 30.9229 47.7649 30.9229Z" fill="white"/>
</g>
<defs>
<clipPath id="clip0_1377_78583">
<rect width="44" height="43.4483" fill="white" transform="translate(17 18.2754)"/>
</clipPath>
</defs>
</svg>
