<svg width="79" height="79" viewBox="0 0 79 79" fill="none" xmlns="http://www.w3.org/2000/svg">
<rect width="79" height="79" rx="39.5" fill="#CE6C39"/>
<g clip-path="url(#clip0_1377_79193)">
<path d="M59.6255 34.302C61.0648 33.2139 62 31.4998 62 29.5693C62 26.2864 59.3083 23.6152 56 23.6152C52.6917 23.6152 50 26.2864 50 29.5693C50 31.348 50.7943 32.943 52.0445 34.0348H48.0605L43.0303 29.0431C42.737 28.7521 42.263 28.7521 41.9697 29.0431L38.9697 32.0201C38.6765 32.3111 38.6765 32.7815 38.9697 33.0725L45.7197 39.7707C45.86 39.9107 46.0505 39.9888 46.25 39.9888H52.25V45.1986H48.5H39.401L43.124 39.6576L41.876 38.8322L37.5988 45.1986H35.75V41.4773C35.75 41.0657 35.4147 40.7331 35 40.7331H29V37.756C29 36.1872 28.013 34.8482 26.6255 34.302C28.0647 33.2139 29 31.4998 29 29.5693C29 26.2864 26.3082 23.6152 23 23.6152C19.6918 23.6152 17 26.2864 17 29.5693C17 31.4998 17.9352 33.2139 19.3745 34.302C17.987 34.8482 17 36.1872 17 37.756V48.1756C17 50.2275 18.6823 51.8968 20.75 51.8968V60.8279H22.25V51.8968H27.5V60.0836C27.5 60.4952 27.8352 60.8279 28.25 60.8279H33.5C33.9147 60.8279 34.25 60.4952 34.25 60.0836V48.9198C34.25 48.0826 33.9702 47.3093 33.4985 46.6871H34.25H35H38.75V59.3394H35.75V60.8279H43.25V59.3394H40.25V46.6871H45.5195C45.0433 47.3108 44.75 48.0788 44.75 48.9198V60.0836C44.75 60.4952 45.0853 60.8279 45.5 60.8279H50.75C51.1647 60.8279 51.5 60.4952 51.5 60.0836V51.8968H56.75V60.8279H58.25V51.8968C60.3177 51.8968 62 50.2275 62 48.1756V37.756C62 36.1872 61.013 34.8482 59.6255 34.302ZM18.5 29.5693C18.5 27.1065 20.5182 25.1037 23 25.1037C25.4818 25.1037 27.5 27.1065 27.5 29.5693C27.5 32.032 25.4818 34.0348 23 34.0348C20.5182 34.0348 18.5 32.032 18.5 29.5693ZM34.25 45.1986H24.5V39.2445H23V45.9428C23 46.3544 23.3352 46.6871 23.75 46.6871H30.5C31.7405 46.6871 32.75 47.6888 32.75 48.9198V59.3394H29V51.1526C29 50.741 28.6648 50.4083 28.25 50.4083H20.75C19.5095 50.4083 18.5 49.4066 18.5 48.1756V37.756C18.5 36.525 19.5095 35.5233 20.75 35.5233H25.25C26.4905 35.5233 27.5 36.525 27.5 37.756V41.4773C27.5 41.8889 27.8352 42.2216 28.25 42.2216H34.25V45.1986ZM51.5 29.5693C51.5 27.1065 53.5182 25.1037 56 25.1037C58.4818 25.1037 60.5 27.1065 60.5 29.5693C60.5 32.032 58.4818 34.0348 56 34.0348C53.5182 34.0348 51.5 32.032 51.5 29.5693ZM60.5 48.1756C60.5 49.4066 59.4905 50.4083 58.25 50.4083H50.75C50.3353 50.4083 50 50.741 50 51.1526V59.3394H46.25V48.9198C46.25 47.6888 47.2595 46.6871 48.5 46.6871H53C53.4147 46.6871 53.75 46.3544 53.75 45.9428V39.2445C53.75 38.833 53.4147 38.5003 53 38.5003H46.5605L40.5605 32.5463L42.5 30.6216L47.2197 35.3052C47.36 35.4451 47.5505 35.5233 47.75 35.5233H58.25C59.4905 35.5233 60.5 36.525 60.5 37.756V48.1756Z" fill="white"/>
<path d="M47 16.1729H32C30.7595 16.1729 29.75 17.1746 29.75 18.4056V24.3596C29.75 25.5906 30.7595 26.5924 32 26.5924H32.75V31.0579C32.75 31.3586 32.9323 31.631 33.2128 31.7456C33.3058 31.7843 33.4032 31.8022 33.5 31.8022C33.695 31.8022 33.887 31.7262 34.0303 31.5841L39.0605 26.5924H47C48.2405 26.5924 49.25 25.5906 49.25 24.3596V18.4056C49.25 17.1746 48.2405 16.1729 47 16.1729ZM47.75 24.3596C47.75 24.7705 47.414 25.1039 47 25.1039H38.75C38.5505 25.1039 38.36 25.182 38.2197 25.322L34.25 29.2613V25.8481C34.25 25.4366 33.9148 25.1039 33.5 25.1039H32C31.586 25.1039 31.25 24.7705 31.25 24.3596V18.4056C31.25 17.9948 31.586 17.6614 32 17.6614H47C47.414 17.6614 47.75 17.9948 47.75 18.4056V24.3596Z" fill="white"/>
<path d="M37.25 19.1494H32.75V20.6379H37.25V19.1494Z" fill="white"/>
<path d="M46.25 22.127H32.75V23.6155H46.25V22.127Z" fill="white"/>
<path d="M46.25 19.1494H38.75V20.6379H46.25V19.1494Z" fill="white"/>
</g>
<defs>
<clipPath id="clip0_1377_79193">
<rect width="45" height="44.6552" fill="white" transform="translate(17 16.1729)"/>
</clipPath>
</defs>
</svg>
