<svg width="79" height="79" viewBox="0 0 79 79" fill="none" xmlns="http://www.w3.org/2000/svg">
<rect width="79" height="79" rx="39.5" fill="#CE6C39"/>
<g clip-path="url(#clip0_1377_78371)">
<path d="M57.1732 44.7965C55.9424 44.1817 53.0054 42.3316 52.3163 38.4417C52.2533 38.0859 51.912 37.8484 51.5528 37.9107C51.1943 37.9733 50.9547 38.3124 51.0178 38.6683C51.8085 43.1325 55.1576 45.2526 56.5714 45.9608C56.1905 47.0559 55.327 49.2126 53.8075 51.4139C52.1925 53.7572 50.3622 56.413 47.6446 56.4642C44.9158 56.509 43.9298 54.7393 40.4366 54.7393C36.9428 54.7393 35.8313 56.4157 33.2448 56.5174C30.81 56.6099 28.857 54.105 26.9058 51.3063C23.3001 46.1308 20.441 36.5434 24.1628 30.133C25.7191 27.4525 28.2958 25.6353 31.2323 25.1472C31.5913 25.0875 31.8336 24.7503 31.7735 24.3939C31.7134 24.0375 31.3738 23.7969 31.0144 23.8568C27.6878 24.4098 24.7741 26.4593 23.0202 29.4799C19.042 36.3318 21.909 46.4356 25.8213 52.0506C27.4311 54.3597 29.8492 57.8286 33.1202 57.8282C36.0692 57.8282 37.1767 56.0478 40.4365 56.0476C43.6149 56.0476 44.5492 57.8302 47.669 57.7722C51.0665 57.7083 53.1898 54.6278 54.8954 52.1528C56.5061 49.8194 57.4196 47.5336 57.8207 46.3787C58.033 45.7672 57.7547 45.087 57.1732 44.7965Z" fill="white"/>
<path d="M48.9814 14.438C48.9648 13.6574 48.2528 13.0695 47.4718 13.1881C42.3484 13.9648 38.6437 18.8788 38.8064 23.1936C38.8327 23.8863 39.4114 24.4365 40.1047 24.4365C40.117 24.4365 40.1293 24.4363 40.1416 24.436C44.9357 24.3014 49.086 19.3583 48.9814 14.438ZM40.1234 23.1276C40.0466 20.9238 41.214 18.7673 42.337 17.4788C43.6315 15.9748 45.772 14.7711 47.6636 14.4816C47.7426 18.643 44.2201 22.9976 40.1234 23.1276Z" fill="white"/>
<path d="M56.3448 27.6045C54.3567 25.0896 51.5262 23.842 48.2734 23.6013C44.529 23.3262 41.3371 25.5952 39.8628 25.5952C38.6561 25.5952 36.5779 24.3291 34.3308 23.8757C33.9738 23.8035 33.626 24.0324 33.5534 24.3864C33.4809 24.7404 33.7112 25.0858 34.068 25.1578C36.267 25.6016 38.2639 26.9036 39.8628 26.9036C41.7851 26.9036 44.729 24.6524 48.1756 24.9059C51.0447 25.1184 53.5384 26.1819 55.2979 28.3999C54.1531 29.2183 51.4514 31.5318 50.938 35.4172C50.8907 35.7754 51.1449 36.1038 51.5058 36.1508C51.5349 36.1546 51.5638 36.1564 51.5924 36.1564C51.9183 36.1564 52.2016 35.9166 52.2452 35.5873C52.6926 32.2021 55.0716 30.1731 56.0736 29.458C56.6665 29.035 56.8113 28.1945 56.3448 27.6045Z" fill="white"/>
</g>
<defs>
<clipPath id="clip0_1377_78371">
<rect width="45" height="44.6552" fill="white" transform="translate(17 13.1729)"/>
</clipPath>
</defs>
</svg>
