<svg width="79" height="79" viewBox="0 0 79 79" fill="none" xmlns="http://www.w3.org/2000/svg">
<rect width="79" height="79" rx="39.5" fill="#CE6C39"/>
<g clip-path="url(#clip0_1377_78993)">
<path d="M55.7039 32.915C54.8001 32.5653 53.8358 32.248 52.8219 31.9633C53.0836 30.9378 53.2926 29.9392 53.4435 28.9771C54.2288 23.969 53.361 20.456 51.0001 19.085C50.3138 18.6865 49.5251 18.4844 48.6559 18.4844C45.9105 18.4844 42.4414 20.5351 38.9417 23.9982C38.1772 23.243 37.4092 22.5494 36.6436 21.9268C32.7241 18.7387 29.2649 17.7379 26.9042 19.1089C25.387 19.9899 24.4643 21.789 24.236 24.3116C24.1976 24.7353 24.5081 25.11 24.9294 25.1485C25.352 25.1877 25.7231 24.8749 25.7615 24.4512C25.8879 23.0549 26.3216 21.2261 27.6701 20.4431C29.4175 19.4282 32.3372 20.4057 35.6803 23.1246C36.4098 23.7179 37.1422 24.3795 37.8721 25.1001C36.4042 26.6709 34.9435 28.4788 33.5409 30.4769C31.0735 30.7028 28.7233 31.0817 26.5665 31.6014C26.1888 30.1248 25.9294 28.7159 25.8014 27.4079C25.7601 26.9845 25.3869 26.6751 24.9642 26.7167C24.5432 26.7583 24.2355 27.1354 24.277 27.5588C24.4124 28.9428 24.6863 30.4313 25.0855 31.9892C24.1055 32.2671 23.1727 32.5759 22.2963 32.9149C17.5911 34.735 15 37.2474 15 39.9891C15 42.7309 17.5911 45.2433 22.2961 47.0633C23.1999 47.4129 24.1642 47.7302 25.1781 48.0149C24.9164 49.0404 24.7074 50.039 24.5565 51.0011C23.7712 56.0092 24.639 59.5222 26.9999 60.8932C27.6862 61.2917 28.4749 61.4939 29.3441 61.4939C32.058 61.4939 35.479 59.4893 38.9378 56.0982C39.6787 56.826 40.4227 57.496 41.1645 58.0992C43.9384 60.3555 46.4812 61.5161 48.5676 61.516C49.4294 61.5159 50.2138 61.3178 50.9039 60.9171C53.2648 59.5462 54.1326 56.0331 53.3473 51.0251C53.1965 50.0631 52.9875 49.0646 52.7258 48.0392C54.3025 47.6024 55.7528 47.088 57.0374 46.5026C57.4227 46.3269 57.5935 45.8704 57.4188 45.4829C57.2442 45.0954 56.7902 44.9235 56.405 45.0993C55.1885 45.6537 53.8133 46.1418 52.3156 46.557C51.6964 44.4759 50.8718 42.3034 49.867 40.1057C50.917 37.8334 51.7752 35.5858 52.4144 33.4358C58.0993 35.0367 61.4681 37.5652 61.4681 39.9891C61.4681 41.5552 60.1102 42.8474 58.9711 43.6554C58.6254 43.9007 58.5428 44.3813 58.7866 44.729C59.0305 45.0768 59.5084 45.1597 59.8541 44.9145C61.9122 43.4544 63 41.7512 63 39.9891C63 37.2474 60.4089 34.735 55.7039 32.915ZM48.6558 20.0252C49.2526 20.0252 49.7837 20.1578 50.234 20.4194C51.9817 21.4342 52.5999 24.466 51.9301 28.7371C51.7866 29.652 51.5879 30.6023 51.3389 31.5792C49.173 31.0627 46.8147 30.6876 44.3398 30.4662C42.9513 28.4898 41.494 26.6823 40.0122 25.0991C40.2833 24.8302 40.5547 24.5693 40.8255 24.3183C43.813 21.5498 46.5937 20.0252 48.6558 20.0252ZM38.9438 26.2037C40.0996 27.4426 41.2417 28.8247 42.347 30.3227C41.2472 30.2625 40.1296 30.2312 39 30.2312C37.8326 30.2312 36.6778 30.2642 35.5425 30.3285C36.6463 28.833 37.7899 27.4453 38.9438 26.2037ZM38.9384 53.9014C37.7417 52.6257 36.5592 51.1958 35.4164 49.6422C36.5923 49.7115 37.7893 49.747 39 49.747C40.1662 49.747 41.3216 49.7128 42.4592 49.6475C41.3174 51.1948 40.133 52.6272 38.9384 53.9014ZM39 48.2063C37.3542 48.2063 35.775 48.1422 34.2701 48.023C33.4247 46.7827 32.607 45.4778 31.8285 44.1215C31.0622 42.7868 30.3573 41.44 29.7188 40.0997C30.3816 38.6966 31.1187 37.2841 31.9244 35.8805C32.7046 34.5214 33.5329 33.2035 34.3935 31.9458C35.8615 31.833 37.399 31.7719 39 31.7719C40.5598 31.7719 42.0593 31.8299 43.493 31.9372C44.3543 33.1972 45.1873 34.5241 45.9797 35.9044C46.7814 37.301 47.5151 38.7063 48.1755 40.1026C47.5403 41.4319 46.8385 42.7688 46.0757 44.0976C45.297 45.4541 44.4703 46.7697 43.6114 48.0253C42.1085 48.1442 40.5649 48.2063 39 48.2063ZM32.2989 47.8309C30.4143 47.6119 28.665 47.304 27.0694 46.9259C27.5539 45.3042 28.1681 43.6226 28.9005 41.9145C29.4007 42.9096 29.9348 43.9044 30.5018 44.8919C31.0806 45.9003 31.6812 46.8816 32.2989 47.8309ZM32.4204 32.1331C31.7963 33.0902 31.1869 34.0837 30.5978 35.1102C29.9918 36.1657 29.4234 37.2271 28.8946 38.2869C28.1242 36.5081 27.4793 34.756 26.9758 33.0743C28.6306 32.6779 30.4524 32.357 32.4204 32.1331ZM16.5319 39.9891C16.5319 37.5782 19.8647 35.0638 25.4943 33.4616C26.1311 35.5983 26.9855 37.8393 28.0276 40.1018C27.0254 42.296 26.2031 44.4648 25.5854 46.5425C19.9007 44.9415 16.5319 42.4131 16.5319 39.9891ZM29.3442 59.953C28.7474 59.953 28.2163 59.8204 27.766 59.5588C26.0183 58.544 25.4001 55.5123 26.0699 51.2411C26.2134 50.3262 26.4121 49.3759 26.6611 48.3991C28.7566 48.8988 31.0322 49.2661 33.4192 49.4898C34.844 51.5243 36.3419 53.3809 37.8648 55.0002C37.6347 55.2263 37.4044 55.4468 37.1745 55.66C34.187 58.4285 31.4063 59.953 29.3442 59.953ZM51.8342 51.265C52.504 55.5362 51.8858 58.5679 50.1381 59.5827C48.3904 60.5975 45.471 59.6201 42.1279 56.9013C41.4239 56.3287 40.7171 55.6926 40.0126 55.0012C41.5201 53.4011 43.0215 51.5496 44.4616 49.4978C46.8546 49.2769 49.1413 48.9127 51.2417 48.4184C51.4914 49.3968 51.6905 50.3487 51.8342 51.265ZM50.8303 46.9353C49.1897 47.3187 47.4283 47.6204 45.5871 47.8335C46.2086 46.88 46.8154 45.8904 47.4022 44.8681C47.9657 43.8865 48.4963 42.8999 48.9933 41.9143C49.7281 43.6255 50.3442 45.3103 50.8303 46.9353ZM49.0003 38.2924C48.4742 37.2386 47.9088 36.1834 47.3063 35.134C46.7122 34.0988 46.0952 33.0922 45.4602 32.1195C47.4369 32.34 49.2671 32.6581 50.9306 33.0523C50.4245 34.7464 49.7763 36.5059 49.0003 38.2924Z" fill="white"/>
<path d="M39.0002 36.1377C36.8884 36.1377 35.1704 37.8656 35.1704 39.9895C35.1704 42.1134 36.8884 43.8413 39.0002 43.8413C41.112 43.8413 42.83 42.1134 42.83 39.9895C42.83 37.8656 41.112 36.1377 39.0002 36.1377ZM39.0002 42.3006C37.7332 42.3006 36.7023 41.2638 36.7023 39.9895C36.7023 38.7152 37.7332 37.6784 39.0002 37.6784C40.2672 37.6784 41.2981 38.7152 41.2981 39.9895C41.2981 41.2638 40.2672 42.3006 39.0002 42.3006Z" fill="white"/>
</g>
<defs>
<clipPath id="clip0_1377_78993">
<rect width="48" height="48.2759" fill="white" transform="translate(15 15.8623)"/>
</clipPath>
</defs>
</svg>
