<svg width="79" height="79" viewBox="0 0 79 79" fill="none" xmlns="http://www.w3.org/2000/svg">
<rect width="79" height="79" rx="39.5" fill="#CE6C39"/>
<g clip-path="url(#clip0_1377_79400)">
<path d="M35.2675 60.6443C34.5048 60.4281 33.7421 60.2335 33.0992 59.7145C32.1949 58.99 31.6283 58.0818 31.6174 56.9141C31.5956 55.6274 31.138 54.5029 30.4406 53.4541C30.3426 53.3135 30.0484 53.2486 29.8414 53.227C28.7409 53.1081 27.8801 52.5891 27.1937 51.7565C26.5835 51.0105 26.3329 50.1347 26.3329 49.194C26.322 42.0903 26.322 34.9865 26.3329 27.8828C26.3329 25.9257 27.4552 24.4661 29.3292 23.9254C29.3946 23.9038 29.4709 23.8606 29.5363 23.8714C30.2881 23.9687 30.5823 23.5037 30.8765 22.9307C31.3123 22.0549 31.5847 21.1466 31.6283 20.1735C31.7155 18.5733 32.805 17.1677 34.374 16.7136C34.8862 16.5622 35.4201 16.4649 35.954 16.4541C38.4709 16.4324 40.9988 16.4216 43.5157 16.4541C45.1937 16.4757 46.5666 17.1352 47.3837 18.6382C47.6235 19.0815 47.7869 19.6113 47.7978 20.1087C47.8305 21.4061 48.2663 22.5523 48.9745 23.6119C49.0726 23.7632 49.3668 23.8173 49.5738 23.8497C50.6852 23.9687 51.5678 24.4877 52.2542 25.3527C52.8862 26.1312 53.1041 27.0394 53.1041 28.0017C53.115 30.1317 53.1041 32.2618 53.1041 34.3918C53.1041 34.5216 53.1041 34.6513 53.1041 34.8568C53.4201 34.8568 53.7143 34.8568 54.0084 34.8568C55.2942 34.8676 56.0569 35.6244 56.0678 36.9003C56.0678 38.0032 56.0787 39.1168 56.0678 40.2197C56.0569 41.4956 55.2942 42.2416 53.9976 42.2524C53.7252 42.2524 53.4528 42.2524 53.1041 42.2524C53.1041 42.4254 53.1041 42.5768 53.1041 42.7282C53.1041 44.8582 53.1041 46.9883 53.1041 49.1183C53.1041 50.1887 52.8208 51.1619 52.0799 51.9728C51.4261 52.6864 50.6307 53.1513 49.6392 53.2378C49.2796 53.2703 49.0617 53.4108 48.8656 53.7352C48.2118 54.8273 47.9721 56.0166 47.8087 57.2492C47.5908 58.8819 46.5339 59.855 45.0193 60.4065C44.736 60.5038 44.4419 60.5795 44.1586 60.666C41.184 60.6443 38.2203 60.6443 35.2675 60.6443ZM27.8365 38.5005C27.8365 42.0578 27.8583 45.6043 27.8256 49.1616C27.8147 50.6969 28.9588 51.7998 30.4515 51.7998C36.6077 51.7782 42.7748 51.7782 48.9419 51.7998C50.5545 51.8106 51.5787 50.5564 51.5678 49.1724C51.5351 42.0903 51.5569 35.019 51.546 27.9368C51.546 27.6773 51.546 27.4178 51.4806 27.1692C51.1646 25.9582 50.2494 25.3202 48.8547 25.3202C42.753 25.3202 36.6513 25.3202 30.5387 25.3202C30.2554 25.3202 29.9503 25.3202 29.6779 25.3959C28.5012 25.6987 27.8365 26.6177 27.8365 27.9368C27.8365 31.4509 27.8365 34.9757 27.8365 38.5005ZM47.2094 23.7741C47.1658 23.6659 47.1549 23.6011 47.1222 23.5362C46.6101 22.5414 46.3377 21.4818 46.305 20.3573C46.2724 19.2437 45.6622 18.4976 44.6162 18.1408C44.1695 17.9894 43.6791 17.9246 43.2106 17.9246C40.9225 17.9029 38.6343 17.9137 36.3462 17.9137C35.9975 17.9137 35.6489 17.9354 35.3111 17.9894C33.9927 18.184 33.1428 19.1464 33.0992 20.4547C33.0883 20.7033 33.0992 20.952 33.0339 21.1791C32.805 22.0441 32.5435 22.8983 32.2929 23.7632C37.1852 23.7741 42.1646 23.7741 47.2094 23.7741ZM47.0242 53.3243C42.1101 53.3243 37.1307 53.3243 32.1186 53.3243C32.1513 53.4216 32.1731 53.4865 32.2058 53.5514C32.7179 54.5461 33.0012 55.6058 33.023 56.7302C33.0339 57.5412 33.3934 58.1899 34.0908 58.644C34.7118 59.0441 35.3983 59.163 36.1174 59.163C38.4055 59.163 40.6937 59.163 42.9927 59.163C43.3414 59.163 43.69 59.1414 44.0278 59.0873C45.2046 58.9143 46.0436 58.1142 46.207 57.0006C46.2615 56.6437 46.207 56.2761 46.2942 55.9301C46.5012 55.0651 46.7736 54.211 47.0242 53.3243ZM53.1041 36.4029C53.1041 37.8302 53.1041 39.2574 53.1041 40.7387C53.4201 40.7387 53.7034 40.7279 53.9867 40.7387C54.3789 40.7603 54.5315 40.5981 54.5206 40.2089C54.5097 39.3223 54.5206 38.4249 54.5097 37.5382C54.4988 36.2516 54.7276 36.3597 53.2348 36.3705C53.213 36.3597 53.1695 36.3813 53.1041 36.4029Z" fill="white"/>
<path d="M33.4369 42.5768C32.7831 43.5499 32.1729 44.4365 31.5846 45.3447C31.3122 45.7664 30.9635 45.961 30.4623 45.9286C30.0482 45.907 29.6233 45.9286 29.2093 45.8853C28.7734 45.8421 28.5664 45.5826 28.5664 45.1717C28.5664 44.7717 28.7952 44.5014 29.2093 44.4365C29.3073 44.4149 29.4163 44.404 29.5143 44.4257C30.2226 44.577 30.6039 44.2311 30.9526 43.6472C31.5955 42.5768 32.3255 41.5496 33.0119 40.5116C33.2189 40.198 33.4587 39.9385 33.8945 40.0142C34.3085 40.0899 34.472 40.3819 34.57 40.7495C35.1257 42.8146 35.6923 44.869 36.2698 47.0098C36.3788 46.8801 36.455 46.7936 36.5204 46.6963C37.087 45.8637 37.6645 45.0312 38.1984 44.1878C38.4272 43.831 38.7214 43.6796 39.1245 43.6904C39.5059 43.7012 39.8763 43.6688 40.2577 43.7012C40.5846 43.7229 40.7807 43.6256 40.9441 43.3228C41.4453 42.4362 41.9901 41.5712 42.524 40.6954C42.5676 40.6197 42.6112 40.544 42.6548 40.4683C42.8509 40.1656 43.1124 39.971 43.4829 40.025C43.8533 40.0791 44.0277 40.3494 44.1148 40.7062C44.5725 42.4146 45.041 44.1121 45.4986 45.8097C45.5749 46.08 45.6512 46.3503 45.7601 46.7503C46.1197 46.0259 46.4792 45.4312 46.719 44.7825C47.0567 43.8742 47.6233 43.4634 48.593 43.6256C48.8327 43.6688 49.0834 43.6256 49.334 43.6472C49.7262 43.6796 49.9986 43.9824 49.9986 44.3608C49.9986 44.7392 49.7262 45.0528 49.3449 45.096C49.3013 45.1069 49.2577 45.1069 49.2141 45.096C48.3969 44.923 48.0265 45.3339 47.7214 46.0367C47.3073 47.0098 46.7734 47.9397 46.3049 48.8912C46.1415 49.2156 45.9453 49.4859 45.5204 49.4534C45.0628 49.421 44.834 49.1507 44.725 48.729C44.1802 46.7503 43.6245 44.7825 43.0797 42.8038C43.0688 42.7498 43.047 42.7065 43.0035 42.5551C42.5349 43.3336 42.0882 44.0364 41.6959 44.7609C41.5434 45.042 41.3691 45.1825 41.064 45.1825C40.5955 45.1825 40.1378 45.2042 39.6693 45.1717C39.3751 45.1501 39.2226 45.269 39.0809 45.4961C38.2964 46.6855 37.501 47.8748 36.7165 49.0642C36.5095 49.3777 36.2589 49.6264 35.834 49.5832C35.4308 49.5399 35.2456 49.2696 35.1475 48.9128C34.6027 46.8801 34.047 44.8474 33.4913 42.8146C33.5131 42.7606 33.4913 42.7173 33.4369 42.5768Z" fill="white"/>
<path d="M39.7019 29.7207C38.0349 29.7207 36.3678 29.7207 34.7116 29.7207C34.0361 29.7207 33.731 29.4288 33.7746 28.8773C33.8073 28.553 33.9598 28.3367 34.2867 28.2718C34.4283 28.2394 34.57 28.2178 34.7116 28.2178C38.0458 28.2178 41.369 28.2178 44.7031 28.2178C45.2806 28.2178 45.5857 28.4448 45.6184 28.8665C45.6729 29.4071 45.3351 29.7315 44.6923 29.7315C43.4174 29.7423 42.1426 29.7315 40.8678 29.7315C40.4755 29.7207 40.0942 29.7207 39.7019 29.7207Z" fill="white"/>
<path d="M37.0652 32.662C36.2371 32.662 35.4199 32.6728 34.5919 32.662C33.9817 32.6512 33.6548 32.3052 33.7965 31.7646C33.8509 31.5484 34.1015 31.3645 34.3086 31.2132C34.4066 31.1375 34.5919 31.1591 34.7335 31.1591C36.3134 31.1591 37.8824 31.1591 39.4623 31.1591C39.811 31.1591 40.1706 31.1807 40.3558 31.5484C40.6282 32.089 40.2468 32.6404 39.5931 32.6512C38.7541 32.6728 37.9042 32.662 37.0652 32.662Z" fill="white"/>
<path d="M42.6876 34.1212C43.3958 34.1212 44.1041 34.1104 44.8232 34.1212C45.368 34.132 45.6404 34.3915 45.6295 34.8564C45.6186 35.2997 45.3135 35.5917 44.7905 35.5917C43.374 35.6025 41.9467 35.6025 40.5302 35.5917C39.9963 35.5917 39.713 35.3213 39.7021 34.8564C39.7021 34.3807 39.9636 34.1212 40.5084 34.1104C41.2385 34.1104 41.9576 34.1212 42.6876 34.1212Z" fill="white"/>
<path d="M35.9539 35.6026C35.4745 35.6026 34.9951 35.6134 34.5156 35.6026C34.0253 35.5918 33.7529 35.2999 33.7529 34.8457C33.7529 34.4133 34.0144 34.1321 34.4938 34.1321C35.4745 34.1213 36.466 34.1213 37.4466 34.1321C37.9261 34.1429 38.1984 34.4241 38.2093 34.8457C38.2093 35.2674 37.8934 35.5918 37.4248 35.6026C36.9454 35.6134 36.4551 35.6026 35.9539 35.6026Z" fill="white"/>
<path d="M43.7335 32.6619C43.3848 32.6619 43.0361 32.6727 42.6875 32.6619C42.1972 32.6403 41.903 32.3483 41.9139 31.905C41.9139 31.4833 42.1754 31.1914 42.6548 31.1806C43.4066 31.1481 44.1584 31.1481 44.9102 31.1806C45.4005 31.2022 45.6293 31.4833 45.6185 31.9266C45.6076 32.3375 45.3134 32.6294 44.8557 32.6511C44.4962 32.6835 44.1148 32.6619 43.7335 32.6619Z" fill="white"/>
</g>
<defs>
<clipPath id="clip0_1377_79400">
<rect width="54.73" height="44.6552" fill="white" transform="translate(13.8569 16.1729)"/>
</clipPath>
</defs>
</svg>
