<svg width="79" height="79" viewBox="0 0 79 79" fill="none" xmlns="http://www.w3.org/2000/svg">
<rect width="79" height="79" rx="39.5" fill="#CE6C39"/>
<path d="M46.5312 22.7548C46.9196 22.7548 47.2344 22.4425 47.2344 22.0571C47.2344 21.6718 46.9196 21.3594 46.5312 21.3594C46.1429 21.3594 45.8281 21.6718 45.8281 22.0571C45.8281 22.4425 46.1429 22.7548 46.5312 22.7548Z" fill="white"/>
<path d="M49.3438 22.7548C49.7321 22.7548 50.0469 22.4425 50.0469 22.0571C50.0469 21.6718 49.7321 21.3594 49.3438 21.3594C48.9554 21.3594 48.6406 21.6718 48.6406 22.0571C48.6406 22.4425 48.9554 22.7548 49.3438 22.7548Z" fill="white"/>
<path d="M38.7969 21.3594H44.4219V22.7548H38.7969V21.3594Z" fill="white"/>
<path d="M38.7969 56.2461H44.4219V57.6416H38.7969V56.2461Z" fill="white"/>
<path d="M59.8906 56.2462H57.7812V35.892C57.7813 34.5435 57.2786 33.2425 56.3699 32.2398C55.4612 31.237 54.2107 30.6033 52.8594 30.4607V20.6616C52.8587 20.1066 52.6363 19.5746 52.2408 19.1821C51.8454 18.7897 51.3092 18.569 50.75 18.5684H32.4688C31.9095 18.569 31.3733 18.7897 30.9779 19.1821C30.5825 19.5746 30.36 20.1066 30.3594 20.6616V26.9412H19.1094C18.9229 26.9412 18.7441 27.0147 18.6122 27.1456C18.4803 27.2764 18.4063 27.4539 18.4062 27.6389V51.362C18.4063 51.5471 18.4803 51.7245 18.6122 51.8554C18.7441 51.9862 18.9229 52.0597 19.1094 52.0597H30.3594V58.3394C30.36 58.8943 30.5825 59.4264 30.9779 59.8188C31.3733 60.2112 31.9095 60.4319 32.4688 60.4326H50.75C51.3092 60.4319 51.8454 60.2112 52.2408 59.8188C52.6363 59.4264 52.8587 58.8943 52.8594 58.3394V57.6416H59.1875V60.4326H60.5938V56.9439C60.5937 56.7589 60.5197 56.5814 60.3878 56.4505C60.2559 56.3197 60.0771 56.2462 59.8906 56.2462ZM32.4688 19.9638H50.75C50.9364 19.964 51.1151 20.0376 51.2469 20.1684C51.3788 20.2992 51.4529 20.4766 51.4531 20.6616V24.2703C51.2274 24.1908 50.9896 24.1502 50.75 24.1503H32.4688C32.2292 24.1502 31.9914 24.1908 31.7656 24.2703V20.6616C31.7658 20.4766 31.84 20.2992 31.9718 20.1684C32.1036 20.0376 32.2823 19.964 32.4688 19.9638ZM44.4219 52.0597V50.6643H19.8125V28.3367H44.4219V26.9412H31.7656V26.2435C31.7658 26.0585 31.84 25.8811 31.9718 25.7503C32.1036 25.6195 32.2823 25.5459 32.4688 25.5457H50.75C50.9364 25.5459 51.1151 25.6195 51.2469 25.7503C51.3788 25.8811 51.4529 26.0585 51.4531 26.2435V35.0678C50.8574 34.6271 50.1156 34.4265 49.3769 34.5064C48.6382 34.5862 47.9573 34.9407 47.4713 35.4984C46.9852 36.0562 46.7299 36.7758 46.7568 37.5128C46.7836 38.2497 47.0906 38.9491 47.6161 39.4706L51.1619 42.9892L50.7146 43.4329C49.5297 44.6115 48.8642 46.2084 48.8642 47.8733C48.8642 49.5382 49.5297 51.1351 50.7146 52.3137L51.4078 53.0015C51.3577 53.1346 51.2679 53.2493 51.1503 53.3303C51.0328 53.4114 50.8931 53.455 50.75 53.4552H32.4688C32.2823 53.455 32.1036 53.3814 31.9718 53.2506C31.84 53.1198 31.7658 52.9425 31.7656 52.7575V52.0597H44.4219ZM51.4531 58.3394C51.4529 58.5244 51.3788 58.7017 51.2469 58.8325C51.1151 58.9633 50.9364 59.0369 50.75 59.0371H32.4688C32.2823 59.0369 32.1036 58.9633 31.9718 58.8325C31.84 58.7017 31.7658 58.5244 31.7656 58.3394V54.7307C31.9914 54.8102 32.2292 54.8508 32.4688 54.8507H50.75C50.9896 54.8508 51.2274 54.8102 51.4531 54.7307V58.3394ZM52.8594 56.2462V52.7575C52.8594 52.5724 52.7853 52.3949 52.6535 52.2641L51.7091 51.3269C50.7874 50.4103 50.2698 49.1682 50.2698 47.8733C50.2698 46.5784 50.7874 45.3364 51.7091 44.4197L52.6535 43.4826C52.7853 43.3517 52.8594 43.1742 52.8594 42.9892C52.8594 42.8041 52.7853 42.6266 52.6535 42.4958L48.6105 38.4838C48.468 38.3424 48.355 38.1746 48.2779 37.9899C48.2008 37.8052 48.1612 37.6072 48.1612 37.4073C48.1612 37.2073 48.2008 37.0094 48.2779 36.8247C48.355 36.64 48.468 36.4721 48.6105 36.3308C48.8982 36.0453 49.2884 35.8849 49.6953 35.8849C49.8968 35.8849 50.0963 35.9242 50.2824 36.0007C50.4685 36.0773 50.6377 36.1894 50.7801 36.3308L53.0653 38.5984C53.1972 38.7293 53.376 38.8028 53.5625 38.8028C53.749 38.8028 53.9278 38.7293 54.0597 38.5984C54.1916 38.4675 54.2657 38.2901 54.2657 38.105C54.2657 37.9199 54.1916 37.7425 54.0597 37.6116L52.8594 36.4205V31.8658C53.8353 32.0053 54.7279 32.4891 55.3736 33.2286C56.0192 33.968 56.3748 34.9136 56.375 35.892V56.2462H52.8594Z" fill="white"/>
<path d="M42.3125 30.4297H47.2344V31.8252H42.3125V30.4297Z" fill="white"/>
<path d="M48.6406 30.4297H50.0469V31.8252H48.6406V30.4297Z" fill="white"/>
<path d="M42.3125 33.2207H46.5312V34.6162H42.3125V33.2207Z" fill="white"/>
<path d="M42.3125 36.0117H45.125V37.4072H42.3125V36.0117Z" fill="white"/>
<path d="M42.3125 38.8027H45.8281V40.1982H42.3125V38.8027Z" fill="white"/>
<path d="M42.3125 41.5938H47.9375V42.9892H42.3125V41.5938Z" fill="white"/>
<path d="M42.3125 44.3848H46.5312V45.7802H42.3125V44.3848Z" fill="white"/>
<path d="M42.3125 47.1758H45.125V48.5713H42.3125V47.1758Z" fill="white"/>
<path d="M46.5312 47.1758H47.9375V48.5713H46.5312V47.1758Z" fill="white"/>
<path d="M21.915 35.3136H26.1409C26.3274 35.3136 26.5062 35.24 26.6381 35.1092C26.7699 34.9783 26.844 34.8009 26.844 34.6158V30.4223C26.844 30.2373 26.7699 30.0598 26.6381 29.929C26.5062 29.7981 26.3274 29.7246 26.1409 29.7246H21.915C21.7286 29.7246 21.5497 29.7981 21.4179 29.929C21.286 30.0598 21.2119 30.2373 21.2119 30.4223V34.6158C21.2119 34.8009 21.286 34.9783 21.4179 35.1092C21.5497 35.24 21.7286 35.3136 21.915 35.3136ZM22.6182 31.1201H25.4378V33.9181H22.6182V31.1201Z" fill="white"/>
<path d="M28.9463 35.3136H33.1722C33.3586 35.3136 33.5375 35.24 33.6693 35.1092C33.8012 34.9783 33.8753 34.8009 33.8753 34.6158V30.4223C33.8753 30.2373 33.8012 30.0598 33.6693 29.929C33.5375 29.7981 33.3586 29.7246 33.1722 29.7246H28.9463C28.7598 29.7246 28.581 29.7981 28.4491 29.929C28.3173 30.0598 28.2432 30.2373 28.2432 30.4223V34.6158C28.2432 34.8009 28.3173 34.9783 28.4491 35.1092C28.581 35.24 28.7598 35.3136 28.9463 35.3136ZM29.6494 31.1201H32.469V33.9181H29.6494V31.1201Z" fill="white"/>
<path d="M40.2102 29.7246H35.9844C35.7979 29.7246 35.6191 29.7981 35.4872 29.929C35.3553 30.0598 35.2813 30.2373 35.2812 30.4223V34.6158C35.2813 34.8009 35.3553 34.9783 35.4872 35.1092C35.6191 35.24 35.7979 35.3136 35.9844 35.3136H40.2102C40.3967 35.3136 40.5756 35.24 40.7074 35.1092C40.8393 34.9783 40.9134 34.8009 40.9134 34.6158V30.4223C40.9134 30.2373 40.8393 30.0598 40.7074 29.929C40.5756 29.7981 40.3967 29.7246 40.2102 29.7246ZM39.5071 33.9181H36.6875V31.1201H39.5071V33.9181Z" fill="white"/>
<path d="M40.2102 36.7021H35.9844C35.7979 36.7022 35.6191 36.7757 35.4872 36.9065C35.3553 37.0374 35.2813 37.2148 35.2812 37.3999V41.5934C35.2813 41.7784 35.3553 41.9559 35.4872 42.0867C35.6191 42.2176 35.7979 42.2911 35.9844 42.2911H40.2102C40.3967 42.2911 40.5756 42.2176 40.7074 42.0867C40.8393 41.9559 40.9134 41.7784 40.9134 41.5934V37.3999C40.9134 37.2148 40.8393 37.0374 40.7074 36.9065C40.5756 36.7757 40.3967 36.7022 40.2102 36.7021ZM39.5071 40.8956H36.6875V38.0976H39.5071V40.8956Z" fill="white"/>
<path d="M28.9463 42.2911H33.1722C33.3586 42.2911 33.5375 42.2176 33.6693 42.0867C33.8012 41.9559 33.8753 41.7784 33.8753 41.5934V37.3999C33.8753 37.2148 33.8012 37.0374 33.6693 36.9065C33.5375 36.7757 33.3586 36.7022 33.1722 36.7021H28.9463C28.7598 36.7022 28.581 36.7757 28.4491 36.9065C28.3173 37.0374 28.2432 37.2148 28.2432 37.3999V41.5934C28.2432 41.7784 28.3173 41.9559 28.4491 42.0867C28.581 42.2176 28.7598 42.2911 28.9463 42.2911ZM29.6494 38.0976H32.469V40.8956H29.6494V38.0976Z" fill="white"/>
<path d="M26.1477 36.7021H21.9219C21.7354 36.7022 21.5566 36.7757 21.4247 36.9065C21.2928 37.0374 21.2188 37.2148 21.2188 37.3999V41.5934C21.2188 41.7784 21.2928 41.9559 21.4247 42.0867C21.5566 42.2176 21.7354 42.2911 21.9219 42.2911H26.1477C26.3342 42.2911 26.5131 42.2176 26.6449 42.0867C26.7768 41.9559 26.8509 41.7784 26.8509 41.5934V37.3999C26.8509 37.2148 26.7768 37.0374 26.6449 36.9065C26.5131 36.7757 26.3342 36.7022 26.1477 36.7021ZM25.4446 40.8956H22.625V38.0976H25.4446V40.8956Z" fill="white"/>
<path d="M26.1477 43.6797H21.9219C21.7354 43.6797 21.5566 43.7532 21.4247 43.8841C21.2928 44.0149 21.2188 44.1924 21.2188 44.3774V48.5709C21.2188 48.756 21.2928 48.9334 21.4247 49.0643C21.5566 49.1951 21.7354 49.2686 21.9219 49.2687H26.1477C26.3342 49.2686 26.5131 49.1951 26.6449 49.0643C26.7768 48.9334 26.8509 48.756 26.8509 48.5709V44.3774C26.8509 44.1924 26.7768 44.0149 26.6449 43.8841C26.5131 43.7532 26.3342 43.6797 26.1477 43.6797ZM25.4446 47.8732H22.625V45.0752H25.4446V47.8732Z" fill="white"/>
<path d="M33.179 43.6797H28.9531C28.7666 43.6797 28.5878 43.7532 28.456 43.8841C28.3241 44.0149 28.25 44.1924 28.25 44.3774V48.5709C28.25 48.756 28.3241 48.9334 28.456 49.0643C28.5878 49.1951 28.7666 49.2686 28.9531 49.2687H33.179C33.3655 49.2686 33.5443 49.1951 33.6762 49.0643C33.808 48.9334 33.8821 48.756 33.8821 48.5709V44.3774C33.8821 44.1924 33.808 44.0149 33.6762 43.8841C33.5443 43.7532 33.3655 43.6797 33.179 43.6797ZM32.4759 47.8732H29.6562V45.0752H32.4759V47.8732Z" fill="white"/>
<path d="M40.2034 43.6797H35.9775C35.7911 43.6797 35.6122 43.7532 35.4804 43.8841C35.3485 44.0149 35.2744 44.1924 35.2744 44.3774V48.5709C35.2744 48.756 35.3485 48.9334 35.4804 49.0643C35.6122 49.1951 35.7911 49.2686 35.9775 49.2687H40.2034C40.3899 49.2686 40.5687 49.1951 40.7006 49.0643C40.8324 48.9334 40.9065 48.756 40.9065 48.5709V44.3774C40.9065 44.1924 40.8324 44.0149 40.7006 43.8841C40.5687 43.7532 40.3899 43.6797 40.2034 43.6797ZM39.5003 47.8732H36.6807V45.0752H39.5003V47.8732Z" fill="white"/>
</svg>
