<svg width="79" height="79" viewBox="0 0 79 79" fill="none" xmlns="http://www.w3.org/2000/svg">
<rect width="79" height="79" rx="39.5" fill="#CE6C39"/>
<g clip-path="url(#clip0_1377_80338)">
<path d="M34.3438 28.4678C29.6052 28.4678 25.75 32.2746 25.75 36.9538C25.75 41.6329 29.6052 45.4398 34.3438 45.4398C39.0823 45.4398 42.9375 41.6329 42.9375 36.9538C42.9375 32.2746 39.0823 28.4678 34.3438 28.4678ZM41.1631 36.1052H37.7657C37.6917 34.0695 37.35 32.0372 36.7149 30.5813C39.0823 31.443 40.8397 33.5569 41.1631 36.1052ZM34.3438 43.7426C34.27 43.7426 33.798 43.4545 33.336 42.086C32.9447 40.927 32.7041 39.4292 32.6418 37.8024L36.0457 37.8015C35.9834 39.4284 35.7427 40.927 35.3515 42.086C34.8895 43.4545 34.4175 43.7426 34.3438 43.7426ZM32.6418 36.1052C32.7041 34.4783 32.9447 32.9805 33.336 31.8215C33.798 30.4529 34.27 30.165 34.3438 30.165C34.4175 30.165 34.8895 30.453 35.3515 31.8215C35.7428 32.9805 35.9834 34.4783 36.0457 36.1052H32.6418ZM31.9727 30.5813C31.3376 32.0372 30.9959 34.0695 30.9219 36.1052H27.5244C27.8478 33.5569 29.6052 31.443 31.9727 30.5813ZM27.5244 37.8024H30.9218C30.9958 39.8381 31.3375 41.8703 31.9726 43.3262C29.6052 42.4645 27.8478 40.3505 27.5244 37.8024ZM36.7148 43.3261C37.3499 41.8703 37.6916 39.8371 37.7656 37.8014L41.1631 37.8023C40.8397 40.3505 39.0823 42.4645 36.7148 43.3261Z" fill="white"/>
<path d="M52.9982 43.991L50.8713 41.8908L52.0864 40.6909C52.5156 40.267 52.3759 39.5473 51.8172 39.3108L45.4372 36.6106C45.1143 36.474 44.7396 36.5452 44.491 36.7905C44.2425 37.0359 44.1703 37.4059 44.3088 37.7249L47.0433 44.0249C47.2837 44.5787 48.0129 44.7134 48.4409 44.2907L49.656 43.0908L51.7829 45.191C52.1184 45.5224 52.6626 45.5224 52.9983 45.191C53.3338 44.8598 53.3338 44.3224 52.9982 43.991ZM48.1231 42.2044L46.7351 39.0065L49.9736 40.3771L49.0487 41.2904C49.0486 41.2905 49.0485 41.2906 49.0483 41.2908C49.0481 41.291 49.0481 41.2911 49.0479 41.2912L48.1231 42.2044Z" fill="white"/>
<path d="M39.5 55.623C39.9746 55.623 40.3594 55.243 40.3594 54.7744C40.3594 54.3057 39.9746 53.9258 39.5 53.9258C39.0254 53.9258 38.6406 54.3057 38.6406 54.7744C38.6406 55.243 39.0254 55.623 39.5 55.623Z" fill="white"/>
<path d="M60.6406 48.8339H58.9219V24.2246C58.9219 23.7559 58.5371 23.376 58.0625 23.376H20.9375C20.4629 23.376 20.0781 23.7559 20.0781 24.2246V48.8339H18.3594C17.8847 48.8339 17.5 49.2139 17.5 49.6825C17.5 52.958 20.1986 55.6227 23.5156 55.6227H35.6328C36.1074 55.6227 36.4922 55.2428 36.4922 54.7741C36.4922 54.3055 36.1074 53.9255 35.6328 53.9255H23.5156C21.4406 53.9255 19.7044 52.4654 19.305 50.5303H59.6949C59.2956 52.4654 57.5594 53.9255 55.4844 53.9255H43.3672C42.8926 53.9255 42.5078 54.3055 42.5078 54.7741C42.5078 55.2428 42.8926 55.6227 43.3672 55.6227H55.4844C58.8014 55.6227 61.5 52.958 61.5 49.6825C61.5 49.2139 61.1153 48.8339 60.6406 48.8339ZM21.7969 25.0732H57.2031V48.8339H21.7969V25.0732Z" fill="white"/>
</g>
<defs>
<clipPath id="clip0_1377_80338">
<rect width="44" height="43.4483" fill="white" transform="translate(17.5 17.7754)"/>
</clipPath>
</defs>
</svg>
