<svg width="79" height="79" viewBox="0 0 79 79" fill="none" xmlns="http://www.w3.org/2000/svg">
<rect width="79" height="79" rx="39.5" fill="#CE6C39"/>
<path d="M48.6473 64.0454H27.9878C27.2677 64.0438 26.5777 63.7571 26.0692 63.2482C25.5607 62.7394 25.2752 62.05 25.2754 61.3314V24.6602C25.2761 23.9424 25.5621 23.2543 26.0707 22.7468C26.5792 22.2393 27.2687 21.9539 27.9878 21.9531H32.464C32.6504 21.9531 32.8291 22.027 32.9609 22.1585C33.0927 22.2901 33.1667 22.4684 33.1667 22.6544C33.1667 22.8404 33.0927 23.0188 32.9609 23.1503C32.8291 23.2818 32.6504 23.3557 32.464 23.3557H27.9878C27.6413 23.3561 27.3091 23.4937 27.064 23.7382C26.819 23.9827 26.6812 24.3143 26.6808 24.6602V61.3314C26.6802 61.6782 26.8175 62.011 27.0626 62.2569C27.3076 62.5027 27.6404 62.6415 27.9878 62.6428H48.6473C48.9957 62.6425 49.3297 62.5042 49.576 62.2583C49.8224 62.0124 49.961 61.6791 49.9613 61.3314V24.6602C49.96 24.3134 49.8209 23.9813 49.5746 23.7367C49.3282 23.4922 48.9947 23.3552 48.6473 23.3557H44.1711C43.9847 23.3557 43.806 23.2818 43.6742 23.1503C43.5424 23.0188 43.4684 22.8404 43.4684 22.6544C43.4684 22.4684 43.5424 22.2901 43.6742 22.1585C43.806 22.027 43.9847 21.9531 44.1711 21.9531H48.6473C49.3674 21.9529 50.0581 22.2379 50.5679 22.7454C51.0778 23.2529 51.3651 23.9415 51.3667 24.6602V61.3314C51.366 62.051 51.0792 62.7409 50.5694 63.2497C50.0596 63.7585 49.3683 64.0447 48.6473 64.0454Z" fill="white"/>
<path d="M47.7137 40.5845H28.9234C28.737 40.5845 28.5583 40.5106 28.4265 40.3791C28.2947 40.2475 28.2207 40.0692 28.2207 39.8832V27.8488C28.2207 27.6628 28.2947 27.4844 28.4265 27.3529C28.5583 27.2213 28.737 27.1475 28.9234 27.1475H47.7137C47.9 27.1475 48.0788 27.2213 48.2106 27.3529C48.3423 27.4844 48.4164 27.6628 48.4164 27.8488V39.8832C48.4164 40.0692 48.3423 40.2475 48.2106 40.3791C48.0788 40.5106 47.9 40.5845 47.7137 40.5845ZM29.6261 39.1819H47.011V28.5501H29.6261V39.1819Z" fill="white"/>
<path d="M47.1244 28.5501H29.5132C29.3269 28.5501 29.1481 28.4762 29.0164 28.3447C28.8846 28.2131 28.8105 28.0348 28.8105 27.8488C28.8105 27.6628 28.8846 27.4844 29.0164 27.3529C29.1481 27.2213 29.3269 27.1475 29.5132 27.1475H47.1244C47.3108 27.1475 47.4895 27.2213 47.6213 27.3529C47.7531 27.4844 47.8271 27.6628 47.8271 27.8488C47.8271 28.0348 47.7531 28.2131 47.6213 28.3447C47.4895 28.4762 47.3108 28.5501 47.1244 28.5501Z" fill="white"/>
<path d="M45.5295 26.0003H31.108C30.9216 26.0003 30.7429 25.9264 30.6111 25.7949C30.4793 25.6633 30.4053 25.485 30.4053 25.299C30.4053 25.113 30.4793 24.9346 30.6111 24.8031C30.7429 24.6715 30.9216 24.5977 31.108 24.5977H45.5295C45.7159 24.5977 45.8946 24.6715 46.0264 24.8031C46.1582 24.9346 46.2322 25.113 46.2322 25.299C46.2322 25.485 46.1582 25.6633 46.0264 25.7949C45.8946 25.9264 45.7159 26.0003 45.5295 26.0003Z" fill="white"/>
<path d="M45.5295 26.0003H31.108C30.9216 26.0003 30.7429 25.9264 30.6111 25.7949C30.4793 25.6633 30.4053 25.485 30.4053 25.299C30.4053 25.113 30.4793 24.9346 30.6111 24.8031C30.7429 24.6715 30.9216 24.5977 31.108 24.5977H45.5295C45.7159 24.5977 45.8946 24.6715 46.0264 24.8031C46.1582 24.9346 46.2322 25.113 46.2322 25.299C46.2322 25.485 46.1582 25.6633 46.0264 25.7949C45.8946 25.9264 45.7159 26.0003 45.5295 26.0003Z" fill="white"/>
<path d="M41.4821 20.302H35.1578C34.9714 20.302 34.7927 20.2281 34.6609 20.0966C34.5291 19.9651 34.4551 19.7867 34.4551 19.6007C34.4551 19.4147 34.5291 19.2363 34.6609 19.1048C34.7927 18.9733 34.9714 18.8994 35.1578 18.8994H41.4821C41.6685 18.8994 41.8472 18.9733 41.979 19.1048C42.1108 19.2363 42.1848 19.4147 42.1848 19.6007C42.1848 19.7867 42.1108 19.9651 41.979 20.0966C41.8472 20.2281 41.6685 20.302 41.4821 20.302Z" fill="white"/>
<path d="M41.4821 23.137H35.1578C34.9714 23.137 34.7927 23.0631 34.6609 22.9316C34.5291 22.8001 34.4551 22.6217 34.4551 22.4357C34.4551 22.2497 34.5291 22.0713 34.6609 21.9398C34.7927 21.8083 34.9714 21.7344 35.1578 21.7344H41.4821C41.6685 21.7344 41.8472 21.8083 41.979 21.9398C42.1108 22.0713 42.1848 22.2497 42.1848 22.4357C42.1848 22.6217 42.1108 22.8001 41.979 22.9316C41.8472 23.0631 41.6685 23.137 41.4821 23.137Z" fill="white"/>
<path d="M33.2431 46.8825H29.8638C29.6775 46.8825 29.4987 46.8086 29.3669 46.6771C29.2352 46.5456 29.1611 46.3672 29.1611 46.1812V43.2911C29.1611 43.1052 29.2352 42.9268 29.3669 42.7953C29.4987 42.6637 29.6775 42.5898 29.8638 42.5898H33.2431C33.4295 42.5898 33.6082 42.6637 33.74 42.7953C33.8718 42.9268 33.9458 43.1052 33.9458 43.2911V46.1812C33.9458 46.3672 33.8718 46.5456 33.74 46.6771C33.6082 46.8086 33.4295 46.8825 33.2431 46.8825ZM30.5665 45.4799H32.5404V43.9925H30.5665V45.4799Z" fill="white"/>
<path d="M40.0085 46.8825H36.6285C36.4421 46.8825 36.2634 46.8086 36.1316 46.6771C35.9998 46.5456 35.9258 46.3672 35.9258 46.1812V43.2911C35.9258 43.1052 35.9998 42.9268 36.1316 42.7953C36.2634 42.6637 36.4421 42.5898 36.6285 42.5898H40.0085C40.1949 42.5898 40.3736 42.6637 40.5054 42.7953C40.6372 42.9268 40.7112 43.1052 40.7112 43.2911V46.1812C40.7112 46.3672 40.6372 46.5456 40.5054 46.6771C40.3736 46.8086 40.1949 46.8825 40.0085 46.8825ZM37.3312 45.4799H39.3058V43.9925H37.3312V45.4799Z" fill="white"/>
<path d="M46.7779 46.8825H43.3951C43.2087 46.8825 43.03 46.8086 42.8982 46.6771C42.7664 46.5456 42.6924 46.3672 42.6924 46.1812V43.2911C42.6924 43.1052 42.7664 42.9268 42.8982 42.7953C43.03 42.6637 43.2087 42.5898 43.3951 42.5898H46.7779C46.9643 42.5898 47.143 42.6637 47.2748 42.7953C47.4066 42.9268 47.4806 43.1052 47.4806 43.2911V46.1812C47.4806 46.3672 47.4066 46.5456 47.2748 46.6771C47.143 46.8086 46.9643 46.8825 46.7779 46.8825ZM44.1013 45.4799H46.0752V43.9925H44.0978L44.1013 45.4799Z" fill="white"/>
<path d="M33.2431 53.6996H29.8638C29.6775 53.6996 29.4987 53.6258 29.3669 53.4942C29.2352 53.3627 29.1611 53.1843 29.1611 52.9983V50.1076C29.1611 49.9216 29.2352 49.7432 29.3669 49.6117C29.4987 49.4801 29.6775 49.4062 29.8638 49.4062H33.2431C33.4295 49.4062 33.6082 49.4801 33.74 49.6117C33.8718 49.7432 33.9458 49.9216 33.9458 50.1076V52.9983C33.9458 53.1843 33.8718 53.3627 33.74 53.4942C33.6082 53.6258 33.4295 53.6996 33.2431 53.6996ZM30.5665 52.297H32.5404V50.8089H30.5665V52.297Z" fill="white"/>
<path d="M40.0085 53.6996H36.6285C36.4421 53.6996 36.2634 53.6258 36.1316 53.4942C35.9998 53.3627 35.9258 53.1843 35.9258 52.9983V50.1076C35.9258 49.9216 35.9998 49.7432 36.1316 49.6117C36.2634 49.4801 36.4421 49.4062 36.6285 49.4062H40.0085C40.1949 49.4062 40.3736 49.4801 40.5054 49.6117C40.6372 49.7432 40.7112 49.9216 40.7112 50.1076V52.9983C40.7112 53.1843 40.6372 53.3627 40.5054 53.4942C40.3736 53.6258 40.1949 53.6996 40.0085 53.6996ZM37.3312 52.297H39.3058V50.8089H37.3312V52.297Z" fill="white"/>
<path d="M46.7779 53.6996H43.3951C43.2087 53.6996 43.03 53.6258 42.8982 53.4942C42.7664 53.3627 42.6924 53.1843 42.6924 52.9983V50.1076C42.6924 49.9216 42.7664 49.7432 42.8982 49.6117C43.03 49.4801 43.2087 49.4062 43.3951 49.4062H46.7779C46.9643 49.4062 47.143 49.4801 47.2748 49.6117C47.4066 49.7432 47.4806 49.9216 47.4806 50.1076V52.9983C47.4806 53.1843 47.4066 53.3627 47.2748 53.4942C47.143 53.6258 46.9643 53.6996 46.7779 53.6996ZM44.1013 52.297H46.0752V50.8089H44.0978L44.1013 52.297Z" fill="white"/>
<path d="M33.2431 60.5163H29.8638C29.6775 60.5163 29.4987 60.4424 29.3669 60.3109C29.2352 60.1794 29.1611 60.001 29.1611 59.815V56.9249C29.1611 56.7389 29.2352 56.5606 29.3669 56.429C29.4987 56.2975 29.6775 56.2236 29.8638 56.2236H33.2431C33.4295 56.2236 33.6082 56.2975 33.74 56.429C33.8718 56.5606 33.9458 56.7389 33.9458 56.9249V59.815C33.9458 60.001 33.8718 60.1794 33.74 60.3109C33.6082 60.4424 33.4295 60.5163 33.2431 60.5163ZM30.5665 59.1137H32.5404V57.6262H30.5665V59.1137Z" fill="white"/>
<path d="M40.0085 60.5163H36.6285C36.4421 60.5163 36.2634 60.4424 36.1316 60.3109C35.9998 60.1794 35.9258 60.001 35.9258 59.815V56.9249C35.9258 56.7389 35.9998 56.5606 36.1316 56.429C36.2634 56.2975 36.4421 56.2236 36.6285 56.2236H40.0085C40.1949 56.2236 40.3736 56.2975 40.5054 56.429C40.6372 56.5606 40.7112 56.7389 40.7112 56.9249V59.815C40.7112 60.001 40.6372 60.1794 40.5054 60.3109C40.3736 60.4424 40.1949 60.5163 40.0085 60.5163ZM37.3312 59.1137H39.3058V57.6262H37.3312V59.1137Z" fill="white"/>
<path d="M46.7779 60.5163H43.3951C43.2087 60.5163 43.03 60.4424 42.8982 60.3109C42.7664 60.1794 42.6924 60.001 42.6924 59.815V56.9249C42.6924 56.7389 42.7664 56.5606 42.8982 56.429C43.03 56.2975 43.2087 56.2236 43.3951 56.2236H46.7779C46.9643 56.2236 47.143 56.2975 47.2748 56.429C47.4066 56.5606 47.4806 56.7389 47.4806 56.9249V59.815C47.4806 60.001 47.4066 60.1794 47.2748 60.3109C47.143 60.4424 46.9643 60.5163 46.7779 60.5163ZM44.1013 59.1137H46.0752V57.6262H44.0978L44.1013 59.1137Z" fill="white"/>
<path d="M59.5249 50.0732H50.6617C50.4753 50.0732 50.2966 49.9993 50.1648 49.8678C50.033 49.7363 49.959 49.5579 49.959 49.3719V30.1779C49.959 29.9919 50.033 29.8135 50.1648 29.682C50.2966 29.5504 50.4753 29.4766 50.6617 29.4766H59.5249C60.1549 29.4771 60.7589 29.7271 61.2045 30.1716C61.65 30.6161 61.9007 31.2189 61.9014 31.8477V47.7014C61.9007 48.3302 61.6501 48.933 61.2045 49.3777C60.759 49.8223 60.1549 50.0724 59.5249 50.0732ZM51.3644 48.6706H59.5249C59.7823 48.6702 60.0291 48.568 60.2112 48.3863C60.3932 48.2046 60.4956 47.9583 60.496 47.7014V31.8477C60.4956 31.5908 60.3932 31.3446 60.2111 31.163C60.0291 30.9814 59.7823 30.8794 59.5249 30.8792H51.3644V48.6706Z" fill="white"/>
<path d="M57.1082 50.0732H53.9039C53.7175 50.0732 53.5388 49.9993 53.407 49.8678C53.2752 49.7363 53.2012 49.5579 53.2012 49.3719V30.1779C53.2012 29.9919 53.2752 29.8135 53.407 29.682C53.5388 29.5504 53.7175 29.4766 53.9039 29.4766H57.1082C57.2946 29.4766 57.4733 29.5504 57.6051 29.682C57.7369 29.8135 57.8109 29.9919 57.8109 30.1779V49.3719C57.8109 49.5579 57.7369 49.7363 57.6051 49.8678C57.4733 49.9993 57.2946 50.0732 57.1082 50.0732ZM54.6052 48.6706H56.4055V30.8792H54.6066L54.6052 48.6706Z" fill="white"/>
<path d="M44.1729 26H32.4644C32.2781 26 32.0993 25.9261 31.9675 25.7946C31.8358 25.6631 31.7617 25.4847 31.7617 25.2987V15.6557C31.7618 15.543 31.7891 15.432 31.8413 15.3321C31.8935 15.2321 31.969 15.1462 32.0616 15.0816C32.1541 15.017 32.2609 14.9756 32.3728 14.9609C32.4848 14.9462 32.5986 14.9587 32.7047 14.9972L35.394 15.9727L38.0783 14.9972C38.2334 14.9397 38.4039 14.9397 38.559 14.9972L41.2454 15.9727L43.9318 14.9972C44.038 14.9585 44.1519 14.946 44.264 14.9606C44.376 14.9752 44.4829 15.0166 44.5755 15.0812C44.6681 15.1459 44.7438 15.2318 44.796 15.3318C44.8482 15.4318 44.8755 15.543 44.8756 15.6557V25.2987C44.8756 25.4847 44.8015 25.6631 44.6697 25.7946C44.538 25.9261 44.3592 26 44.1729 26ZM33.1671 24.5974H43.4702V16.6572L41.4864 17.3781C41.331 17.4347 41.1605 17.4347 41.0051 17.3781L38.3186 16.4019L35.6322 17.3781C35.4768 17.4347 35.3063 17.4347 35.1509 17.3781L33.1671 16.6572V24.5974Z" fill="white"/>
</svg>
