<svg width="79" height="79" viewBox="0 0 79 79" fill="none" xmlns="http://www.w3.org/2000/svg">
<rect width="79" height="79" rx="39.5" fill="#CE6C39"/>
<path d="M51.875 46.9669C56.4242 46.9669 60.125 43.3125 60.125 38.8203C60.125 34.3282 56.4242 30.6738 51.875 30.6738C50.8946 30.6738 49.9424 30.8421 49.0329 31.1748C48.6334 29.3384 46.9766 27.9582 45 27.9582C44.9979 27.9582 44.9959 27.9582 44.9938 27.9582C44.8123 23.0615 40.7217 19.1328 35.7188 19.1328C30.601 19.1328 26.4375 23.2441 26.4375 28.2977C26.4375 28.6724 26.4609 29.0472 26.5069 29.4199C22.1702 30.0478 18.875 33.7437 18.875 38.1414C18.875 43.0076 22.8845 46.9669 27.8125 46.9669H33.3125V50.3613H29.875V51.719H34C34.3795 51.719 34.6875 51.4149 34.6875 51.0401V46.9669H36.0625V48.3246H37.4375V46.9669H38.8125V55.7923H37.4375V57.1501H39.5C39.8795 57.1501 40.1875 56.8459 40.1875 56.4712V46.9669H41.5625V49.6824H42.9375V46.9669H44.3125V53.7557C44.3125 54.1304 44.6205 54.4345 45 54.4345H48.4375V53.0768H45.6875V46.9669H47.0625V51.0401C47.0625 51.4149 47.3705 51.719 47.75 51.719H51.875V50.3613H48.4375V46.9669H51.875ZM20.25 38.1414C20.25 34.2087 23.3664 30.9385 27.345 30.6982C27.5444 30.686 27.7279 30.5896 27.8489 30.4334C27.9699 30.2773 28.0167 30.0763 27.9768 29.8835C27.8675 29.3628 27.8125 28.8292 27.8125 28.2977C27.8125 23.9929 31.3593 20.4906 35.7188 20.4906C40.0782 20.4906 43.625 23.9929 43.625 28.2977C43.625 28.373 43.6195 28.447 43.614 28.5217L43.6044 28.6785C43.5941 28.8883 43.6834 29.0913 43.845 29.2277C44.0072 29.3642 44.2245 29.4192 44.4321 29.3757C46.1791 29.0153 47.75 30.3527 47.7486 32.0186C47.7459 32.0403 47.7356 32.1293 47.7349 32.151C47.7239 32.3927 47.8442 32.6228 48.0504 32.7538C48.2567 32.8842 48.5186 32.8971 48.7366 32.7858C49.7211 32.2854 50.7771 32.0315 51.875 32.0315C55.6659 32.0315 58.75 35.077 58.75 38.8203C58.75 42.5637 55.6659 45.6091 51.875 45.6091H27.8125C23.6428 45.6091 20.25 42.2588 20.25 38.1414Z" fill="white"/>
<path d="M37.6671 22.8573C37.0422 22.6387 36.387 22.5273 35.7188 22.5273V23.8851C36.2296 23.8851 36.7307 23.97 37.2079 24.137L37.6671 22.8573Z" fill="white"/>
<path d="M34.2296 24.1371L33.7697 22.8574C31.4404 23.6734 29.875 25.8594 29.875 28.298H31.25C31.25 26.4331 32.4476 24.761 34.2296 24.1371Z" fill="white"/>
<path d="M42.4501 35.2964L41.2236 34.7994C41.1404 34.5598 41.0434 34.3276 40.9334 34.1042L41.4442 32.8986C41.5398 32.6732 41.5047 32.4145 41.3535 32.221C40.9616 31.7214 40.5051 31.2706 39.9971 30.8816C39.8011 30.7323 39.5392 30.6976 39.3109 30.792L38.0899 31.2964C37.8631 31.1878 37.6279 31.0921 37.3859 31.0099L36.8827 29.7988C36.7885 29.5727 36.5788 29.4139 36.3334 29.3826C35.6163 29.293 35.1351 29.293 34.418 29.3826C34.1726 29.4132 33.9622 29.572 33.8687 29.7988L33.3654 31.0099C33.1234 31.0921 32.8883 31.1878 32.6614 31.2964L31.4404 30.792C31.2129 30.6983 30.9496 30.7323 30.7543 30.8816C30.2483 31.2686 29.7918 31.7187 29.3979 32.2204C29.2459 32.4138 29.2116 32.6725 29.3071 32.8986L29.8179 34.1042C29.7079 34.3283 29.611 34.5605 29.5278 34.7994L28.3013 35.2964C28.0724 35.3894 27.9115 35.5964 27.8799 35.8388C27.8338 36.1925 27.8125 36.4932 27.8125 36.7845C27.8125 37.0757 27.8338 37.3764 27.8792 37.7301C27.9101 37.9725 28.071 38.1802 28.3006 38.2726L29.5271 38.7695C29.6103 39.0085 29.7073 39.2406 29.8173 39.4647L29.3064 40.6704C29.2109 40.8958 29.2459 41.1544 29.3972 41.3479C29.7891 41.8475 30.2449 42.2983 30.7529 42.6873C30.9489 42.8374 31.2115 42.8713 31.4397 42.7769L32.6607 42.2725C32.8876 42.3811 33.1228 42.4769 33.3647 42.559L33.868 43.7701C33.9622 43.9962 34.1719 44.1551 34.4173 44.1863C34.7755 44.2311 35.0801 44.2521 35.375 44.2521C35.6699 44.2521 35.9745 44.2311 36.3327 44.1863C36.5781 44.1557 36.7885 43.9969 36.882 43.7701L37.3853 42.559C37.6279 42.4769 37.8631 42.3811 38.0892 42.2725L39.3103 42.7769C39.5385 42.8713 39.8004 42.8374 39.9964 42.6873C40.5037 42.2997 40.9596 41.8489 41.3528 41.3479C41.5048 41.1544 41.5391 40.8958 41.4436 40.6704L40.9327 39.4647C41.0427 39.2406 41.1397 39.0085 41.2229 38.7695L42.4494 38.2726C42.6783 38.1796 42.8392 37.9725 42.8708 37.7301C42.9162 37.3764 42.9375 37.0757 42.9375 36.7845C42.9375 36.4932 42.9162 36.1925 42.8708 35.8388C42.8399 35.5964 42.679 35.3887 42.4501 35.2964ZM41.5474 37.1707L40.4027 37.6344C40.2074 37.7139 40.0596 37.8768 40.0019 38.0777C39.8981 38.4403 39.7544 38.7844 39.5743 39.1015C39.4711 39.2834 39.4587 39.502 39.5399 39.6948L40.0143 40.8163C39.8403 41.0112 39.6547 41.1945 39.4574 41.3662L38.3216 40.8978C38.1264 40.817 37.905 40.8299 37.7201 40.9317C37.4004 41.1089 37.0518 41.2508 36.684 41.3533C36.4812 41.4103 36.3155 41.5563 36.2351 41.7491L35.7655 42.8794C35.4905 42.8991 35.2588 42.8991 34.9831 42.8794L34.5136 41.7491C34.4331 41.5563 34.2681 41.4103 34.0646 41.3533C33.6975 41.2508 33.3489 41.1089 33.0279 40.9311C32.8436 40.8292 32.6223 40.817 32.427 40.8971L31.2912 41.3662C31.0939 41.1945 30.9076 41.0112 30.7344 40.8163L31.2088 39.6948C31.2906 39.502 31.2782 39.2834 31.1744 39.1015C30.9942 38.7844 30.8506 38.4396 30.7467 38.0777C30.689 37.8775 30.5412 37.7139 30.3459 37.6344L29.2013 37.1707C29.1923 37.035 29.1875 36.908 29.1875 36.7845C29.1875 36.6609 29.1923 36.534 29.2026 36.3982L30.3473 35.9345C30.5426 35.8551 30.6904 35.6921 30.7481 35.4912C30.8519 35.1287 30.9956 34.7845 31.1758 34.4674C31.2789 34.2855 31.2912 34.0669 31.2101 33.8741L30.7351 32.7526C30.909 32.5578 31.0946 32.3738 31.2919 32.2027L32.4277 32.6711C32.6222 32.7519 32.8443 32.739 33.0286 32.6372C33.3496 32.4593 33.6989 32.3174 34.0653 32.2149C34.2681 32.1579 34.4338 32.0119 34.5142 31.8191L34.9838 30.6888C35.2588 30.6691 35.4905 30.6691 35.7662 30.6888L36.2358 31.8191C36.3162 32.0119 36.4812 32.1579 36.6847 32.2149C37.0518 32.3174 37.4004 32.4593 37.7214 32.6372C37.9057 32.739 38.1278 32.7512 38.3223 32.6711L39.4581 32.2027C39.6554 32.3745 39.8417 32.5578 40.0149 32.7526L39.5406 33.8741C39.4587 34.0669 39.4718 34.2855 39.5749 34.4681C39.7544 34.7838 39.8981 35.128 40.0019 35.4912C40.0596 35.6915 40.2074 35.8551 40.4027 35.9345L41.5474 36.3982C41.5577 36.534 41.5625 36.6609 41.5625 36.7845C41.5625 36.908 41.5577 37.035 41.5474 37.1707Z" fill="white"/>
<path d="M50.9971 42.4224L51.666 42.804L52.3535 41.6282L51.6839 41.2466C51.7272 41.1183 51.7774 40.9927 51.8056 40.8583H52.5625V39.5005H51.8056C51.7781 39.3661 51.7279 39.2405 51.6839 39.1122L52.3535 38.7307L51.666 37.5549L50.9971 37.9364C50.9063 37.8359 50.8114 37.7416 50.709 37.652L51.0954 36.9914L49.9046 36.3125L49.5182 36.9738C49.3883 36.931 49.2611 36.8814 49.125 36.8536V36.1055H47.75V36.8529C47.6139 36.8801 47.4867 36.9296 47.3568 36.9731L46.9704 36.3118L45.7796 36.9907L46.166 37.6513C46.0642 37.7409 45.9687 37.8346 45.8779 37.9357L45.209 37.5542L44.5215 38.73L45.1911 39.1115C45.1478 39.2399 45.0976 39.3654 45.0694 39.4999H44.3125V40.8576H45.0694C45.0969 40.992 45.1471 41.1176 45.1911 41.2459L44.5215 41.6275L45.209 42.8033L45.8779 42.4218C45.9687 42.5222 46.0636 42.6166 46.166 42.7062L45.7796 43.3668L46.9704 44.0456L47.3568 43.3844C47.4867 43.4272 47.6139 43.4767 47.75 43.5046V44.252H49.125V43.5046C49.2611 43.4774 49.3883 43.4279 49.5182 43.3844L49.9046 44.0456L51.0954 43.3668L50.709 42.7062C50.8114 42.6166 50.9063 42.5229 50.9971 42.4224ZM48.4375 42.2154C47.3004 42.2154 46.375 41.3016 46.375 40.1787C46.375 39.0559 47.3004 38.1421 48.4375 38.1421C49.5746 38.1421 50.5 39.0559 50.5 40.1787C50.5 41.3016 49.5746 42.2154 48.4375 42.2154Z" fill="white"/>
<path d="M35.375 33.3896C33.4796 33.3896 31.9375 34.9124 31.9375 36.784C31.9375 38.6557 33.4796 40.1784 35.375 40.1784C37.2704 40.1784 38.8125 38.6557 38.8125 36.784C38.8125 34.9124 37.2704 33.3896 35.375 33.3896ZM35.375 38.8207C34.2379 38.8207 33.3125 37.9069 33.3125 36.784C33.3125 35.6612 34.2379 34.7474 35.375 34.7474C36.5121 34.7474 37.4375 35.6612 37.4375 36.784C37.4375 37.9069 36.5121 38.8207 35.375 38.8207Z" fill="white"/>
<path d="M26.4375 50.3613H28.5V51.7191H26.4375V50.3613Z" fill="white"/>
<path d="M37.4375 53.7559V49.6826H36.0625V53.077H33.3125V54.4348H36.75C37.1295 54.4348 37.4375 54.1306 37.4375 53.7559Z" fill="white"/>
<path d="M29.875 53.0771H31.9375V54.4349H29.875V53.0771Z" fill="white"/>
<path d="M26.4375 53.0771H28.5V54.4349H26.4375V53.0771Z" fill="white"/>
<path d="M30.5625 55.793H36.0625V57.1507H30.5625V55.793Z" fill="white"/>
<path d="M27.8125 58.5078H29.1875V59.8656H27.8125V58.5078Z" fill="white"/>
<path d="M30.5625 58.5078H31.9375V59.8656H30.5625V58.5078Z" fill="white"/>
<path d="M33.3125 58.5078H34.6875V59.8656H33.3125V58.5078Z" fill="white"/>
<path d="M41.5625 58.5085H36.0625V59.8662H42.25C42.6295 59.8662 42.9375 59.5621 42.9375 59.1874V55.793H41.5625V58.5085Z" fill="white"/>
<path d="M41.5625 51.04H42.9375V54.4344H41.5625V51.04Z" fill="white"/>
<path d="M22.8735 51.7194H25.0625V50.3617H22.8735C22.5889 49.5735 21.8326 49.0039 20.9375 49.0039C19.8004 49.0039 18.875 49.9177 18.875 51.0405C18.875 52.1634 19.8004 53.0772 20.9375 53.0772C21.8326 53.0772 22.5889 52.5076 22.8735 51.7194ZM20.25 51.0405C20.25 50.6665 20.5587 50.3617 20.9375 50.3617C21.3163 50.3617 21.625 50.6665 21.625 51.0405C21.625 51.4146 21.3163 51.7194 20.9375 51.7194C20.5587 51.7194 20.25 51.4146 20.25 51.0405Z" fill="white"/>
<path d="M49.8125 53.0771H51.875V54.4349H49.8125V53.0771Z" fill="white"/>
<path d="M53.25 53.0771H55.3125V54.4349H53.25V53.0771Z" fill="white"/>
<path d="M58.0625 49.0039C57.1674 49.0039 56.4111 49.5735 56.1265 50.3617H53.25V51.7194H56.1265C56.4111 52.5076 57.1674 53.0772 58.0625 53.0772C59.1996 53.0772 60.125 52.1634 60.125 51.0405C60.125 49.9177 59.1996 49.0039 58.0625 49.0039ZM58.0625 51.7194C57.6837 51.7194 57.375 51.4146 57.375 51.0405C57.375 50.6665 57.6837 50.3617 58.0625 50.3617C58.4413 50.3617 58.75 50.6665 58.75 51.0405C58.75 51.4146 58.4413 51.7194 58.0625 51.7194Z" fill="white"/>
<path d="M23 54.4346C21.8629 54.4346 20.9375 55.3483 20.9375 56.4712C20.9375 57.5941 21.8629 58.5078 23 58.5078C23.8951 58.5078 24.6514 57.9383 24.936 57.1501H29.1875V55.7923H24.936C24.6514 55.0042 23.8951 54.4346 23 54.4346ZM23 57.1501C22.6212 57.1501 22.3125 56.8453 22.3125 56.4712C22.3125 56.0971 22.6212 55.7923 23 55.7923C23.3788 55.7923 23.6875 56.0971 23.6875 56.4712C23.6875 56.8453 23.3788 57.1501 23 57.1501Z" fill="white"/>
</svg>
