<svg width="79" height="79" viewBox="0 0 79 79" fill="none" xmlns="http://www.w3.org/2000/svg">
<rect width="79" height="79" rx="39.5" fill="#CE6C39"/>
<path d="M57.6406 19.6328H21.3594C20.8248 19.6328 20.3121 19.8474 19.9341 20.2293C19.5561 20.6113 19.3438 21.1293 19.3438 21.6695V54.2557C19.3438 54.7958 19.5561 55.3138 19.9341 55.6958C20.3121 56.0777 20.8248 56.2923 21.3594 56.2923H31.2937L33.7978 58.8225C33.9238 58.9497 34.0947 59.0212 34.2728 59.0212C34.451 59.0212 34.6218 58.9497 34.7478 58.8225L36.531 57.0207C36.6224 57.0608 36.7157 57.1002 36.8125 57.1389V59.6867C36.8125 59.8667 36.8833 60.0394 37.0093 60.1667C37.1353 60.294 37.3062 60.3656 37.4844 60.3656H41.5156C41.6938 60.3656 41.8647 60.294 41.9907 60.1667C42.1167 60.0394 42.1875 59.8667 42.1875 59.6867V57.1389C42.2843 57.1002 42.3776 57.0608 42.469 57.0207L44.2522 58.8225C44.3805 58.9451 44.5505 59.0135 44.7272 59.0135C44.9039 59.0135 45.0738 58.9451 45.2022 58.8225L47.7063 56.2923H57.6406C58.1752 56.2923 58.6879 56.0777 59.0659 55.6958C59.4439 55.3138 59.6562 54.7958 59.6562 54.2557V21.6695C59.6562 21.1293 59.4439 20.6113 59.0659 20.2293C58.6879 19.8474 58.1752 19.6328 57.6406 19.6328ZM44.7272 57.3826L43.0791 55.7173C42.9763 55.6134 42.8429 55.546 42.699 55.5252C42.5551 55.5043 42.4084 55.5313 42.2809 55.6019C41.9709 55.7702 41.6456 55.9077 41.3094 56.0126C41.1741 56.0567 41.0561 56.143 40.9724 56.2592C40.8888 56.3753 40.8437 56.5152 40.8438 56.6589V59.0078H38.1562V56.6589C38.1563 56.5152 38.1112 56.3753 38.0276 56.2592C37.9439 56.143 37.8259 56.0567 37.6906 56.0126C37.3544 55.9077 37.0291 55.7702 36.7191 55.6019C36.5916 55.5313 36.4449 55.5043 36.301 55.5252C36.1571 55.546 36.0237 55.6134 35.9209 55.7173L34.2728 57.3826L32.3781 55.4641L34.0256 53.7988C34.1282 53.695 34.1949 53.5604 34.2155 53.4151C34.2361 53.2698 34.2095 53.1217 34.1398 52.9929C33.9737 52.6795 33.8376 52.3508 33.7333 52.0113C33.6896 51.8739 33.6037 51.7542 33.4881 51.6694C33.3725 51.5847 33.2331 51.5394 33.0903 51.5401H30.7656V48.8246H33.0903C33.2326 48.8246 33.3711 48.779 33.4861 48.6943C33.601 48.6097 33.6864 48.4903 33.7299 48.3535C33.8342 48.0139 33.9703 47.6852 34.1364 47.3718C34.2061 47.2431 34.2327 47.095 34.2121 46.9497C34.1915 46.8044 34.1249 46.6698 34.0222 46.566L32.3781 44.9007L34.2762 42.9822L35.9243 44.6475C36.0271 44.7514 36.1604 44.8188 36.3043 44.8396C36.4483 44.8604 36.595 44.8335 36.7225 44.7629C37.0324 44.5946 37.3578 44.4571 37.694 44.3522C37.8287 44.3075 37.9459 44.2209 38.0289 44.1048C38.112 43.9887 38.1565 43.8491 38.1562 43.7059V41.357H40.8438V43.7059C40.8437 43.8495 40.8888 43.9895 40.9724 44.1056C41.0561 44.2217 41.1741 44.3081 41.3094 44.3522C41.6456 44.4571 41.9709 44.5946 42.2809 44.7629C42.4084 44.8335 42.5551 44.8604 42.699 44.8396C42.8429 44.8188 42.9763 44.7514 43.0791 44.6475L44.7272 42.9822L46.6252 44.9007L44.9778 46.566C44.8751 46.6698 44.8085 46.8044 44.7879 46.9497C44.7673 47.095 44.7939 47.2431 44.8636 47.3718C45.0297 47.6852 45.1658 48.0139 45.2701 48.3535C45.3136 48.4903 45.399 48.6097 45.5139 48.6943C45.6289 48.779 45.7674 48.8246 45.9097 48.8246H48.2344V51.5401H45.9097C45.7674 51.5401 45.6289 51.5858 45.5139 51.6704C45.399 51.7551 45.3136 51.8744 45.2701 52.0113C45.1658 52.3508 45.0297 52.6795 44.8636 52.9929C44.7939 53.1217 44.7673 53.2698 44.7879 53.4151C44.8085 53.5604 44.8751 53.695 44.9778 53.7988L46.6252 55.4641L44.7272 57.3826ZM58.3125 54.2557C58.3125 54.4357 58.2417 54.6084 58.1157 54.7357C57.9897 54.863 57.8188 54.9345 57.6406 54.9345H48.0019L46.2678 53.1817C46.3081 53.09 46.3464 52.9957 46.3847 52.8979H48.9062C49.0844 52.8979 49.2553 52.8264 49.3813 52.6991C49.5073 52.5717 49.5781 52.3991 49.5781 52.219V48.1457C49.5781 47.9657 49.5073 47.793 49.3813 47.6657C49.2553 47.5384 49.0844 47.4669 48.9062 47.4669H46.3847C46.3464 47.3691 46.3081 47.2747 46.2678 47.1824L48.051 45.3807C48.1769 45.2534 48.2477 45.0807 48.2477 44.9007C48.2477 44.7207 48.1769 44.548 48.051 44.4207L45.2022 41.5423C45.0762 41.415 44.9053 41.3435 44.7272 41.3435C44.549 41.3435 44.3782 41.415 44.2522 41.5423L42.469 43.344C42.3776 43.304 42.2843 43.2646 42.1875 43.2259V40.6781C42.1875 40.498 42.1167 40.3253 41.9907 40.198C41.8647 40.0707 41.6938 39.9992 41.5156 39.9992H37.4844C37.3062 39.9992 37.1353 40.0707 37.0093 40.198C36.8833 40.3253 36.8125 40.498 36.8125 40.6781V43.2259C36.7157 43.2646 36.6224 43.304 36.531 43.344L34.7478 41.5423C34.6195 41.4196 34.4495 41.3513 34.2728 41.3513C34.0961 41.3513 33.9262 41.4196 33.7978 41.5423L30.949 44.4207C30.8231 44.548 30.7523 44.7207 30.7523 44.9007C30.7523 45.0807 30.8231 45.2534 30.949 45.3807L32.7322 47.1824C32.6919 47.2747 32.6536 47.3691 32.6153 47.4669H30.0938C29.9156 47.4669 29.7447 47.5384 29.6187 47.6657C29.4927 47.793 29.4219 47.9657 29.4219 48.1457V52.219C29.4219 52.3991 29.4927 52.5717 29.6187 52.6991C29.7447 52.8264 29.9156 52.8979 30.0938 52.8979H32.6153C32.6536 52.9957 32.6919 53.09 32.7322 53.1817L30.9981 54.9345H21.3594C21.1812 54.9345 21.0103 54.863 20.8843 54.7357C20.7583 54.6084 20.6875 54.4357 20.6875 54.2557V27.7794H58.3125V54.2557ZM20.6875 26.4216V21.6695C20.6875 21.4894 20.7583 21.3167 20.8843 21.1894C21.0103 21.0621 21.1812 20.9906 21.3594 20.9906H57.6406C57.8188 20.9906 57.9897 21.0621 58.1157 21.1894C58.2417 21.3167 58.3125 21.4894 58.3125 21.6695V26.4216H20.6875Z" fill="white"/>
<path d="M54.9531 21.8955H36.1406C35.606 21.8955 35.0934 22.1101 34.7154 22.492C34.3374 22.874 34.125 23.392 34.125 23.9321C34.125 24.4723 34.3374 24.9903 34.7154 25.3723C35.0934 25.7542 35.606 25.9688 36.1406 25.9688H54.9531C55.4877 25.9688 56.0004 25.7542 56.3784 25.3723C56.7564 24.9903 56.9688 24.4723 56.9688 23.9321C56.9688 23.392 56.7564 22.874 56.3784 22.492C56.0004 22.1101 55.4877 21.8955 54.9531 21.8955ZM54.9531 24.611H36.1406C35.9624 24.611 35.7915 24.5395 35.6655 24.4122C35.5395 24.2849 35.4688 24.1122 35.4688 23.9321C35.4688 23.7521 35.5395 23.5794 35.6655 23.4521C35.7915 23.3248 35.9624 23.2533 36.1406 23.2533H54.9531C55.1313 23.2533 55.3022 23.3248 55.4282 23.4521C55.5542 23.5794 55.625 23.7521 55.625 23.9321C55.625 24.1122 55.5542 24.2849 55.4282 24.4122C55.3022 24.5395 55.1313 24.611 54.9531 24.611Z" fill="white"/>
<path d="M23.375 25.0641C24.1171 25.0641 24.7188 24.4563 24.7188 23.7064C24.7188 22.9565 24.1171 22.3486 23.375 22.3486C22.6329 22.3486 22.0312 22.9565 22.0312 23.7064C22.0312 24.4563 22.6329 25.0641 23.375 25.0641Z" fill="white"/>
<path d="M27.4062 25.0641C28.1484 25.0641 28.75 24.4563 28.75 23.7064C28.75 22.9565 28.1484 22.3486 27.4062 22.3486C26.6641 22.3486 26.0625 22.9565 26.0625 23.7064C26.0625 24.4563 26.6641 25.0641 27.4062 25.0641Z" fill="white"/>
<path d="M31.4375 25.0641C32.1796 25.0641 32.7812 24.4563 32.7812 23.7064C32.7812 22.9565 32.1796 22.3486 31.4375 22.3486C30.6954 22.3486 30.0938 22.9565 30.0938 23.7064C30.0938 24.4563 30.6954 25.0641 31.4375 25.0641Z" fill="white"/>
<path d="M39.5 46.1094C38.7027 46.1094 37.9233 46.3483 37.2604 46.7958C36.5974 47.2434 36.0807 47.8796 35.7756 48.6239C35.4705 49.3682 35.3907 50.1872 35.5462 50.9773C35.7018 51.7674 36.0857 52.4932 36.6495 53.0629C37.2133 53.6325 37.9316 54.0205 38.7135 54.1777C39.4955 54.3348 40.3061 54.2542 41.0427 53.9459C41.7793 53.6376 42.4089 53.1155 42.8519 52.4456C43.2948 51.7758 43.5312 50.9883 43.5312 50.1827C43.5302 49.1027 43.1051 48.0673 42.3493 47.3036C41.5936 46.5399 40.5688 46.1105 39.5 46.1094ZM39.5 52.8982C38.9685 52.8982 38.4489 52.7389 38.0069 52.4405C37.5649 52.1421 37.2205 51.718 37.0171 51.2218C36.8137 50.7256 36.7604 50.1796 36.8641 49.6529C36.9678 49.1261 37.2238 48.6423 37.5997 48.2625C37.9755 47.8827 38.4544 47.6241 38.9757 47.5193C39.497 47.4145 40.0374 47.4683 40.5285 47.6738C41.0195 47.8794 41.4393 48.2274 41.7346 48.674C42.0299 49.1206 42.1875 49.6456 42.1875 50.1827C42.1875 50.9029 41.9044 51.5936 41.4003 52.1028C40.8963 52.6121 40.2128 52.8982 39.5 52.8982Z" fill="white"/>
<path d="M27.4062 37.9625H43.2827C43.7346 37.9631 44.1817 38.0558 44.5973 38.2351C45.0129 38.4144 45.3884 38.6766 45.7014 39.0059C46.3041 39.6405 47.0503 40.1177 47.8758 40.3965C48.7013 40.6753 49.5815 40.7473 50.4407 40.6064C51.2999 40.4655 52.1124 40.1159 52.8083 39.5876C53.5042 39.0593 54.0627 38.3681 54.4358 37.5735C54.4843 37.4697 54.506 37.3552 54.4988 37.2407C54.4916 37.1262 54.4558 37.0153 54.3947 36.9186C54.3337 36.8218 54.2493 36.7423 54.1496 36.6874C54.0498 36.6325 53.9379 36.6041 53.8244 36.6047H49.9349L49.0406 35.2673L49.9403 33.8892H53.8244C53.9377 33.8893 54.0491 33.8604 54.1484 33.8053C54.2477 33.7502 54.3316 33.6706 54.3923 33.5739C54.4529 33.4773 54.4884 33.3667 54.4955 33.2524C54.5025 33.1382 54.4808 33.024 54.4324 32.9205C54.0593 32.1259 53.5008 31.4347 52.8049 30.9064C52.109 30.3781 51.2966 30.0284 50.4374 29.8875C49.5782 29.7466 48.698 29.8187 47.8724 30.0975C47.0469 30.3762 46.3007 30.8534 45.698 31.488C45.3855 31.817 45.0105 32.0789 44.5955 32.2582C44.1805 32.4375 43.734 32.5304 43.2827 32.5315H27.4062C26.6935 32.5315 26.0099 32.8176 25.5059 33.3268C25.0019 33.8361 24.7188 34.5268 24.7188 35.247C24.7188 35.9672 25.0019 36.6579 25.5059 37.1671C26.0099 37.6764 26.6935 37.9625 27.4062 37.9625ZM27.4062 33.8892H43.2827C43.9156 33.888 44.5417 33.7578 45.1236 33.5064C45.7056 33.2551 46.2314 32.8877 46.6696 32.4262C47.0545 32.0215 47.5179 31.7013 48.0309 31.4859C48.5439 31.2705 49.0954 31.1644 49.6509 31.1742C50.2064 31.1841 50.7538 31.3098 51.259 31.5433C51.7642 31.7768 52.2162 32.1133 52.5868 32.5315H49.5781C49.4669 32.5315 49.3574 32.5594 49.2595 32.6127C49.1616 32.666 49.0783 32.7431 49.0171 32.837L47.6734 34.8987C47.6004 35.0106 47.5619 35.1418 47.5626 35.2758C47.5633 35.4097 47.6033 35.5405 47.6774 35.6516L49.0211 37.6638C49.0827 37.7558 49.1657 37.8312 49.2628 37.8833C49.3599 37.9353 49.4682 37.9626 49.5781 37.9625H52.5868C52.2162 38.3807 51.7642 38.7171 51.259 38.9507C50.7538 39.1842 50.2064 39.3098 49.6509 39.3197C49.0954 39.3296 48.5439 39.2235 48.0309 39.0081C47.5179 38.7926 47.0545 38.4725 46.6696 38.0677C46.2314 37.6063 45.7056 37.2389 45.1236 36.9875C44.5417 36.7362 43.9156 36.606 43.2827 36.6047H27.4062C27.0499 36.6047 26.7081 36.4617 26.4561 36.2071C26.2041 35.9524 26.0625 35.6071 26.0625 35.247C26.0625 34.8869 26.2041 34.5415 26.4561 34.2869C26.7081 34.0323 27.0499 33.8892 27.4062 33.8892Z" fill="white"/>
<path d="M28.0781 35.9261H28.75C28.9282 35.9261 29.0991 35.8546 29.2251 35.7273C29.3511 35.6 29.4219 35.4273 29.4219 35.2472C29.4219 35.0672 29.3511 34.8945 29.2251 34.7672C29.0991 34.6399 28.9282 34.5684 28.75 34.5684H28.0781C27.8999 34.5684 27.729 34.6399 27.603 34.7672C27.477 34.8945 27.4062 35.0672 27.4062 35.2472C27.4062 35.4273 27.477 35.6 27.603 35.7273C27.729 35.8546 27.8999 35.9261 28.0781 35.9261Z" fill="white"/>
<path d="M30.7656 35.9261H40.1719C40.3501 35.9261 40.521 35.8546 40.647 35.7273C40.773 35.6 40.8438 35.4273 40.8438 35.2472C40.8438 35.0672 40.773 34.8945 40.647 34.7672C40.521 34.6399 40.3501 34.5684 40.1719 34.5684H30.7656C30.5874 34.5684 30.4165 34.6399 30.2905 34.7672C30.1645 34.8945 30.0938 35.0672 30.0938 35.2472C30.0938 35.4273 30.1645 35.6 30.2905 35.7273C30.4165 35.8546 30.5874 35.9261 30.7656 35.9261Z" fill="white"/>
<path d="M42.1875 35.9261H42.8594C43.0376 35.9261 43.2085 35.8546 43.3345 35.7273C43.4605 35.6 43.5312 35.4273 43.5312 35.2472C43.5312 35.0672 43.4605 34.8945 43.3345 34.7672C43.2085 34.6399 43.0376 34.5684 42.8594 34.5684H42.1875C42.0093 34.5684 41.8384 34.6399 41.7124 34.7672C41.5864 34.8945 41.5156 35.0672 41.5156 35.2472C41.5156 35.4273 41.5864 35.6 41.7124 35.7273C41.8384 35.8546 42.0093 35.9261 42.1875 35.9261Z" fill="white"/>
</svg>
