<svg width="79" height="79" viewBox="0 0 79 79" fill="none" xmlns="http://www.w3.org/2000/svg">
<rect width="79" height="79" rx="39.5" fill="#CE6C39"/>
<g clip-path="url(#clip0_1377_80541)">
<path d="M56.1667 43.271V23.7181C56.1667 22.2072 54.9429 20.9824 53.4333 20.9824H24.7333C23.2238 20.9824 22 22.2072 22 23.7181V56.5456C22 58.0565 23.2238 59.2813 24.7333 59.2813H46.751C49.5917 62.0639 53.8562 62.7973 57.4621 61.1233C61.0679 59.4493 63.2628 55.7171 62.9749 51.7494C62.687 47.7816 59.9763 44.406 56.1667 43.271ZM24.7333 22.3502H53.4333C54.1881 22.3502 54.8 22.9626 54.8 23.7181V29.1893H23.3667V23.7181C23.3667 22.9626 23.9785 22.3502 24.7333 22.3502ZM23.3667 56.5456V30.5571H54.8V42.9769C51.0286 42.4235 47.2897 44.1679 45.2884 47.4147C43.2872 50.6615 43.4071 54.7885 45.5935 57.9135H24.7333C23.9785 57.9135 23.3667 57.3011 23.3667 56.5456ZM53.4333 60.6491C48.9046 60.6491 45.2333 56.9747 45.2333 52.4422C45.2333 47.9097 48.9046 44.2353 53.4333 44.2353C57.9621 44.2353 61.6333 47.9097 61.6333 52.4422C61.6284 56.9727 57.96 60.6442 53.4333 60.6491Z" fill="white"/>
<path d="M26.7834 27.8212C27.9156 27.8212 28.8334 26.9026 28.8334 25.7695C28.8334 24.6364 27.9156 23.7178 26.7834 23.7178C25.6512 23.7178 24.7334 24.6364 24.7334 25.7695C24.7334 26.9026 25.6512 27.8212 26.7834 27.8212ZM26.7834 25.0856C27.1608 25.0856 27.4667 25.3918 27.4667 25.7695C27.4667 26.1472 27.1608 26.4534 26.7834 26.4534C26.406 26.4534 26.1001 26.1472 26.1001 25.7695C26.1001 25.3918 26.406 25.0856 26.7834 25.0856Z" fill="white"/>
<path d="M32.2502 27.8212C33.3824 27.8212 34.3002 26.9026 34.3002 25.7695C34.3002 24.6364 33.3824 23.7178 32.2502 23.7178C31.118 23.7178 30.2002 24.6364 30.2002 25.7695C30.2002 26.9026 31.118 27.8212 32.2502 27.8212ZM32.2502 25.0856C32.6276 25.0856 32.9335 25.3918 32.9335 25.7695C32.9335 26.1472 32.6276 26.4534 32.2502 26.4534C31.8728 26.4534 31.5669 26.1472 31.5669 25.7695C31.5669 25.3918 31.8728 25.0856 32.2502 25.0856Z" fill="white"/>
<path d="M44.55 27.8212H51.3833C52.5155 27.8212 53.4333 26.9026 53.4333 25.7695C53.4333 24.6364 52.5155 23.7178 51.3833 23.7178H44.55C43.4178 23.7178 42.5 24.6364 42.5 25.7695C42.5 26.9026 43.4178 27.8212 44.55 27.8212ZM44.55 25.0856H51.3833C51.7607 25.0856 52.0667 25.3918 52.0667 25.7695C52.0667 26.1472 51.7607 26.4534 51.3833 26.4534H44.55C44.1726 26.4534 43.8667 26.1472 43.8667 25.7695C43.8667 25.3918 44.1726 25.0856 44.55 25.0856Z" fill="white"/>
<path d="M35.6669 39.4485C37.1765 39.4485 38.4003 38.2237 38.4003 36.7128V33.2933C38.4003 32.9156 38.0943 32.6094 37.7169 32.6094C37.3395 32.6094 37.0336 32.9156 37.0336 33.2933V36.7128C37.0336 37.4682 36.4217 38.0806 35.6669 38.0806C34.9121 38.0806 34.3003 37.4682 34.3003 36.7128V33.2933C34.3003 32.9156 33.9943 32.6094 33.6169 32.6094C33.2395 32.6094 32.9336 32.9156 32.9336 33.2933V36.7128C32.9336 38.2237 34.1573 39.4485 35.6669 39.4485Z" fill="white"/>
<path d="M40.0399 39.3107C40.1849 39.4196 40.3672 39.4663 40.5466 39.4406C40.726 39.415 40.8879 39.3191 40.9966 39.174L42.4999 37.1681L44.0033 39.174C44.1498 39.3694 44.3893 39.4718 44.6317 39.4426C44.8741 39.4134 45.0824 39.257 45.1783 39.0323C45.2742 38.8076 45.2431 38.5487 45.0966 38.3533L43.3541 36.028L45.0966 33.7027C45.323 33.4005 45.2619 32.9718 44.9599 32.7452C44.658 32.5186 44.2297 32.5798 44.0033 32.882L42.4999 34.8879L40.9966 32.882C40.8501 32.6865 40.6106 32.5841 40.3682 32.6133C40.1258 32.6426 39.9174 32.799 39.8215 33.0237C39.7256 33.2484 39.7568 33.5072 39.9033 33.7027L41.6458 36.028L39.9033 38.3533C39.7945 38.4984 39.7478 38.6808 39.7735 38.8603C39.7991 39.0399 39.895 39.2019 40.0399 39.3107Z" fill="white"/>
<path d="M26.7834 49.7069H32.2501C33.3822 49.7069 34.3001 48.7883 34.3001 47.6552V43.5517C34.3001 42.4186 33.3822 41.5 32.2501 41.5H26.7834C25.6512 41.5 24.7334 42.4186 24.7334 43.5517V47.6552C24.7334 48.7883 25.6512 49.7069 26.7834 49.7069ZM26.1001 47.6552V43.6434L31.728 48.3391H26.7834C26.406 48.3391 26.1001 48.0329 26.1001 47.6552ZM32.9334 43.5517V47.5635L27.3055 42.8678H32.2501C32.6275 42.8678 32.9334 43.174 32.9334 43.5517Z" fill="white"/>
<path d="M35.667 42.1839C35.667 42.5616 35.9729 42.8678 36.3503 42.8678H47.2837C47.6611 42.8678 47.967 42.5616 47.967 42.1839C47.967 41.8062 47.6611 41.5 47.2837 41.5H36.3503C35.9729 41.5 35.667 41.8062 35.667 42.1839Z" fill="white"/>
<path d="M41.8167 51.0742H25.4167C25.0393 51.0742 24.7334 51.3804 24.7334 51.7581C24.7334 52.1358 25.0393 52.442 25.4167 52.442H41.8167C42.1941 52.442 42.5001 52.1358 42.5001 51.7581C42.5001 51.3804 42.1941 51.0742 41.8167 51.0742Z" fill="white"/>
<path d="M37.7167 53.8096H25.4167C25.0393 53.8096 24.7334 54.1158 24.7334 54.4935C24.7334 54.8712 25.0393 55.1774 25.4167 55.1774H37.7167C38.0941 55.1774 38.4001 54.8712 38.4001 54.4935C38.4001 54.1158 38.0941 53.8096 37.7167 53.8096Z" fill="white"/>
<path d="M43.867 44.9189H36.3503C35.9729 44.9189 35.667 45.2251 35.667 45.6029C35.667 45.9806 35.9729 46.2868 36.3503 46.2868H43.867C44.2444 46.2868 44.5503 45.9806 44.5503 45.6029C44.5503 45.2251 44.2444 44.9189 43.867 44.9189Z" fill="white"/>
<path d="M42.5003 48.3389H36.3503C35.9729 48.3389 35.667 48.6451 35.667 49.0228C35.667 49.4005 35.9729 49.7067 36.3503 49.7067H42.5003C42.8777 49.7067 43.1837 49.4005 43.1837 49.0228C43.1837 48.6451 42.8777 48.3389 42.5003 48.3389Z" fill="white"/>
<path d="M52.7499 50.3909C52.7499 48.8801 51.5261 47.6553 50.0165 47.6553C48.507 47.6553 47.2832 48.8801 47.2832 50.3909C47.2832 51.9018 48.507 53.1265 50.0165 53.1265C51.5261 53.1265 52.7499 51.9018 52.7499 50.3909ZM48.6499 50.3909C48.6465 49.7263 49.1211 49.1554 49.7747 49.0378C50.4283 48.9202 51.0718 49.2899 51.3 49.9141C51.5282 50.5382 51.275 51.2363 50.6999 51.5686V51.0748C50.6999 50.6971 50.3939 50.3909 50.0165 50.3909C49.6391 50.3909 49.3332 50.6971 49.3332 51.0748V51.5686C48.9118 51.3262 48.6513 50.8774 48.6499 50.3909Z" fill="white"/>
<path d="M56.8495 47.6553C55.34 47.6553 54.1162 48.8801 54.1162 50.3909C54.1162 51.9018 55.34 53.1265 56.8495 53.1265C58.3591 53.1265 59.5829 51.9018 59.5829 50.3909C59.5829 48.8801 58.3591 47.6553 56.8495 47.6553ZM57.5329 51.5686V51.0748C57.5329 50.6971 57.2269 50.3909 56.8495 50.3909C56.4721 50.3909 56.1662 50.6971 56.1662 51.0748V51.5686C55.6305 51.2591 55.3694 50.628 55.5294 50.03C55.6895 49.432 56.231 49.0162 56.8495 49.0162C57.4681 49.0162 58.0095 49.432 58.1696 50.03C58.3297 50.628 58.0686 51.2591 57.5329 51.5686Z" fill="white"/>
<path d="M55.4833 54.4941H51.3833C50.6285 54.4941 50.0166 55.1065 50.0166 55.862C50.0166 57.7505 51.5463 59.2815 53.4333 59.2815C55.3202 59.2815 56.8499 57.7505 56.8499 55.862C56.8499 55.4992 56.7059 55.1513 56.4496 54.8948C56.1933 54.6382 55.8457 54.4941 55.4833 54.4941ZM53.4333 57.9137C52.3011 57.9137 51.3833 56.9951 51.3833 55.862H55.4833C55.4833 56.9951 54.5655 57.9137 53.4333 57.9137Z" fill="white"/>
</g>
<defs>
<clipPath id="clip0_1377_80541">
<rect width="41" height="41.0345" fill="white" transform="translate(22 20.9824)"/>
</clipPath>
</defs>
</svg>
