<svg width="79" height="79" viewBox="0 0 79 79" fill="none" xmlns="http://www.w3.org/2000/svg">
<rect width="79" height="79" rx="39.5" fill="#CE6C39"/>
<g clip-path="url(#clip0_1373_80643)">
<path d="M27.0165 62.9998C26.1151 62.6561 25.7417 62.049 25.8447 61.1898C25.8834 60.8805 25.8447 60.5598 25.8576 60.2505C25.8705 59.3112 26.5143 58.7269 27.5831 58.7269C29.463 58.7155 31.343 58.7269 33.223 58.7269C33.3904 58.7269 33.5706 58.7269 33.7638 58.7269C33.7638 58.2458 33.7638 57.8105 33.7638 57.3294C33.5578 57.3294 33.3646 57.3294 33.1843 57.3294C29.2184 57.3294 25.2524 57.3294 21.2864 57.3294C18.8013 57.3294 17.1144 55.8287 17.1016 53.6179C17.1016 47.0883 17.1016 40.5588 17.1016 34.0292C17.1016 31.8756 18.8141 30.3521 21.2221 30.3521C33.3131 30.3521 45.4042 30.3521 57.5081 30.3521C59.9546 30.3521 61.6543 31.8412 61.7058 34.0292C61.7187 34.5562 61.6801 35.0946 61.7187 35.6215C61.7316 35.8506 61.8475 36.1255 62.0278 36.2859C62.7617 36.9847 63.5214 37.6606 64.3069 38.325C64.5644 38.5426 64.5902 38.7259 64.4099 38.9779C64.2683 39.1727 64.1653 39.3789 64.0494 39.5851C63.4442 40.6848 64.0107 41.899 65.3113 42.2771C65.6847 42.3916 66.0839 42.4603 66.4573 42.552C66.4573 44.3619 66.4573 46.1604 66.4573 47.9589C66.0452 48.062 65.6332 48.1537 65.2211 48.2797C64.4228 48.5088 64.0107 49.0357 63.8305 49.7345C63.6502 50.4218 64.0365 50.9602 64.3713 51.5101C64.5644 51.8079 64.5516 51.9912 64.2554 52.2318C63.2768 53.0565 62.3368 53.9271 61.3839 54.7748C61.0491 55.0612 60.753 55.4965 60.3667 55.5767C60.0319 55.6454 59.607 55.2903 59.2078 55.13C58.0618 54.6488 56.7355 55.1414 56.2977 56.2068C56.1561 56.5619 56.0273 56.9284 55.8728 57.3294C52.2416 57.3294 48.6104 57.3294 44.9664 57.3294C44.9664 57.7991 44.9664 58.2344 44.9664 58.7155C45.1595 58.7155 45.3398 58.7155 45.5072 58.7155C47.3871 58.7155 49.2671 58.7155 51.1471 58.7155C52.2416 58.7155 52.9112 59.3226 52.924 60.2963C52.924 60.5483 52.8983 60.8118 52.924 61.0638C53.0142 61.9344 52.6794 62.5988 51.778 62.9883C43.5371 62.9998 35.2703 62.9998 27.0165 62.9998ZM40.1763 51.6704C33.0041 51.6704 25.8705 51.6704 18.7111 51.6704C18.7111 52.3921 18.6983 53.0795 18.7111 53.7668C18.7369 55.0154 19.7155 55.886 21.1319 55.886C30.3901 55.886 39.6355 55.886 48.8937 55.886C49.0225 55.886 49.1512 55.8631 49.3186 55.8516C48.7006 55.0154 47.606 54.7405 46.6661 55.13C46.357 55.256 46.048 55.382 45.7647 55.5423C45.5201 55.6798 45.3784 55.6225 45.1853 55.4622C44.168 54.5457 43.1508 53.6408 42.1206 52.7243C41.245 51.9454 41.245 51.9454 41.7987 50.9488C41.8116 50.9373 41.8116 50.9258 41.8245 50.9144C42.3911 49.872 41.8374 48.6806 40.6141 48.2911C40.3308 48.1995 40.0347 48.1078 39.7514 48.0391C39.4552 47.9704 39.3651 47.8329 39.3651 47.558C39.3779 46.2864 39.3651 45.0149 39.3779 43.7319C39.3779 43.3653 39.2749 42.9071 39.4681 42.6551C39.6484 42.4145 40.1763 42.4031 40.5626 42.2771C40.5883 42.2656 40.627 42.2542 40.6527 42.2427C41.8502 41.8532 42.3911 40.6619 41.8502 39.6423C41.7215 39.4132 41.6056 39.1727 41.4511 38.955C41.245 38.6801 41.3352 38.5083 41.5798 38.3021C42.5971 37.42 43.5886 36.5265 44.5801 35.633C45.4557 34.854 45.4557 34.854 46.5759 35.3466C47.7734 35.8735 49.1512 35.3809 49.5762 34.2469C49.6534 34.0292 49.7435 33.8116 49.7951 33.5939C49.8723 33.2846 50.0397 33.1701 50.426 33.1701C51.9969 33.193 53.5679 33.1815 55.1517 33.1815C55.4092 33.1815 55.6539 33.1815 55.9114 33.1815C56.053 33.5595 56.1689 33.9032 56.2977 34.2354C56.6067 35.0258 57.3407 35.5986 58.2678 35.5413C58.8601 35.507 59.4782 35.2549 59.9804 34.9686C60.1607 34.8655 60.0705 34.3614 60.0963 34.0407C60.0963 34.0178 60.0963 33.9834 60.0963 33.9605C60.0576 32.666 59.0662 31.784 57.6111 31.784C45.4685 31.784 33.326 31.784 21.1834 31.784C20.9645 31.784 20.7327 31.7954 20.5138 31.8412C19.3678 32.1047 18.724 32.8951 18.724 34.0407C18.724 39.2643 18.724 44.4879 18.724 49.723C18.724 49.8605 18.7369 49.998 18.7498 50.2042C25.9091 50.2042 33.0427 50.2042 40.1892 50.2042C40.1763 50.7196 40.1763 51.155 40.1763 51.6704ZM45.739 36.6181C44.9406 37.3284 44.168 38.0042 43.4083 38.703C43.3182 38.7832 43.2795 38.9894 43.331 39.0925C44.2582 40.8222 43.1379 42.9644 41.2837 43.5715C41.1549 43.6173 41.0133 43.8006 41.0004 43.9266C40.9746 44.7972 40.9875 45.6678 40.9875 46.5499C40.9875 46.7676 41.0519 46.8707 41.2966 46.9508C43.3053 47.7069 44.168 49.5856 43.3568 51.3841C43.3053 51.4986 43.3439 51.7163 43.4341 51.8079C44.1165 52.4494 44.8247 53.0795 45.5458 53.6866C45.6488 53.7782 45.9063 53.824 46.0222 53.7668C47.8636 52.9993 50.2715 53.847 51.0312 55.5767C51.0827 55.7027 51.3145 55.8402 51.469 55.8402C52.4476 55.8631 53.4262 55.8631 54.4049 55.8402C54.5594 55.8402 54.7783 55.6913 54.8298 55.5653C55.6925 53.8126 57.8171 53.0336 59.7872 53.7668C60.0061 53.847 60.1478 53.8584 60.3281 53.6866C61.0105 53.0565 61.7058 52.438 62.4012 51.8308C62.5814 51.6704 62.5943 51.5444 62.5042 51.3497C61.6801 49.5741 62.5428 47.6954 64.5258 46.9508C64.7833 46.8592 64.8606 46.7446 64.8477 46.5041C64.8348 45.6449 64.8606 44.7858 64.8348 43.9266C64.8348 43.7892 64.6803 43.5944 64.5387 43.5372C62.5428 42.7353 61.7058 40.9139 62.5042 39.081C62.5557 38.9665 62.5042 38.7488 62.4141 38.6572C61.7316 38.0157 61.0234 37.3856 60.3023 36.7785C60.1993 36.6983 59.9546 36.6639 59.8259 36.7098C57.83 37.42 55.6925 36.6639 54.8813 34.9113C54.7654 34.6593 54.6238 34.602 54.3533 34.602C53.555 34.6134 52.7438 34.6363 51.9454 34.602C51.4046 34.5791 51.1085 34.6707 50.8767 35.1748C50.1942 36.5608 47.928 37.6033 45.739 36.6181ZM51.2887 60.1932C43.3182 60.1932 35.3991 60.1932 27.48 60.1932C27.48 60.6514 27.48 61.0753 27.48 61.522C35.4249 61.522 43.3439 61.522 51.2887 61.522C51.2887 61.0753 51.2887 60.6514 51.2887 60.1932ZM35.4249 58.6926C38.0774 58.6926 40.6785 58.6926 43.3053 58.6926C43.3053 58.2344 43.3053 57.7991 43.3053 57.3523C40.6656 57.3523 38.0517 57.3523 35.4249 57.3523C35.4249 57.7991 35.4249 58.2344 35.4249 58.6926Z" fill="white"/>
<path d="M36.1716 19.0115C36.442 19.0802 36.7253 19.1375 36.9957 19.2062C39.4422 19.8362 41.1548 22.0357 40.9745 24.2924C40.7814 26.6522 38.7469 28.5881 36.1587 28.886C32.5919 29.2984 29.5402 26.7324 29.8234 23.5478C30.0166 21.3483 31.9223 19.4811 34.356 19.0802C34.4461 19.0687 34.5363 19.0229 34.6264 19C35.1415 19.0115 35.6565 19.0115 36.1716 19.0115ZM31.5103 24.6819C31.8579 25.9076 32.6305 26.7553 33.8667 27.2249C35.1286 27.7061 36.3518 27.5915 37.588 26.9156C36.751 26.1825 35.9655 25.4837 35.1672 24.785C35.1028 24.7277 34.9741 24.6819 34.871 24.6819C33.7765 24.6819 32.682 24.6819 31.5103 24.6819ZM31.5489 23.2385C32.682 23.2385 33.7894 23.2385 34.8968 23.2385C34.9998 23.2385 35.1157 23.1927 35.193 23.1354C35.9784 22.4481 36.751 21.7493 37.5365 21.0505C35.4376 19.6186 32.0382 20.8443 31.5489 23.2385ZM38.7469 22.1388C38.0387 22.7574 37.3305 23.3874 36.6995 23.9487C37.3691 24.5558 38.0773 25.1859 38.7726 25.8045C39.5839 24.6589 39.571 23.1354 38.7469 22.1388Z" fill="white"/>
<path d="M23.4498 19.0112C24.1838 19.2747 24.9821 19.4465 25.6517 19.8016C27.6347 20.867 28.6262 23.0321 28.124 24.9909C27.5832 27.0987 25.7547 28.6223 23.3983 28.8972C20.4624 29.2409 17.6811 27.4653 17.1789 24.9451C16.6381 22.1958 18.5052 19.6756 21.5054 19.1029C21.6085 19.08 21.7115 19.0456 21.8016 19.0112C22.3553 19.0112 22.909 19.0112 23.4498 19.0112ZM23.4627 27.4424C24.9177 27.1216 25.8963 26.377 26.3985 25.1742C26.8492 24.0974 26.6947 23.0664 25.9736 22.0469C25.1495 22.7915 24.364 23.4903 23.5914 24.189C23.5271 24.2578 23.4755 24.3609 23.4755 24.4525C23.4498 25.4262 23.4627 26.4114 23.4627 27.4424ZM21.8402 27.408C21.8402 26.3885 21.8402 25.4033 21.8402 24.4182C21.8402 24.3265 21.7887 24.212 21.7243 24.1547C20.9517 23.4559 20.1663 22.7571 19.3808 22.0698C17.9386 23.7767 18.8529 26.8352 21.8402 27.408ZM22.6901 22.8717C23.3725 22.2645 24.0679 21.646 24.7632 21.0159C23.6301 20.2484 21.6986 20.2484 20.5912 21.0045C21.2865 21.6231 21.9819 22.2416 22.6901 22.8717Z" fill="white"/>
<path d="M48.894 19.0112C49.1515 19.0685 49.4091 19.1372 49.6795 19.1945C52.1904 19.8131 53.9158 22.0354 53.7098 24.3723C53.5038 26.7092 51.4564 28.6108 48.8683 28.8972C45.4173 29.2752 42.4557 26.8925 42.5588 23.8225C42.636 21.5085 44.5417 19.5153 47.1042 19.0914C47.1943 19.08 47.2844 19.0341 47.3617 19.0112C47.8639 19.0112 48.3789 19.0112 48.894 19.0112ZM44.8122 25.9074C45.6362 25.1742 46.4346 24.4754 47.2201 23.7652C47.2844 23.7079 47.3231 23.6163 47.3359 23.5361C47.3488 22.5509 47.3359 21.5658 47.3359 20.5119C46.074 20.7868 45.1598 21.3825 44.6061 22.3676C43.9366 23.559 44.0267 24.7274 44.8122 25.9074ZM52.0101 24.6931C50.8384 24.6931 49.7181 24.6931 48.6107 24.6931C48.5335 24.6931 48.4433 24.7275 48.4047 24.7733C47.6064 25.4835 46.7951 26.1937 45.9582 26.9383C47.2329 27.6027 48.482 27.7058 49.7696 27.1903C50.9542 26.7092 51.6882 25.8844 52.0101 24.6931ZM48.9713 20.5806C48.9713 21.4627 48.9713 22.3333 48.9713 23.2497C49.8726 23.2497 50.7611 23.2497 51.6367 23.2497C51.7397 23.2497 51.8556 23.2268 51.9586 23.2153C51.7526 21.9209 50.3491 20.6837 48.9713 20.5806Z" fill="white"/>
<path d="M20.2695 39.5625C20.2695 36.0457 23.4887 33.1934 27.4546 33.1934C31.3948 33.1934 34.6268 36.0801 34.6268 39.5854C34.6268 43.1137 31.3691 45.989 27.4031 45.9775C23.4629 45.9775 20.2695 43.1022 20.2695 39.5625ZM25.0725 39.5854C25.0725 40.7539 26.1026 41.6932 27.4031 41.7047C28.7294 41.7161 29.811 40.7653 29.811 39.5969C29.811 38.4284 28.7423 37.4777 27.416 37.4891C26.1155 37.4777 25.0725 38.417 25.0725 39.5854ZM23.5273 38.8408C23.9651 37.3746 25.021 36.4696 26.6177 36.0801C26.6177 35.6104 26.6177 35.1751 26.6177 34.7284C24.493 34.7627 21.8662 37.1225 22.0465 38.8408C22.5358 38.8408 23.0251 38.8408 23.5273 38.8408ZM21.995 40.33C22.1495 42.3805 24.5317 44.4081 26.6048 44.3967C26.6048 43.9614 26.6048 43.5261 26.6048 43.0793C24.9823 42.6898 23.9522 41.7734 23.5144 40.33C23.0251 40.33 22.5229 40.33 21.995 40.33ZM32.8885 40.33C32.3735 40.33 31.8713 40.33 31.382 40.33C30.4677 42.1629 30.4677 42.1629 28.4461 43.0335C28.3689 43.0679 28.2658 43.1595 28.2658 43.2397C28.253 43.6406 28.253 44.0301 28.253 44.431C30.3261 44.431 32.7082 42.3233 32.8885 40.33ZM30.8154 37.6037C30.9828 37.9817 31.1116 38.3139 31.2789 38.6346C31.3305 38.7263 31.4592 38.8408 31.5622 38.8523C32 38.8752 32.4378 38.8638 32.9143 38.8638C32.7597 38.0161 32.4378 37.2944 31.8841 36.6529C31.4978 36.9965 31.1502 37.3058 30.8154 37.6037ZM28.2787 34.5909C28.2787 35.2095 28.2787 35.6448 28.2787 36.0686C28.7423 36.2405 29.1801 36.4123 29.5535 36.5498C29.9527 36.229 30.3261 35.9312 30.8154 35.5417C29.9398 35.2095 29.1672 34.9231 28.2787 34.5909Z" fill="white"/>
<path d="M20.3081 47.3979C20.836 47.3979 21.3382 47.3979 21.8662 47.3979C21.8662 47.8676 21.8662 48.3144 21.8662 48.7955C21.3382 48.7955 20.836 48.7955 20.3081 48.7955C20.3081 48.3373 20.3081 47.8905 20.3081 47.3979Z" fill="white"/>
<path d="M23.4629 48.7953C23.4629 48.3142 23.4629 47.8788 23.4629 47.4092C23.978 47.4092 24.4801 47.4092 25.021 47.4092C25.021 47.8559 25.021 48.3142 25.021 48.7953C24.5188 48.7953 24.0166 48.7953 23.4629 48.7953Z" fill="white"/>
<path d="M28.2399 47.3979C28.2399 47.8905 28.2399 48.3258 28.2399 48.7955C27.7119 48.7955 27.2098 48.7955 26.6689 48.7955C26.6689 48.3487 26.6689 47.8905 26.6689 47.3979C27.184 47.3979 27.6862 47.3979 28.2399 47.3979Z" fill="white"/>
<path d="M31.3948 48.7953C30.8797 48.7953 30.3775 48.7953 29.8496 48.7953C29.8496 48.3371 29.8496 47.8903 29.8496 47.4092C30.3518 47.4092 30.854 47.4092 31.3948 47.4092C31.3948 47.8559 31.3948 48.3142 31.3948 48.7953Z" fill="white"/>
<path d="M33.0171 48.7838C33.0171 48.3142 33.0171 47.8789 33.0171 47.4092C33.5322 47.4092 34.0343 47.4092 34.588 47.4092C34.588 47.8559 34.588 48.3027 34.588 48.7838C34.0858 48.7838 33.5708 48.7838 33.0171 48.7838Z" fill="white"/>
<path d="M36.2106 53.0569C36.6356 53.0684 37.009 53.4121 37.009 53.7786C37.009 54.1796 36.6098 54.5118 36.1591 54.4889C35.7213 54.4774 35.3994 54.1566 35.3994 53.7557C35.4123 53.3662 35.7857 53.0455 36.2106 53.0569Z" fill="white"/>
<path d="M40.1893 53.7671C40.1893 54.1451 39.8288 54.4773 39.4038 54.4888C38.966 54.5002 38.6055 54.2024 38.5926 53.8015C38.5797 53.3891 38.9403 53.0454 39.391 53.0454C39.803 53.0569 40.1893 53.4005 40.1893 53.7671Z" fill="white"/>
<path d="M47.2712 51.2352C46.8978 51.6018 46.563 51.9455 46.2025 52.3006C45.8162 51.9226 45.4685 51.5904 45.0951 51.2352C45.4299 50.9603 45.8033 50.651 46.2153 50.3074C45.0307 49.0015 44.374 47.581 44.168 45.9772C43.6272 45.9772 43.1121 45.9772 42.5713 45.9772C42.5713 45.4961 42.5713 45.0494 42.5713 44.5453C43.0864 44.5453 43.6143 44.5453 44.168 44.5453C44.374 42.9416 45.0178 41.5211 46.1896 40.2381C45.7775 39.9288 45.3655 39.631 44.9534 39.3102C45.417 38.9207 45.7775 38.6 46.2153 38.2334C46.5373 38.5656 46.8721 38.9322 47.2197 39.3102C48.7005 38.2449 50.2715 37.6607 52.0613 37.4888C52.0613 37.0192 52.0613 36.5609 52.0613 36.0684C52.615 36.0684 53.13 36.0684 53.6837 36.0684C53.6837 36.5266 53.6837 36.9733 53.6837 37.4774C55.4736 37.6607 57.0831 38.222 58.5511 39.2988C58.8987 38.9207 59.2464 38.5656 59.5812 38.1991C60.019 38.5885 60.3795 38.9093 60.8173 39.2988C60.4053 39.6081 59.9932 39.9059 59.6198 40.1923C61.1908 42.4719 61.1908 42.4719 61.6543 44.5224C62.1565 44.5224 62.6587 44.5224 63.2124 44.5224C63.2124 45.015 63.2124 45.4732 63.2124 45.9658C62.6973 45.9658 62.1822 45.9658 61.6414 45.9658C61.4354 47.5695 60.7916 48.99 59.6198 50.273C60.0319 50.5937 60.4182 50.8916 60.7916 51.178C60.3538 51.556 59.9675 51.8653 59.5554 52.2204C59.2721 51.9455 58.9245 51.6018 58.5382 51.2467C57.1089 52.2662 55.5251 52.8619 53.7224 53.0337C53.7224 53.5034 53.7224 53.9616 53.7224 54.4542C53.1687 54.4542 52.6536 54.4542 52.0999 54.4542C52.0999 53.9845 52.0999 53.5378 52.0999 53.0452C50.323 52.8619 48.7263 52.3006 47.2712 51.2352ZM45.7518 45.267C45.7518 48.7609 48.958 51.6362 52.8854 51.6476C56.8127 51.6591 60.0705 48.7609 60.0705 45.2556C60.0705 41.7502 56.7999 38.8635 52.8725 38.8864C48.9452 38.9093 45.7518 41.7617 45.7518 45.267Z" fill="white"/>
<path d="M52.8857 40.2956C55.9503 40.2727 58.4612 42.4836 58.4998 45.2328C58.5385 47.9478 55.9889 50.2388 52.9114 50.2388C49.8469 50.2388 47.3488 48.0165 47.3359 45.2672C47.3359 42.5294 49.7953 40.3185 52.8857 40.2956ZM48.9455 45.2672C48.9584 47.2032 50.7224 48.7955 52.8857 48.7955C55.0489 48.8069 56.8903 47.1803 56.8774 45.2443C56.8645 43.3083 55.0876 41.7275 52.9114 41.7161C50.7353 41.7161 48.9455 43.3083 48.9455 45.2672Z" fill="white"/>
<path d="M50.5293 45.2785C50.5293 44.0871 51.5594 43.1478 52.8857 43.1363C54.2377 43.1249 55.3194 44.0871 55.3065 45.267C55.2936 46.4355 54.2249 47.3863 52.9115 47.3863C51.5852 47.3978 50.5293 46.4584 50.5293 45.2785ZM53.6969 45.2556C53.6969 44.8776 53.3106 44.5568 52.8857 44.5683C52.4608 44.5797 52.1389 44.8776 52.1517 45.267C52.1517 45.6451 52.4865 45.9544 52.8986 45.9544C53.3235 45.9658 53.6969 45.6336 53.6969 45.2556Z" fill="white"/>
</g>
<defs>
<clipPath id="clip0_1373_80643">
<rect width="49.3714" height="44" fill="white" transform="translate(17.0859 19)"/>
</clipPath>
</defs>
</svg>
