<svg width="79" height="79" viewBox="0 0 79 79" fill="none" xmlns="http://www.w3.org/2000/svg">
<rect width="79" height="79" rx="39.5" fill="#CE6C39"/>
<path d="M36.6938 40.6642C36.6938 40.4937 36.6938 40.3068 36.6938 40.1186C36.6938 33.5615 36.7264 27.0032 36.675 20.4474C36.6574 18.2533 38.4343 16.447 40.6454 16.4685C46.547 16.5253 52.4499 16.4874 58.3516 16.4887C60.6417 16.4887 62.2467 18.1042 62.2467 20.4095C62.248 31.5379 62.2454 42.6663 62.2505 53.7948C62.2505 54.9329 61.751 55.7072 60.7132 56.1468C60.1147 56.4007 59.8675 57.012 60.1197 57.6234C60.6116 58.8133 60.2188 59.7417 59.353 60.5931C58.5197 61.4116 57.6175 61.7274 56.5032 61.2638C55.8958 61.0112 55.2859 61.2588 55.0362 61.8613C54.592 62.9325 53.8014 63.4289 52.6545 63.4112C52.0095 63.4024 51.3369 63.463 50.8236 63.0032C50.4735 62.6887 50.1673 62.292 49.9415 61.8777C49.6152 61.2777 49.0681 61.0074 48.4319 61.2701C47.4204 61.6895 46.527 61.4937 45.7678 60.7308C45.5005 60.463 45.2357 60.3708 44.8643 60.3708C36.9109 60.3809 28.9588 60.3796 21.0055 60.3783C18.3138 60.3771 16.2144 58.615 15.7212 55.9535C15.2142 53.2099 17.1141 50.3792 19.8359 49.903C20.4847 49.7893 21.1698 49.8537 21.8362 49.8765C22.0972 49.8853 22.2453 49.8676 22.382 49.5973C23.7386 46.9005 25.9183 45.4428 28.9224 45.2394C29.068 45.2293 29.26 45.1421 29.3403 45.0272C31.0595 42.5767 33.3885 41.1506 36.345 40.7666C36.4228 40.7565 36.4993 40.7375 36.5746 40.7198C36.6022 40.711 36.6298 40.6933 36.6938 40.6642ZM34.2004 49.4432C32.5578 47.3224 30.4747 46.3383 27.847 46.9447C25.2268 47.5497 23.785 49.3712 23.1789 51.943C22.8074 51.7927 22.495 51.6537 22.1737 51.5388C19.4745 50.5712 16.7577 52.8499 17.2245 55.6857C17.5357 57.5805 19.0717 58.8613 21.0707 58.8626C28.7894 58.8676 36.5094 58.8651 44.228 58.8638C44.3485 58.8638 44.469 58.8461 44.543 58.8411C44.6346 58.4356 44.6836 58.0579 44.8065 57.7068C45.0701 56.9514 44.8705 56.4272 44.1465 56.1114C43.3873 55.7805 42.9067 55.2032 42.7435 54.3973C42.667 54.0171 42.7084 53.6129 42.7071 53.2188C42.7071 52.1767 43.2129 51.4579 44.1339 51.0297C44.8781 50.6836 45.0914 50.1859 44.7877 49.4002C44.548 48.7813 44.5342 48.1598 44.8367 47.5712C44.9897 47.2743 44.937 47.0558 44.8028 46.7855C42.7749 42.7055 37.7128 41.0432 33.6922 43.1451C32.628 43.7009 31.7132 44.4322 30.9428 45.4339C32.8351 45.967 34.3372 46.9636 35.4327 48.6133C35.006 48.9013 34.6082 49.1691 34.2004 49.4432ZM60.7459 50.9577C60.7459 50.7885 60.7459 50.6634 60.7459 50.5383C60.7459 40.5303 60.7471 30.5223 60.7446 20.5143C60.7446 18.9341 59.806 18.0019 58.2211 18.0007C52.3972 17.9994 46.5746 17.9994 40.7508 18.0007C39.1094 18.0007 38.1959 18.9215 38.1959 20.5762C38.1946 27.1169 38.1959 33.6575 38.1959 40.1981C38.1959 40.3649 38.1959 40.5303 38.1959 40.6971C38.7267 40.7805 39.1973 40.8537 39.7005 40.932C39.7005 40.692 39.7005 40.5051 39.7005 40.3181C39.7005 33.967 39.718 27.6146 39.6829 21.2634C39.6779 20.2693 40.3668 19.4887 41.4573 19.4962C46.8269 19.5354 52.1952 19.5139 57.5648 19.5152C58.6641 19.5152 59.2413 20.0962 59.2413 21.2015C59.2425 24.9367 59.2413 28.6718 59.2413 32.407C59.2413 36.9455 59.24 41.4853 59.2476 46.0238C59.2476 46.212 59.2777 46.4659 59.3956 46.5784C60.3393 47.4727 60.5853 48.4857 60.0595 49.6996C59.8624 50.1556 60.195 50.743 60.7459 50.9577ZM47.5748 47.2074C46.7077 47.2011 45.9949 48.2672 46.2747 48.9973C46.7855 50.3287 46.2095 51.8154 44.9258 52.3497C44.3435 52.5922 44.1979 52.9914 44.1979 53.5687C44.1979 54.1485 44.3473 54.5451 44.9283 54.7864C46.1656 55.2992 46.7993 56.8112 46.2998 58.0491C46.0689 58.62 46.1882 59.0154 46.6073 59.4373C47.0302 59.863 47.4204 60.0386 48.0177 59.7922C49.25 59.2832 50.7534 59.9135 51.2616 61.1602C51.5113 61.7716 51.9254 61.9068 52.5127 61.9042C53.0749 61.9017 53.4488 61.7388 53.681 61.1779C54.2068 59.9047 55.695 59.2832 56.9599 59.8011C57.5096 60.0259 57.8936 59.8908 58.2976 59.4866C58.718 59.0659 58.91 58.6731 58.6615 58.0693C58.1496 56.8213 58.7682 55.3118 60.0042 54.7952C60.579 54.5552 60.7534 54.1775 60.7559 53.5901C60.7584 52.9901 60.6016 52.5885 60.0017 52.3396C58.7946 51.8394 58.1546 50.3122 58.644 49.1072C58.8849 48.516 58.7607 48.1143 58.329 47.6798C57.8998 47.2478 57.502 47.1114 56.9123 47.3527C55.7076 47.8478 54.1955 47.2112 53.6985 45.9973C53.4513 45.396 53.0598 45.228 52.4612 45.2306C51.8815 45.2344 51.4988 45.3973 51.2603 45.9796C50.7509 47.2213 49.2525 47.8289 48.009 47.3539C47.8358 47.2882 47.6576 47.2352 47.5748 47.2074ZM46.1493 46.0491C46.9022 45.6196 47.63 45.5274 48.3967 45.8482C49.0944 46.14 49.6466 45.8988 49.9427 45.1952C50.2213 44.5333 50.6806 44.0129 51.3657 43.855C52.8339 43.5165 54.4389 43.6175 55.0877 45.367C55.2671 45.8508 55.8933 46.0731 56.3827 45.9215C56.8119 45.7889 57.2498 45.6853 57.7041 45.5628C57.7041 43.4823 57.7041 41.3476 57.7041 39.2268C52.1852 39.2268 46.7001 39.2268 41.2001 39.2268C41.2001 39.5653 41.2402 39.871 41.1925 40.1628C41.0482 41.0571 41.3406 41.5661 42.2065 41.9931C43.9507 42.8533 45.2094 44.2845 46.1493 46.0491ZM57.7053 25.548C57.7053 24.0234 57.7053 22.5367 57.7053 21.0638C52.1877 21.0638 46.7039 21.0638 41.2277 21.0638C41.2277 22.5771 41.2277 24.0525 41.2277 25.548C46.7252 25.548 52.199 25.548 57.7053 25.548ZM57.7053 31.6023C57.7053 30.0777 57.7053 28.591 57.7053 27.1181C52.1877 27.1181 46.7039 27.1181 41.2277 27.1181C41.2277 28.6314 41.2277 30.1068 41.2277 31.6023C46.7252 31.6023 52.199 31.6023 57.7053 31.6023ZM57.738 33.1687C52.194 33.1687 46.7102 33.1687 41.2402 33.1687C41.2402 34.6895 41.2402 36.1762 41.2402 37.6516C46.7516 37.6516 52.2241 37.6516 57.7216 37.6516C57.7279 37.5531 57.738 37.4786 57.738 37.4028C57.7392 36.0019 57.738 34.6011 57.738 33.1687Z" fill="white"/>
<path d="M31.4521 30.8646C31.4521 26.5509 31.4521 22.3004 31.4521 18.0259C31.9352 18.0259 32.3995 18.0259 32.914 18.0259C32.914 21.7775 32.914 25.5354 32.914 29.3135C33.2039 29.345 33.4536 29.3425 33.6883 29.4006C34.8804 29.7013 35.5517 30.9796 35.0272 32.1013C34.1827 33.9088 33.3055 35.7038 32.3593 37.4583C31.6265 38.8162 29.7028 38.7897 28.975 37.4204C28.0539 35.6886 27.1855 33.9253 26.3523 32.148C25.7274 30.8141 26.6622 29.3918 28.1267 29.3501C28.2045 29.3476 28.2823 29.3425 28.409 29.3362C28.409 25.5745 28.409 21.8166 28.409 18.0284C28.9323 18.0284 29.4066 18.0284 29.9036 18.0284C29.9036 22.2954 29.9036 26.5446 29.9036 30.8634C29.3941 30.8634 28.8846 30.8596 28.3751 30.8646C27.7301 30.8697 27.5469 31.1526 27.828 31.721C28.6073 33.2987 29.3853 34.8777 30.1847 36.4453C30.2775 36.6272 30.5084 36.8469 30.6766 36.8482C30.8447 36.8495 31.0794 36.6309 31.1722 36.4503C31.9804 34.8701 32.7659 33.2785 33.5502 31.6869C33.8037 31.1741 33.613 30.876 33.0345 30.8671C32.5212 30.8583 32.0067 30.8646 31.4521 30.8646Z" fill="white"/>
<path d="M22.4284 35.4223C22.4284 39.1878 22.4284 42.9343 22.4284 46.7188C21.9227 46.7188 21.4484 46.7188 20.9402 46.7188C20.9402 42.4682 20.9402 38.2076 20.9402 33.8926C21.4584 33.8926 21.9692 33.8977 22.4812 33.8914C23.0948 33.8851 23.2855 33.5945 23.0195 33.0564C22.2339 31.4649 21.4497 29.8733 20.6403 28.2931C20.5487 28.115 20.3165 27.9204 20.1358 27.9065C19.989 27.8952 19.7631 28.1137 19.6753 28.283C18.8621 29.8783 18.0665 31.4838 17.2747 33.0905C17.0363 33.5743 17.2295 33.88 17.7741 33.8901C18.3024 33.9002 18.8307 33.8926 19.3804 33.8926C19.3804 38.1886 19.3804 42.4379 19.3804 46.7225C18.906 46.7225 18.4317 46.7225 17.9072 46.7225C17.9072 42.9634 17.9072 39.2055 17.9072 35.4425C17.6148 35.4084 17.3625 35.4097 17.1266 35.3478C15.9307 35.0308 15.2857 33.7625 15.8166 32.6358C16.6598 30.8459 17.5307 29.0661 18.4606 27.3217C19.1884 25.9575 21.1121 25.9486 21.8437 27.3116C22.7873 29.0686 23.6745 30.8585 24.5103 32.6699C25.1026 33.9545 24.1476 35.3579 22.7334 35.4059C22.643 35.4084 22.5514 35.416 22.4284 35.4223Z" fill="white"/>
<path d="M36.1276 45.4175C35.9984 44.9262 35.8754 44.4601 35.7524 43.9977C38.5671 43.0226 42.8977 44.6293 43.9919 48.842C43.5326 48.967 43.0708 49.0921 42.5538 49.2335C42.136 47.8567 41.3717 46.7388 40.1319 46.0049C38.8946 45.2723 37.5645 45.0765 36.1276 45.4175Z" fill="white"/>
<path d="M32.7573 50.1191C32.3771 50.4071 31.9944 50.6989 31.6154 50.9856C29.4269 49.0227 27.3062 49.4938 26.1969 52.2008C25.7364 52.1086 25.2683 52.0151 24.8027 51.9229C24.8718 50.4526 26.3814 48.8294 28.0629 48.3962C29.8297 47.9414 31.9078 48.6917 32.7573 50.1191Z" fill="white"/>
<path d="M47.2158 53.5777C47.2146 50.6257 49.5574 48.2699 52.4913 48.2725C55.3963 48.275 57.7354 50.632 57.7379 53.56C57.7392 56.512 55.3963 58.8691 52.4624 58.8666C49.5599 58.8628 47.2183 56.5019 47.2158 53.5777ZM56.2321 53.584C56.2434 51.5415 54.5555 49.816 52.5164 49.787C50.4735 49.7567 48.733 51.4834 48.7204 53.5512C48.7079 55.6102 50.4358 57.3558 52.4825 57.3495C54.5166 57.3445 56.2208 55.6329 56.2321 53.584Z" fill="white"/>
<path d="M51.7461 42.1912C51.7461 41.7011 51.7461 41.235 51.7461 40.7373C52.2229 40.7373 52.696 40.7373 53.1992 40.7373C53.1992 41.2135 53.1992 41.6897 53.1992 42.1912C52.7249 42.1912 52.2631 42.1912 51.7461 42.1912Z" fill="white"/>
<path d="M56.2097 42.1954C55.7241 42.1954 55.2623 42.1954 54.7666 42.1954C54.7666 41.7166 54.7666 41.2404 54.7666 40.7339C55.2384 40.7339 55.7115 40.7339 56.2097 40.7339C56.2097 41.2101 56.2097 41.6749 56.2097 42.1954Z" fill="white"/>
<path d="M42.7271 24.0296C42.7271 23.5395 42.7271 23.0734 42.7271 22.5757C43.2039 22.5757 43.677 22.5757 44.1802 22.5757C44.1802 23.0519 44.1802 23.5281 44.1802 24.0296C43.7046 24.0296 43.2428 24.0296 42.7271 24.0296Z" fill="white"/>
<path d="M45.7476 22.5605C46.2382 22.5605 46.7 22.5605 47.1881 22.5605C47.1881 23.0557 47.1881 23.5319 47.1881 24.0309C46.7075 24.0309 46.2445 24.0309 45.7476 24.0309C45.7476 23.5572 45.7476 23.081 45.7476 22.5605Z" fill="white"/>
<path d="M53.189 30.0978C52.6983 30.0978 52.2478 30.0978 51.7622 30.0978C51.7622 29.6127 51.7622 29.1365 51.7622 28.6274C52.2278 28.6274 52.7009 28.6274 53.189 28.6274C53.189 29.1201 53.189 29.6077 53.189 30.0978Z" fill="white"/>
<path d="M56.2009 30.0877C55.7077 30.0877 55.246 30.0877 54.7578 30.0877C54.7578 29.6026 54.7578 29.1378 54.7578 28.6338C55.2183 28.6338 55.6927 28.6338 56.2009 28.6338C56.2009 29.0948 56.2009 29.5711 56.2009 30.0877Z" fill="white"/>
<path d="M44.1906 34.6855C44.1906 35.1744 44.1906 35.6405 44.1906 36.1331C43.7 36.1331 43.2269 36.1331 42.73 36.1331C42.73 35.6531 42.73 35.187 42.73 34.6855C43.1968 34.6855 43.6698 34.6855 44.1906 34.6855Z" fill="white"/>
<path d="M47.1845 36.1524C46.6914 36.1524 46.2409 36.1524 45.7515 36.1524C45.7515 35.6724 45.7515 35.1961 45.7515 34.6846C46.2082 34.6846 46.6813 34.6846 47.1845 34.6846C47.1845 35.157 47.1845 35.6332 47.1845 36.1524Z" fill="white"/>
<path d="M50.2227 53.5422C50.2289 52.2803 51.2316 51.2925 52.5028 51.2989C53.7576 51.3052 54.7377 52.3132 54.7314 53.594C54.7251 54.8559 53.7212 55.845 52.4513 55.8387C51.1977 55.8323 50.2177 54.8205 50.2227 53.5422ZM52.4965 54.3191C52.8842 54.3052 53.2419 53.9186 53.2218 53.5359C53.2017 53.162 52.8479 52.8197 52.4802 52.8172C52.0949 52.8146 51.726 53.1885 51.731 53.5763C51.7373 53.9666 52.1138 54.3317 52.4965 54.3191Z" fill="white"/>
</svg>
