<svg width="79" height="79" viewBox="0 0 79 79" fill="none" xmlns="http://www.w3.org/2000/svg">
<rect width="79" height="79" rx="39.5" fill="#CE6C39"/>
<path d="M34.7893 55.2617C34.5907 54.5749 34.4155 54.0065 34.2519 53.438C34.1935 53.4854 34.0767 53.592 33.9715 53.6986C32.6864 55.0012 31.4012 56.3157 30.1044 57.6065C29.9408 57.7722 29.7188 57.9144 29.4968 57.9972C26.6344 59.1222 23.772 60.2472 20.898 61.3486C19.531 61.8696 18.1758 60.9104 18.2809 59.4894C18.3043 59.2288 18.3861 58.9683 18.4795 58.7196C19.5544 55.8657 20.6292 53.0117 21.7275 50.1696C21.8326 49.9091 21.9962 49.6486 22.1948 49.4472C24.0641 47.5407 25.9334 45.6341 27.8144 43.7393C28.0247 43.5262 28.0832 43.3604 27.9663 43.0525C27.3121 41.3236 27.242 39.5472 27.4873 37.7354C27.499 37.6643 27.5107 37.5933 27.5224 37.5222C27.5224 37.4986 27.5107 37.463 27.499 37.4038C26.7279 37.4038 25.9451 37.4157 25.1507 37.4038C24.0408 37.392 22.9308 37.463 21.8326 37.3209C19.8932 37.0604 18.4912 35.5091 18.2809 33.5551C18.0823 31.6959 19.1805 29.8959 20.9564 29.1735C21.0382 29.138 21.1199 29.1143 21.1316 29.1025C21.1316 28.2143 21.0498 27.3617 21.1433 26.5209C21.4938 23.5841 23.7019 21.1683 26.541 20.5525C29.4735 19.913 32.4176 21.1683 33.9715 23.738C34.1701 24.0578 34.3337 24.1051 34.6959 24.0459C37.0793 23.6433 38.9953 24.4604 40.3973 26.4499C40.5726 26.7104 40.7712 26.7933 41.0633 26.8407C41.8928 26.9709 42.734 27.113 43.5518 27.3143C43.8555 27.3854 44.0308 27.3262 44.2294 27.113C46.8114 24.4841 49.3934 21.8551 51.9871 19.2499C54.0784 17.142 57.2913 16.9643 59.5462 18.8117C62.1866 20.9788 62.3852 24.8749 59.9668 27.3499C57.4081 29.967 54.8378 32.5604 52.2675 35.1538C51.9871 35.4262 51.9404 35.663 52.0338 36.0301C52.2208 36.8117 52.3376 37.617 52.4778 38.4222C52.5012 38.5525 52.5128 38.6828 52.5362 38.8367C53.0035 38.8367 53.4592 38.8367 53.9499 38.8367C53.9499 39.3222 53.9499 39.7722 53.9499 40.2341C53.9499 40.838 54.2186 41.288 54.7677 41.5367C55.3285 41.7854 55.8542 41.6788 56.2982 41.2407C56.6253 40.9091 56.9408 40.5538 57.2446 40.2222C58.2727 41.2643 59.2424 42.2472 60.3056 43.3367C59.9901 43.6091 59.6513 43.8815 59.3475 44.1893C58.8452 44.6867 58.7283 45.2315 58.9854 45.7999C59.2541 46.392 59.7097 46.6525 60.3523 46.6407C60.7729 46.6288 61.1935 46.6407 61.6375 46.6407C61.6375 48.0617 61.6375 49.4472 61.6375 50.892C61.2402 50.892 60.8196 50.9038 60.399 50.892C59.7565 50.8683 59.2541 51.117 58.997 51.7328C58.7283 52.3722 58.9036 52.917 59.3826 53.3788C59.6747 53.663 59.9784 53.9472 60.2471 54.1959C59.2307 55.2262 58.2493 56.2091 57.1978 57.2867C56.9642 57.0262 56.6838 56.6828 56.3917 56.363C55.9594 55.9012 55.4453 55.7472 54.8378 55.9841C54.277 56.2091 53.9849 56.6946 53.9732 57.3933C53.9732 57.7959 53.9732 58.1867 53.9616 58.5894C53.9616 58.613 53.9382 58.6367 53.9265 58.6841C52.5713 58.6841 51.2043 58.6841 49.779 58.6841C49.779 58.2696 49.7673 57.8433 49.779 57.417C49.7906 56.7657 49.557 56.2565 48.9494 55.9959C48.3186 55.7236 47.7811 55.9012 47.3255 56.3986C47.0451 56.6946 46.7764 57.0025 46.4492 57.3578C46.1688 57.0262 45.9352 56.7538 45.608 56.3867C45.5263 57.5472 45.0472 58.2459 44.1126 58.613C44.0191 58.6486 43.949 58.8025 43.9023 58.9209C43.1078 60.5907 41.811 61.538 39.9767 61.538C38.1424 61.538 36.8456 60.5907 36.0511 58.9209C35.9927 58.8025 35.9109 58.6604 35.7941 58.6012C34.2636 57.7604 33.9598 56.6236 34.7893 55.2617ZM28.0832 31.7078C28.0364 30.5946 28.7608 29.5407 29.8473 29.0788C29.9992 29.0078 30.1978 28.842 30.2212 28.688C30.5133 27.0657 31.3311 25.7867 32.6864 24.863C32.7681 24.8038 32.8382 24.7328 32.9083 24.6735C32.0905 23.1222 30.5834 22.1038 28.7374 21.8314C25.0572 21.2985 21.7275 24.9459 22.557 28.6051C22.6037 28.8301 22.7089 28.9012 22.9308 28.9367C23.3281 29.0078 23.737 29.1025 24.1109 29.2564C25.653 29.9078 26.7513 31.613 26.6111 33.1288C26.1671 33.1288 25.7231 33.1288 25.2792 33.1288C25.2441 32.9393 25.2208 32.7617 25.1857 32.5841C24.8819 31.1275 23.5501 30.1446 22.1364 30.3222C20.6643 30.4999 19.5894 31.8025 19.6595 33.3064C19.7296 34.8222 20.9681 35.9709 22.5453 35.9828C28.7725 35.9828 34.9996 35.9828 41.2151 35.9828C41.2969 35.9828 41.3904 35.9828 41.4722 35.9828C42.5237 35.9117 43.3882 35.0236 43.435 33.9578C43.4817 32.8683 42.6989 31.9091 41.624 31.7551C40.5959 31.6012 39.6028 32.2762 39.3224 33.3064C39.2757 33.4841 39.2407 33.6736 39.2056 33.8393C38.7383 33.8393 38.2943 33.8393 37.827 33.8393C37.8971 32.6551 38.3177 31.6841 39.2757 31.0564C39.8015 30.713 39.9183 30.2867 39.93 29.7301C39.9767 27.5275 38.4345 25.7157 36.2381 25.3841C34.2285 25.0762 32.219 26.4735 31.6699 28.5459C31.5881 28.8657 31.6232 29.0314 31.962 29.1735C33.0018 29.6117 33.6794 30.713 33.586 31.7433C33.3757 31.7433 33.1537 31.7433 32.9434 31.7433C32.7097 31.7433 32.4877 31.7433 32.2658 31.7433C32.0788 30.8551 31.6232 30.3459 30.9339 30.3459C30.6418 30.3459 30.2796 30.4051 30.081 30.5828C29.7539 30.8788 29.5436 31.3051 29.2515 31.7196C28.9477 31.7078 28.5154 31.7078 28.0832 31.7078ZM43.8906 51.5907C44.6383 49.7315 45.9936 48.3222 47.3839 46.9486C47.8279 46.5104 48.2718 46.0486 48.7041 45.5986C50.1645 44.0472 51.0524 42.2354 51.1459 40.0683C51.3562 34.8696 48.0966 30.2157 43.1896 28.688C42.5587 28.4985 41.9044 28.3801 41.2619 28.238C41.3086 28.9841 41.3436 29.6354 41.3787 30.3104C41.4488 30.3222 41.5189 30.3222 41.589 30.3341C43.3765 30.488 44.7668 31.9091 44.8603 33.6736C44.9421 35.4972 43.7387 37.0722 41.9395 37.3446C41.11 37.4749 40.2571 37.4038 39.4159 37.4157C38.9135 37.4275 38.4112 37.4157 37.9205 37.4157C37.8971 37.4986 37.8854 37.5222 37.8854 37.5578C37.8854 38.138 37.8737 38.7064 37.8854 39.2867C37.8854 40.0328 38.1074 40.2578 38.8551 40.2578C40.6193 40.2578 42.3835 40.2578 44.1476 40.2578C45.1173 40.2578 45.9235 40.8617 46.1922 41.7617C46.6011 43.1354 45.608 44.4972 44.171 44.5091C41.8811 44.5209 39.5912 44.5091 37.3012 44.5209C36.7989 44.5209 36.4834 44.817 36.4951 45.2433C36.5068 45.6578 36.8105 45.9301 37.3012 45.9301C37.7102 45.942 38.1191 45.9301 38.528 45.9301C39.8015 45.942 40.6894 46.842 40.7011 48.1446C40.7128 49.1512 40.7011 50.1578 40.7011 51.1643C40.7011 51.3065 40.7128 51.4486 40.7244 51.6025C41.7642 51.5907 42.8041 51.5907 43.8906 51.5907ZM28.9711 37.4275C28.4453 40.2104 28.8192 42.7565 30.6535 44.9472C31.4713 45.9183 32.3943 46.8065 33.2822 47.7301C34.3454 48.8196 35.3034 49.9801 35.9226 51.3893C35.9694 51.4841 36.0979 51.6025 36.1913 51.6025C37.1961 51.6143 38.1892 51.6143 39.229 51.6143C39.229 50.3709 39.2523 49.1749 39.2173 47.9788C39.2056 47.5762 38.9135 47.3512 38.5046 47.3512C38.0373 47.3393 37.57 47.363 37.1026 47.3393C35.9343 47.3038 35.0347 46.3565 35.0347 45.1959C35.0464 44.0472 35.946 43.1236 37.0909 43.088C37.4064 43.0762 37.7335 43.088 38.049 43.088C40.0351 43.088 42.0096 43.088 43.9957 43.088C44.4981 43.088 44.8019 42.8393 44.8253 42.4249C44.8603 41.9867 44.5215 41.6788 43.9957 41.667C42.2666 41.667 40.5258 41.667 38.7967 41.667C37.2779 41.667 36.4367 40.8262 36.4367 39.2867C36.4367 38.6709 36.4367 38.0551 36.4367 37.4275C33.9482 37.4275 31.483 37.4275 28.9711 37.4275ZM46.9516 49.4472C46.1571 50.2999 45.5379 51.2236 45.129 52.2893C45.094 52.3841 45.1874 52.538 45.2459 52.6446C45.4912 53.0946 45.608 53.5683 45.5146 54.0894C45.4912 54.1959 45.5146 54.3617 45.5847 54.4446C45.8183 54.7407 46.087 55.013 46.3558 55.2972C47.3138 54.4565 48.3185 54.1959 49.4401 54.6696C50.5617 55.1433 51.0758 56.067 51.1693 57.2393C51.6483 57.2393 52.0922 57.2393 52.5245 57.2393C52.618 56.0196 53.1554 55.1196 54.2653 54.6578C55.3869 54.1841 56.4034 54.4683 57.2796 55.238C57.6184 54.9065 57.9339 54.5986 58.261 54.2788C57.4782 53.3551 57.2095 52.3367 57.6768 51.1999C58.1442 50.063 59.0438 49.5301 60.2121 49.4472C60.2121 48.9617 60.2121 48.5117 60.2121 48.0736C59.0087 47.9788 58.1208 47.4341 57.6651 46.3091C57.2095 45.1722 57.4665 44.142 58.2259 43.2657C57.8988 42.9222 57.6067 42.6025 57.2913 42.2591C56.4618 42.9933 55.5271 43.2893 54.4523 42.9222C53.3774 42.5551 52.7816 41.7617 52.5596 40.7314C52.3025 41.7262 52.0221 42.7565 51.7534 43.763C54.8261 43.8104 56.6253 46.1907 56.7305 48.4762C56.8473 50.9749 55.1065 53.213 52.7582 53.6157C50.0009 54.113 47.933 52.6446 46.9516 49.4472ZM52.2208 21.0617C54.2186 23.0985 56.2047 25.0999 58.1909 27.113C59.6513 25.9051 60.5976 24.413 60.142 22.3643C59.7681 20.6472 58.6816 19.5104 56.9875 19.0959C54.9546 18.5985 53.4358 19.5341 52.2208 21.0617ZM28.0715 57.0499C26.2723 55.2144 24.473 53.4025 22.6738 51.5788C22.1247 53.0117 21.5639 54.492 21.0148 55.9722C20.9797 56.0551 21.0382 56.2328 21.1199 56.3038C21.8677 57.0854 22.6388 57.8551 23.4099 58.613C23.4916 58.6959 23.6786 58.7433 23.7837 58.7078C25.2208 58.163 26.6695 57.5946 28.0715 57.0499ZM25.8984 52.5854C27.5925 50.8683 29.2865 49.1512 30.9572 47.4578C30.2562 46.6288 29.5085 45.7407 28.7958 44.9117C27.0667 46.6643 25.3025 48.4525 23.5617 50.217C24.3445 50.9986 25.1507 51.8157 25.8984 52.5854ZM29.4384 56.1262C31.0273 54.5157 32.6513 52.8696 34.3337 51.1525C33.6444 50.2999 32.9083 49.3999 32.219 48.5709C30.4549 50.3709 28.7491 52.088 27.0901 53.7696C27.8612 54.5394 28.6673 55.3565 29.4384 56.1262ZM55.3402 48.9854C55.3519 46.7354 53.6461 45.0893 51.6366 45.2315C51.2627 45.2551 50.8071 45.3854 50.5384 45.6341C49.8724 46.2499 49.2999 46.9604 48.6924 47.6354C48.5639 47.7775 48.4471 47.967 48.412 48.1565C48.1784 49.5301 48.6223 50.6788 49.6855 51.5315C50.8188 52.4315 52.0806 52.5736 53.3774 51.9341C54.6626 51.3065 55.2701 50.2051 55.3402 48.9854ZM49.0896 24.3538C47.8746 25.5854 46.6478 26.8051 45.4678 28.0012C46.4025 28.6407 47.3722 29.3038 48.3069 29.9314C49.3467 28.8893 50.4099 27.8117 51.4613 26.7459C50.6669 25.9525 49.8607 25.1354 49.0896 24.3538ZM54.943 30.3459C54.1368 29.5288 53.319 28.6999 52.5596 27.9301C51.5314 28.9722 50.4683 30.0499 49.4401 31.0801C50.071 32.0393 50.7253 33.0222 51.3562 33.9814C52.5362 32.7854 53.7513 31.5538 54.943 30.3459ZM57.081 28.238C55.0715 26.2012 53.0853 24.1999 51.1576 22.2341C50.8304 22.5538 50.4799 22.9091 50.1996 23.1933C52.1623 25.1828 54.1485 27.1959 56.123 29.1972C56.415 28.9012 56.7539 28.5696 57.081 28.238ZM40.0001 53.0117C38.8785 53.0117 37.7569 53.0117 36.6353 53.0117C36.0862 53.0117 35.7591 53.2722 35.7591 53.7222C35.7591 54.1604 36.0745 54.4328 36.6353 54.4328C38.8551 54.4328 41.0633 54.4328 43.2831 54.4328C43.8322 54.4328 44.1593 54.1604 44.1593 53.7222C44.1593 53.2841 43.8439 53.0117 43.2831 53.0117C42.1848 53.0117 41.0866 53.0117 40.0001 53.0117ZM39.93 57.2749C41.0516 57.2749 42.1732 57.2749 43.2948 57.2749C43.8205 57.2749 44.1243 57.0144 44.1359 56.588C44.1476 56.1499 43.8205 55.8657 43.2831 55.8657C41.0516 55.8657 38.8201 55.8657 36.5886 55.8657C36.0628 55.8657 35.7591 56.1262 35.7474 56.5525C35.7357 57.0025 36.0628 57.2749 36.6002 57.2749C37.7218 57.2749 38.8318 57.2749 39.93 57.2749ZM37.4999 58.7196C38.1424 59.6551 38.9603 60.117 40.0001 60.1051C41.0048 60.0933 41.7993 59.6315 42.3951 58.7196C40.7478 58.7196 39.1706 58.7196 37.4999 58.7196ZM20.3722 57.6775C20.1502 58.2578 19.9049 58.8499 19.7063 59.4538C19.5778 59.8328 19.9166 60.1999 20.2904 60.0815C20.898 59.8801 21.4938 59.6196 22.078 59.3946C21.4821 58.8025 20.933 58.2459 20.3722 57.6775Z" fill="white"/>
<path d="M51.8351 50.8919C50.6784 50.8919 49.7321 49.909 49.7438 48.7367C49.7554 47.5761 50.7135 46.6406 51.8467 46.6406C53.0034 46.6406 53.9497 47.6235 53.938 48.7959C53.9264 49.9446 52.98 50.8919 51.8351 50.8919ZM52.5477 48.7722C52.5594 48.3932 52.244 48.0617 51.8701 48.0498C51.4962 48.038 51.1691 48.3577 51.1574 48.7367C51.1458 49.1156 51.4612 49.4472 51.8351 49.459C52.2089 49.4709 52.5361 49.163 52.5477 48.7722Z" fill="white"/>
</svg>
