<svg width="79" height="79" viewBox="0 0 79 79" fill="none" xmlns="http://www.w3.org/2000/svg">
<rect width="79" height="79" rx="39.5" fill="#CE6C39"/>
<g clip-path="url(#clip0_1373_80181)">
<path d="M24.371 59.99C23.7358 59.8095 23.0526 59.6792 22.4654 59.4185C20.3679 58.496 19.2413 57.022 19.1215 55.0267C19.0855 54.3549 19.469 54.0641 20.284 54.0641C21.5904 54.0641 22.8968 54.0641 24.2871 54.0641C24.2871 53.8936 24.2871 53.7432 24.2871 53.5928C24.2871 48.1482 24.2871 42.7036 24.2871 37.259C24.2871 37.1086 24.2752 36.9682 24.2991 36.8178C24.3591 36.4167 24.7905 36.126 25.258 36.136C25.7134 36.146 26.1209 36.4368 26.1808 36.8178C26.2048 36.9582 26.1928 37.1086 26.1928 37.259C26.1928 42.7036 26.1928 48.1482 26.1928 53.5928C26.1928 53.7332 26.1928 53.8836 26.1928 54.0641C26.4205 54.0641 26.6003 54.0641 26.7921 54.0641C32.7848 54.0641 38.7894 54.0641 44.7821 54.0641C45.7649 54.0641 46.0166 54.2546 46.1005 55.0668C46.2683 56.7112 47.287 57.7941 49.0609 58.2353C51.3381 58.8068 53.855 57.4532 54.0348 55.4578C54.1546 54.1644 54.0588 52.8508 54.0588 51.6075C53.1599 51.6777 52.201 51.808 51.2422 51.808C46.8196 51.798 42.9244 48.8802 42.3611 45.2003C41.7258 41.0492 44.878 37.3793 49.792 36.5772C50.2594 36.497 50.7388 36.4669 51.2182 36.4569C52.0692 36.4368 52.4168 36.7276 52.4168 37.4295C52.4168 39.2343 52.4168 41.0291 52.4168 42.834C52.4168 42.9844 52.4168 43.1247 52.4168 43.3353C52.5965 43.3353 52.7643 43.3353 52.9321 43.3353C55.1015 43.3353 57.2708 43.3353 59.4402 43.3353C60.3151 43.3353 60.6747 43.6261 60.6387 44.3581C60.4949 46.935 59.1765 48.9805 56.6356 50.4644C56.1922 50.7251 56.0124 50.9658 56.0363 51.427C56.0843 52.6403 56.0603 53.8535 56.0483 55.0668C56.0363 57.4532 53.9988 59.4786 51.1823 59.9198C51.1104 59.9298 51.0384 59.9699 50.9785 60C42.1094 59.99 33.2402 59.99 24.371 59.99ZM50.4991 38.1414C46.9634 38.4923 43.9911 41.1595 44.2068 44.4483C44.4345 47.8574 47.8024 50.3241 51.6976 50.2037C56.0843 50.0634 58.4574 47.0453 58.5892 44.9396C58.4094 44.9396 58.2416 44.9396 58.0619 44.9396C55.9045 44.9396 53.7591 44.9396 51.6018 44.9396C50.8587 44.9396 50.4871 44.6288 50.4871 44.0071C50.4871 42.7237 50.4871 41.4503 50.4871 40.1668C50.4991 39.495 50.4991 38.8332 50.4991 38.1414ZM21.1949 55.6684C21.2189 55.7787 21.2309 55.8589 21.2548 55.9391C21.7942 57.4432 23.4601 58.3957 25.5456 58.3957C32.1136 58.3957 38.6816 58.3957 45.2495 58.3957C45.3814 58.3957 45.5252 58.3957 45.7529 58.3957C45.0458 57.6738 44.5304 56.9619 44.3626 56.1196C44.2907 55.7586 44.1229 55.6584 43.6914 55.6584C36.3804 55.6684 29.0573 55.6684 21.7462 55.6684C21.5545 55.6684 21.3867 55.6684 21.1949 55.6684Z" fill="white"/>
<path d="M17.012 38.4524C17.1199 38.3321 17.2038 38.2017 17.3236 38.1115C17.7191 37.8007 18.3304 37.8307 18.6779 38.1717C19.0375 38.5126 18.9896 39.0239 18.5701 39.3047C18.1506 39.5955 17.5513 39.5453 17.2157 39.1944C17.1318 39.1142 17.0719 39.0239 17 38.9337C17.012 38.7733 17.012 38.6128 17.012 38.4524Z" fill="white"/>
<path d="M56.0482 24.7655C56.0482 26.3798 56.0482 27.934 56.0482 29.4982C56.0482 30.1198 55.5688 30.4708 54.8976 30.3705C54.4182 30.3003 54.1425 29.9795 54.1425 29.4881C54.1425 27.6231 54.1425 25.7581 54.1425 23.8831C54.1425 23.0709 54.3942 22.2989 54.8617 21.597C55.0774 21.2761 55.3411 20.9753 55.6167 20.6344C55.4729 20.6244 55.3411 20.6143 55.2092 20.6143C47.0352 20.6143 38.8493 20.6143 30.6753 20.6143C28.5059 20.6143 26.9119 21.597 26.3605 23.2915C26.2407 23.6425 26.2167 24.0235 26.2047 24.3945C26.1807 25.327 26.2047 26.2595 26.1927 27.192C26.1927 27.7735 25.8212 28.1345 25.2339 28.1245C24.6466 28.1245 24.2871 27.7635 24.2871 27.1719C24.2871 26.1091 24.2751 25.0362 24.2871 23.9733C24.323 21.3162 27.0437 19.01 30.2198 19.01C39.9639 19 49.708 19.0201 59.4401 19C61.0102 19 62.4484 19.2206 63.6949 20.0428C65.1211 20.9853 65.9122 22.2186 65.9961 23.7427C66.032 24.4747 65.6844 24.7655 64.8095 24.7655C62.0888 24.7655 59.3562 24.7655 56.6355 24.7655C56.4557 24.7655 56.2879 24.7655 56.0482 24.7655ZM63.8986 23.1511C63.623 21.7273 61.7413 20.5241 59.9794 20.6043C58.1217 20.6945 56.3119 21.9279 56.2759 23.1511C58.8049 23.1511 61.3338 23.1511 63.8986 23.1511Z" fill="white"/>
<path d="M36.2364 33.9901C39.8559 30.952 43.4276 27.964 47.0352 24.9459C46.9033 24.9358 46.7715 24.9258 46.6397 24.9258C45.561 24.9258 44.4703 24.9258 43.3916 24.9258C42.7564 24.9258 42.301 24.5749 42.301 24.1237C42.301 23.6624 42.7564 23.3315 43.4036 23.3315C45.3452 23.3315 47.2988 23.3315 49.2405 23.3315C49.9356 23.3315 50.3072 23.6424 50.3192 24.2239C50.3311 25.8483 50.3311 27.4827 50.3192 29.107C50.3192 29.6485 49.9236 30.0195 49.3603 30.0295C48.809 30.0395 48.4015 29.6685 48.4015 29.1271C48.3895 28.3149 48.4015 27.5027 48.4015 26.6805C48.4015 26.5502 48.4015 26.4198 48.4015 26.2995C48.3296 26.2494 48.2577 26.2093 48.1977 26.1591C48.1138 26.2895 48.0779 26.4499 47.958 26.5502C44.4104 29.5282 40.8627 32.4961 37.3031 35.4741C36.524 36.1259 36.1045 36.1259 35.3375 35.4841C33.4558 33.9099 31.5741 32.3357 29.6924 30.7615C29.5725 30.6612 29.4766 30.5309 29.3688 30.4105C29.2968 30.3805 29.2129 30.3604 29.141 30.3303C29.0571 30.4607 29.0092 30.6211 28.8893 30.7214C26.4803 32.7468 24.0712 34.7622 21.6502 36.7776C20.991 37.3291 20.4636 37.3993 20.0082 36.9982C19.5408 36.6072 19.6366 36.176 20.2958 35.6245C22.9686 33.3885 25.6413 31.1525 28.314 28.9165C29.0691 28.2848 29.4766 28.2848 30.2437 28.9266C32.1374 30.5108 34.0311 32.0951 35.9247 33.6793C36.0326 33.7695 36.1285 33.8899 36.2364 33.9901Z" fill="white"/>
<path d="M53.7592 37.0986C53.7592 35.7149 53.7592 34.3211 53.7592 32.9374C53.7592 32.2656 54.1188 31.9648 54.9338 31.9749C59.9916 32.0049 64.4502 35.003 65.6966 39.2444C65.8884 39.9061 65.9483 40.608 65.9963 41.2999C66.0442 41.9015 65.6487 42.2223 64.9296 42.2223C61.5617 42.2223 58.2058 42.2223 54.8379 42.2223C54.1188 42.2223 53.7592 41.9115 53.7592 41.3099C53.7472 39.8961 53.7592 38.5024 53.7592 37.0986ZM55.6889 40.598C58.4815 40.598 61.2261 40.598 63.9708 40.598C63.6831 37.0785 59.9676 33.9201 55.6889 33.6694C55.6889 35.9656 55.6889 38.2617 55.6889 40.598Z" fill="white"/>
<path d="M33.1084 44.9395C34.4148 44.9395 35.7212 44.9395 37.0276 44.9395C37.7228 44.9395 38.1543 45.2503 38.1543 45.7416C38.1543 46.2329 37.7228 46.5438 37.0276 46.5438C34.4028 46.5438 31.7661 46.5438 29.1413 46.5438C28.4461 46.5438 28.0146 46.2329 28.0146 45.7416C28.0146 45.2503 28.4461 44.9495 29.1413 44.9395C30.4716 44.9395 31.79 44.9395 33.1084 44.9395Z" fill="white"/>
<path d="M33.0842 50.3841C31.7778 50.3841 30.4714 50.3841 29.165 50.3841C28.4339 50.3841 28.0024 50.0733 28.0144 49.5619C28.0264 49.0706 28.4459 48.7798 29.165 48.7798C31.7778 48.7798 34.3906 48.7798 37.0034 48.7798C37.7345 48.7798 38.166 49.0906 38.154 49.602C38.142 50.0933 37.7225 50.3841 37.0034 50.3841C35.697 50.3841 34.3906 50.3841 33.0842 50.3841Z" fill="white"/>
<path d="M30.6392 41.0992C31.1666 41.0992 31.6939 41.0892 32.2093 41.0992C32.8205 41.1092 33.228 41.4401 33.2161 41.9114C33.2041 42.3626 32.8086 42.6834 32.2213 42.6935C31.1546 42.7035 30.0879 42.7035 29.0212 42.6935C28.4099 42.6834 28.0024 42.3425 28.0144 41.8813C28.0264 41.4301 28.4219 41.1092 29.0092 41.0992C29.5485 41.0892 30.0879 41.0992 30.6392 41.0992Z" fill="white"/>
<path d="M40.9586 50.384C40.4552 50.374 40.0237 50.013 40.0117 49.5919C40.0117 49.1607 40.4672 48.7797 40.9945 48.7897C41.4979 48.7998 41.9294 49.1607 41.9413 49.5819C41.9413 50.013 41.4859 50.384 40.9586 50.384Z" fill="white"/>
</g>
<defs>
<clipPath id="clip0_1373_80181">
<rect width="49" height="41" fill="white" transform="translate(17 19)"/>
</clipPath>
</defs>
</svg>
