<svg width="79" height="79" viewBox="0 0 79 79" fill="none" xmlns="http://www.w3.org/2000/svg">
<rect width="79" height="79" rx="39.5" fill="#CE6C39"/>
<path d="M39.1982 48.4553C39.1982 49.2132 39.2032 49.9521 39.1969 50.6923C39.1919 51.2607 38.9258 51.5336 38.3662 51.5374C37.4112 51.5437 36.4563 51.5449 35.5013 51.5374C34.9692 51.5336 34.6994 51.2569 34.6932 50.7176C34.6856 50.0089 34.6919 49.2991 34.6919 48.5513C31.1971 48.5513 27.7161 48.5513 24.1686 48.5513C24.1686 49.2233 24.1699 49.9104 24.1686 50.5963C24.1661 51.2885 23.9239 51.5361 23.2425 51.5374C22.334 51.5399 21.4267 51.5412 20.5182 51.5361C19.9259 51.5323 19.6649 51.2683 19.6611 50.6696C19.6561 49.9294 19.6599 49.1904 19.6599 48.4464C18.5054 48.0536 17.7349 47.3159 17.4689 46.1134C17.4224 45.9012 17.4099 45.6776 17.4086 45.459C17.4024 44.5294 17.4061 43.5997 17.4061 42.6687C17.4061 41.1201 18.0524 40.15 19.4679 39.5715C19.5256 39.5475 19.5808 39.5209 19.6461 39.4919C19.6511 39.3959 19.6523 39.3024 19.6611 39.2089C19.7364 38.4106 19.7063 37.7866 18.7564 37.3723C17.8252 36.9668 17.4199 35.9993 17.4086 34.9445C17.3986 33.9668 17.4061 32.9904 17.4061 32.0127C17.4074 30.5374 18.0674 29.5571 19.4403 28.9925C19.5105 28.9635 19.577 28.9281 19.6486 28.894C19.6486 28.3483 19.6486 27.814 19.6486 27.3302C19.232 27.0788 18.8116 26.8893 18.469 26.6064C17.7688 26.0291 17.4074 25.2611 17.4061 24.3365C17.4049 23.2957 17.3998 22.2561 17.4074 21.2152C17.4162 19.582 18.74 18.2531 20.3739 18.2519C26.4023 18.2481 32.4294 18.2481 38.4578 18.2519C40.1418 18.2531 41.4444 19.5807 41.4519 21.2872C41.4557 22.1386 41.4205 22.9912 41.4594 23.8401C41.5372 25.534 40.8207 26.6784 39.2157 27.2645C39.2157 27.7938 39.2157 28.3268 39.2157 28.8637C39.5495 29.0468 39.9109 29.1997 40.2196 29.4245C41.0139 30.0056 41.4381 30.8051 41.4494 31.8005C41.4619 32.7934 41.4531 33.7862 41.4519 34.779C41.4506 36.214 40.7705 37.2144 39.4303 37.7601C39.3588 37.7891 39.2898 37.8258 39.1982 37.8687C39.1982 37.9736 39.2057 38.0835 39.1969 38.1921C39.1316 38.9538 39.158 39.5487 40.0653 39.9517C41.0315 40.3811 41.4469 41.3626 41.4519 42.4553C41.4557 43.3218 41.4117 44.1908 41.4619 45.0548C41.5623 46.8384 40.6086 47.9803 39.1982 48.4553ZM29.4014 25.8157C32.3591 25.8157 35.3181 25.8182 38.2758 25.8144C39.3136 25.8131 39.941 25.1803 39.9486 24.1382C39.9548 23.2401 39.9548 22.342 39.9486 21.4439C39.941 20.3992 39.3174 19.7639 38.2808 19.7639C32.3805 19.7601 26.4801 19.7601 20.5797 19.7639C19.5419 19.7639 18.9145 20.398 18.9069 21.4388C18.9007 22.2902 18.9044 23.1403 18.9057 23.9917C18.9069 25.2283 19.4879 25.8157 20.7152 25.8157C23.6114 25.8169 26.5064 25.8157 29.4014 25.8157ZM29.4177 47.0001C32.3754 47.0001 35.3344 47.0039 38.2921 46.9976C39.3036 46.9963 39.9385 46.3622 39.9486 45.3542C39.9573 44.4409 39.9561 43.5264 39.9486 42.6132C39.941 41.5963 39.3136 40.9496 38.3122 40.9496C32.3955 40.9445 26.4801 40.9458 20.5634 40.9496C19.5344 40.9496 18.912 41.5925 18.9057 42.6409C18.9007 43.4923 18.9032 44.3424 18.9044 45.1938C18.9057 46.4001 19.4955 47.0014 20.6826 47.0014C23.5951 47.0014 26.5064 47.0001 29.4177 47.0001ZM29.4579 30.3542C26.5001 30.3542 23.5412 30.3517 20.5834 30.3555C19.5432 30.3567 18.9145 30.9883 18.9069 32.0279C18.9007 32.926 18.9019 33.8241 18.9069 34.7222C18.9132 35.7668 19.5381 36.406 20.5709 36.406C26.4713 36.4098 32.3717 36.4098 38.2721 36.406C39.3123 36.406 39.9398 35.7744 39.9486 34.7336C39.9548 33.8822 39.9511 33.0321 39.9498 32.1807C39.9486 30.9403 39.3688 30.3542 38.1441 30.3529C35.2478 30.3542 32.3528 30.3542 29.4579 30.3542ZM24.1887 39.4022C27.7036 39.4022 31.1821 39.4022 34.6518 39.4022C34.6518 38.8919 34.6518 38.4131 34.6518 37.9433C31.1469 37.9433 27.6785 37.9433 24.1887 37.9433C24.1887 38.4334 24.1887 38.9007 24.1887 39.4022ZM24.1874 28.8081C27.7073 28.8081 31.1858 28.8081 34.6668 28.8081C34.6668 28.3079 34.6668 27.8405 34.6668 27.3529C31.1657 27.3529 27.686 27.3529 24.1874 27.3529C24.1874 27.8443 24.1874 28.3117 24.1874 28.8081ZM22.6251 39.4249C22.6251 38.9336 22.6251 38.446 22.6251 37.9521C22.1357 37.9521 21.6614 37.9521 21.1958 37.9521C21.1958 38.4611 21.1958 38.9386 21.1958 39.4249C21.6827 39.4249 22.1345 39.4249 22.6251 39.4249ZM36.2141 39.4035C36.721 39.4035 37.1941 39.4035 37.6597 39.4035C37.6597 38.8944 37.6597 38.4169 37.6597 37.9445C37.1615 37.9445 36.6985 37.9445 36.2141 37.9445C36.2141 38.4321 36.2141 38.8982 36.2141 39.4035ZM21.1808 49.9925C21.694 49.9925 22.1683 49.9925 22.6264 49.9925C22.6264 49.4797 22.6264 49.0035 22.6264 48.5386C22.1257 48.5386 21.6626 48.5386 21.1808 48.5386C21.1808 49.03 21.1808 49.4961 21.1808 49.9925ZM37.6785 48.5487C37.1577 48.5487 36.6834 48.5487 36.2166 48.5487C36.2166 49.0515 36.2166 49.5176 36.2166 49.9988C36.7148 49.9988 37.1879 49.9988 37.6785 49.9988C37.6785 49.5049 37.6785 49.0388 37.6785 48.5487ZM37.671 28.8207C37.671 28.3003 37.671 27.8342 37.671 27.3567C37.1715 27.3567 36.6985 27.3567 36.2241 27.3567C36.2241 27.8632 36.2241 28.3407 36.2241 28.8207C36.7198 28.8207 37.1828 28.8207 37.671 28.8207ZM21.1795 28.8182C21.6953 28.8182 22.1583 28.8182 22.6364 28.8182C22.6364 28.3167 22.6364 27.8405 22.6364 27.3605C22.1345 27.3605 21.6601 27.3605 21.1795 27.3605C21.1795 27.8582 21.1795 28.323 21.1795 28.8182Z" fill="white"/>
<path d="M45.2116 24.2923C44.4311 24.2923 43.7171 24.2923 42.9805 24.2923C42.9805 23.7908 42.9805 23.3247 42.9805 22.8232C44.9581 22.8232 46.9346 22.8232 48.9398 22.8232C48.9398 23.2906 48.9398 23.758 48.9398 24.2771C48.2296 24.2771 47.503 24.2771 46.7451 24.2771C46.7451 29.5976 46.7451 34.8662 46.7451 40.1714C47.4616 40.1714 48.1756 40.1714 48.9285 40.1714C48.9285 40.683 48.9285 41.1605 48.9285 41.691C48.217 41.691 47.4905 41.691 46.7388 41.691C46.7388 47.2527 46.7388 52.7626 46.7388 58.3243C47.4503 58.3243 48.1769 58.3243 48.9348 58.3243C48.9348 58.8535 48.9348 59.331 48.9348 59.8565C47.9021 59.8565 46.8731 59.8754 45.8466 59.8464C45.4814 59.8363 45.2643 59.566 45.2166 59.1946C45.1966 59.0392 45.2104 58.8801 45.2104 58.7222C45.2104 47.47 45.2104 36.219 45.2104 24.9668C45.2116 24.7647 45.2116 24.5626 45.2116 24.2923Z" fill="white"/>
<path d="M56.4825 18.2495C57.5002 18.2495 58.5179 18.2444 59.5356 18.2507C61.1657 18.2608 62.4858 19.5859 62.4933 21.2267C62.5008 22.7716 62.5008 24.3164 62.4933 25.86C62.4858 27.5008 61.1657 28.8322 59.5368 28.8385C57.5014 28.8461 55.4661 28.8461 53.4307 28.8385C51.8018 28.8322 50.4805 27.4996 50.4729 25.8613C50.4654 24.3164 50.4654 22.7716 50.4729 21.228C50.4805 19.5884 51.8006 18.2596 53.4294 18.2507C54.4471 18.2444 55.4648 18.2495 56.4825 18.2495ZM56.5101 27.329C57.4651 27.329 58.42 27.3366 59.375 27.3265C60.3525 27.3164 60.9762 26.6773 60.9925 25.6895C60.9988 25.3118 60.995 24.9328 60.9937 24.5552C60.99 23.3905 60.3876 22.7943 59.2206 22.7867C58.5944 22.7829 57.9582 22.841 57.3458 22.7438C56.1826 22.5568 55.461 21.7901 54.9779 20.7379C54.619 19.956 53.9238 19.6263 53.1809 19.8082C52.413 19.9964 51.9775 20.5775 51.975 21.4415C51.97 22.8436 51.9687 24.2469 51.975 25.649C51.9788 26.6924 52.6062 27.3215 53.6452 27.3278C54.6002 27.3341 55.5551 27.329 56.5101 27.329ZM60.9712 21.6575C61.0326 20.4322 60.414 19.7678 59.2808 19.7627C58.7036 19.7602 58.1251 19.7627 57.5479 19.7627C57.1237 19.7627 56.6996 19.7627 56.2491 19.7627C56.736 21.0107 57.1162 21.2709 58.3359 21.2785C59.2169 21.2836 60.1191 21.1573 60.9712 21.6575Z" fill="white"/>
<path d="M56.5303 35.6483C57.5794 35.6483 58.6285 35.6256 59.6763 35.6533C61.2085 35.6938 62.4809 37.0213 62.4922 38.57C62.5035 40.1464 62.5035 41.7216 62.4922 43.298C62.4809 44.8554 61.1758 46.2121 59.6298 46.231C57.533 46.2563 55.4336 46.2563 53.3367 46.231C51.7907 46.2121 50.4844 44.8542 50.4743 43.298C50.4643 41.7216 50.4643 40.1464 50.4743 38.57C50.4844 37.0239 51.7606 35.7089 53.2902 35.647C53.3681 35.6432 53.4471 35.6382 53.5249 35.6382C54.5263 35.6382 55.5289 35.6382 56.5303 35.6382C56.5303 35.6432 56.5303 35.6458 56.5303 35.6483ZM56.4613 44.7178C57.4163 44.7178 58.3712 44.7178 59.3262 44.7178C59.3412 44.7178 59.3575 44.7178 59.3726 44.7178C60.3577 44.6912 60.9763 44.0698 60.9926 43.082C61.0002 42.6411 61.0039 42.199 60.9914 41.7582C60.9663 40.8234 60.3338 40.1994 59.4102 40.1881C59.035 40.183 58.6586 40.1704 58.2834 40.1906C56.7286 40.2714 55.6557 39.5906 55.0019 38.1721C54.6254 37.3548 53.9428 37.0138 53.1836 37.1906C52.4181 37.3687 51.9777 37.9776 51.9764 38.8757C51.9739 40.2462 51.9726 41.618 51.9764 42.9885C51.9789 44.0988 52.5863 44.7102 53.6918 44.7165C54.6141 44.7215 55.5377 44.7178 56.4613 44.7178ZM56.2869 37.1679C56.5843 38.2453 57.1151 38.6521 58.1692 38.6672C59.1116 38.6799 60.0741 38.5346 60.965 39.031C61.0428 38.0091 60.5221 37.226 59.6625 37.1818C58.5419 37.1262 57.4175 37.1679 56.2869 37.1679Z" fill="white"/>
<path d="M56.4989 53.0434C57.5793 53.0421 58.661 53.0017 59.7389 53.0522C61.2686 53.1242 62.4846 54.4404 62.4934 55.9777C62.5034 57.5225 62.4996 59.0661 62.4946 60.611C62.4884 62.2569 61.2009 63.6097 59.5683 63.6299C57.5178 63.6565 55.4661 63.6539 53.4156 63.6312C51.7818 63.6122 50.4805 62.2644 50.473 60.6274C50.4667 59.0825 50.4654 57.5377 50.473 55.9941C50.4805 54.4518 51.6889 53.1255 53.2111 53.0535C54.3053 53.0029 55.4033 53.0446 56.4989 53.0434ZM56.4461 62.1002C57.4325 62.1002 58.4188 62.1141 59.4039 62.0964C60.2986 62.08 60.9198 61.5268 60.98 60.6754C61.0189 60.1272 61.0164 59.5714 60.9825 59.0219C60.9311 58.1844 60.2986 57.6021 59.4704 57.5882C59.0952 57.5819 58.7187 57.5693 58.3435 57.5895C56.7574 57.6728 55.6506 56.9958 54.9855 55.5356C54.6191 54.7322 53.9213 54.4025 53.1496 54.5869C52.423 54.7613 51.9763 55.3878 51.9738 56.2518C51.9713 57.6223 51.9713 58.9929 51.9738 60.3634C51.9763 61.4863 52.5673 62.0914 53.6754 62.099C54.599 62.1053 55.5226 62.1002 56.4461 62.1002ZM60.9574 56.4299C61.0666 55.2678 60.4391 54.5642 59.3411 54.5604C58.6234 54.5579 57.9056 54.5604 57.1878 54.5592C56.8879 54.5592 56.5867 54.5592 56.2617 54.5592C56.7222 55.7794 57.1037 56.0396 58.3059 56.0497C59.1906 56.0573 60.0915 55.9436 60.9574 56.4299Z" fill="white"/>
<path d="M38.4215 22.0123C36.9307 22.0123 35.4675 22.0123 33.9717 22.0123C33.9717 21.5311 33.9717 21.0536 33.9717 20.5483C35.4487 20.5483 36.9219 20.5483 38.4215 20.5483C38.4215 21.0271 38.4215 21.4932 38.4215 22.0123Z" fill="white"/>
<path d="M38.4228 25.0401C36.927 25.0401 35.4638 25.0401 33.9692 25.0401C33.9692 24.5525 33.9692 24.0763 33.9692 23.5723C35.4512 23.5723 36.9257 23.5723 38.4228 23.5723C38.4228 24.0561 38.4228 24.5222 38.4228 25.0401Z" fill="white"/>
<path d="M25.6683 22.783C25.6708 23.2238 25.3383 23.5535 24.8991 23.5434C24.4812 23.5345 24.17 23.215 24.1675 22.7931C24.165 22.3497 24.495 22.0238 24.9355 22.0339C25.3559 22.0428 25.6671 22.3611 25.6683 22.783Z" fill="white"/>
<path d="M23.4144 22.8109C23.4031 23.2492 23.058 23.5675 22.6188 23.5448C22.2035 23.5233 21.9036 23.1924 21.9149 22.768C21.9262 22.3284 22.2675 22.0126 22.7092 22.0353C23.1246 22.0555 23.4245 22.3865 23.4144 22.8109Z" fill="white"/>
<path d="M21.1596 22.8055C21.1509 23.2438 20.807 23.5634 20.3678 23.5432C19.9512 23.523 19.6513 23.1946 19.6588 22.7702C19.6676 22.3306 20.0089 22.0123 20.4494 22.0337C20.866 22.0527 21.1684 22.3824 21.1596 22.8055Z" fill="white"/>
<path d="M38.409 43.1996C36.922 43.1996 35.4588 43.1996 33.9668 43.1996C33.9668 42.7057 33.9668 42.2295 33.9668 41.728C35.445 41.728 36.9082 41.728 38.409 41.728C38.409 42.1979 38.409 42.6754 38.409 43.1996Z" fill="white"/>
<path d="M33.9478 46.2133C33.9478 45.7169 33.9478 45.2622 33.9478 44.7695C35.4272 44.7695 36.9017 44.7695 38.4113 44.7695C38.4113 45.2293 38.4113 45.7055 38.4113 46.2133C36.9394 46.2133 35.4661 46.2133 33.9478 46.2133Z" fill="white"/>
<path d="M20.4143 44.729C19.9939 44.7315 19.6726 44.4221 19.6601 44.0014C19.6463 43.5568 19.9663 43.2208 20.4055 43.2183C20.8447 43.2157 21.1697 43.5492 21.1609 43.9913C21.1509 44.412 20.8334 44.7265 20.4143 44.729Z" fill="white"/>
<path d="M22.6802 44.7292C22.2586 44.738 21.9323 44.4336 21.9135 44.0142C21.8934 43.5696 22.2084 43.2273 22.6464 43.2184C23.0868 43.2096 23.4168 43.5368 23.4143 43.9801C23.4106 44.402 23.0981 44.7203 22.6802 44.7292Z" fill="white"/>
<path d="M25.668 43.9774C25.6655 44.4169 25.3292 44.7428 24.89 44.7289C24.4734 44.715 24.166 44.3929 24.1685 43.9685C24.171 43.5264 24.5048 43.2043 24.9465 43.2182C25.3644 43.2321 25.6705 43.5542 25.668 43.9774Z" fill="white"/>
<path d="M38.4199 32.6026C36.9341 32.6026 35.471 32.6026 33.9727 32.6026C33.9727 32.1264 33.9727 31.6489 33.9727 31.1411C35.4446 31.1411 36.9191 31.1411 38.4199 31.1411C38.4199 31.6161 38.4199 32.0822 38.4199 32.6026Z" fill="white"/>
<path d="M38.4275 34.1743C38.4275 34.6644 38.4275 35.1293 38.4275 35.6232C36.9355 35.6232 35.461 35.6232 33.9614 35.6232C33.9614 35.1432 33.9614 34.6771 33.9614 34.1743C35.4309 34.1743 36.9053 34.1743 38.4275 34.1743Z" fill="white"/>
<path d="M21.9138 33.344C21.9313 32.9234 22.2538 32.6202 22.6767 32.6266C23.1134 32.6329 23.4322 32.9752 23.4146 33.4186C23.397 33.8367 23.0708 34.1436 22.6504 34.1373C22.2137 34.1297 21.8962 33.7874 21.9138 33.344Z" fill="white"/>
<path d="M21.1596 33.3921C21.1533 33.8317 20.8132 34.1538 20.374 34.1361C19.9574 34.1197 19.6537 33.7926 19.6588 33.3694C19.665 32.9286 20.0026 32.609 20.443 32.6267C20.8609 32.6431 21.1659 32.9677 21.1596 33.3921Z" fill="white"/>
<path d="M25.6683 33.4011C25.6582 33.8394 25.3144 34.159 24.8752 34.1363C24.4598 34.1161 24.1587 33.7864 24.1687 33.3607C24.1787 32.9211 24.5201 32.6041 24.9618 32.6255C25.3771 32.647 25.6783 32.9767 25.6683 33.4011Z" fill="white"/>
</svg>
