<svg width="79" height="79" viewBox="0 0 79 79" fill="none" xmlns="http://www.w3.org/2000/svg">
<rect width="79" height="79" rx="39.5" fill="#CE6C39"/>
<path d="M59.6494 15.7192C60.0101 16.0356 60.105 16.4288 60.105 16.8986C60.0955 22.9973 60.0956 29.1055 60.0956 35.2041C60.0956 36.163 59.8772 36.3836 58.9469 36.3836C52.0928 36.3836 45.2387 36.3836 38.3847 36.374C38.0429 36.374 37.8531 36.4603 37.6727 36.7767C36.9797 37.9849 35.4608 38.3877 34.2362 37.726C33.2299 37.1795 32.2236 36.6137 31.2173 36.0575C31.056 35.9712 30.8946 35.8849 30.6478 35.7603C30.6478 36 30.6478 36.163 30.6478 36.3164C30.6383 37.8507 30.6383 39.3753 30.6288 40.9096C30.6288 41.5616 30.3535 41.8493 29.7174 41.8493C27.0973 41.8493 24.4867 41.8493 21.8666 41.8493C21.2305 41.8493 20.9552 41.5616 20.9362 40.9096C20.9268 40.6027 20.9362 40.2959 20.9362 39.9986C20.6704 39.9986 20.4521 39.9986 20.2243 39.9986C19.1515 39.9795 18.1642 39.1068 18.1547 38.0329C18.1358 36.163 18.1168 34.2932 18.2687 32.4329C18.4016 30.7644 19.1041 29.2493 20.1008 27.9069C20.8508 26.9 21.933 26.4685 23.1387 26.4206C24.8664 26.363 26.5942 26.3534 28.3219 26.411C29.5086 26.4493 30.4674 27.0534 31.2363 27.974C31.3218 28.0699 31.3977 28.1754 31.5591 28.3671C31.5591 28.089 31.5591 27.926 31.5591 27.763C31.5591 24.1192 31.5686 20.4658 31.5496 16.8219C31.5496 16.3617 31.6445 15.9781 32.0148 15.6904C41.2231 15.7192 50.441 15.7192 59.6494 15.7192ZM36.0114 32.6918C37.5208 30.4288 39.0112 28.2041 40.5206 25.9411C40.9668 26.248 41.3655 26.5164 41.7927 26.8041C40.2833 29.0767 38.7929 31.3014 37.3404 33.4877C37.5967 33.9575 37.8246 34.3795 38.0619 34.811C44.8685 34.811 51.6846 34.811 58.5102 34.811C58.5102 28.9617 58.5102 23.1315 58.5102 17.311C50.0328 17.311 41.5934 17.311 33.1445 17.311C33.1255 17.3781 33.1065 17.4165 33.1065 17.4644C33.1065 21.8849 33.097 26.3055 33.116 30.726C33.116 30.9082 33.2774 31.1767 33.4387 31.2726C34.2646 31.7521 35.119 32.1932 36.0114 32.6918ZM29.1288 40.2767C29.1288 38.1863 29.1288 36.1438 29.1288 34.111C29.1288 33.7753 29.1099 33.4301 29.1668 33.0945C29.2333 32.6918 29.5181 32.4904 29.9263 32.5096C30.3155 32.5192 30.5623 32.7301 30.6288 33.1041C30.6667 33.3151 30.6288 33.5356 30.6667 33.7466C30.6857 33.8616 30.7522 34.0247 30.8376 34.0822C32.2426 34.8685 33.6381 35.6644 35.0621 36.4123C35.6981 36.7479 36.4766 36.2301 36.5145 35.5014C36.543 34.9548 36.2582 34.6 35.8025 34.3507C34.7298 33.7562 33.6476 33.1808 32.5939 32.5671C32.3375 32.4233 32.1002 32.1932 31.9388 31.9534C31.3597 31.0712 30.8186 30.1507 30.2395 29.2589C29.7364 28.4726 29.0244 27.9836 28.0846 27.974C26.5372 27.9452 24.9898 27.9452 23.4519 27.974C22.3982 27.9932 21.5438 28.3959 20.9837 29.374C20.2243 30.6973 19.7306 32.0781 19.6926 33.6123C19.6642 34.9548 19.6642 36.2973 19.6642 37.6397C19.6642 38.0041 19.7401 38.3301 20.1388 38.4356C20.5945 38.5507 20.9268 38.2534 20.9268 37.6877C20.9362 36.1438 20.9268 34.6 20.9362 33.0562C20.9362 32.8548 20.9457 32.6438 21.0027 32.4617C21.1261 32.0973 21.4014 31.9151 21.7811 31.9534C22.1609 31.9918 22.3982 32.2123 22.4552 32.5959C22.4836 32.7589 22.4741 32.9315 22.4741 33.1041C22.4741 35.3288 22.4741 37.5534 22.4741 39.7781C22.4741 39.9411 22.4741 40.1041 22.4741 40.2767C24.705 40.2767 26.8695 40.2767 29.1288 40.2767Z" fill="white"/>
<path d="M55.2538 63.1466C53.2602 63.1466 51.2762 63.1466 49.2826 63.1466C48.4093 63.1466 48.1719 62.8973 48.1814 62.0056C48.2004 60.596 48.2004 59.196 48.2669 57.7864C48.3618 55.8782 49.3586 54.4878 50.8965 53.4713C53.8203 51.5344 57.703 51.7645 60.3801 54.0275C61.6332 55.0919 62.2882 56.4535 62.2977 58.1124C62.3072 59.5028 62.3072 60.8932 62.2977 62.2836C62.2977 62.9069 61.9844 63.1946 61.3959 63.1946C59.3453 63.185 57.2948 63.1946 55.2443 63.1946C55.2538 63.1754 55.2538 63.1658 55.2538 63.1466ZM60.7313 61.574C60.7408 61.4206 60.7598 61.2864 60.7598 61.1521C60.7598 60.1357 60.7598 59.1097 60.7598 58.0932C60.7598 57.0864 60.4181 56.2138 59.7061 55.5138C57.3043 53.1741 53.5735 53.107 51.0483 55.3316C50.3174 55.9741 49.8712 56.7987 49.8332 57.7864C49.7858 58.9467 49.7763 60.0973 49.7478 61.2576C49.7478 61.3631 49.7668 61.459 49.7858 61.5645C53.4406 61.574 57.067 61.574 60.7313 61.574Z" fill="white"/>
<path d="M32.48 59.915C32.5464 58.9081 32.5085 57.8533 32.7173 56.856C33.1065 54.9958 34.3786 53.7875 36.0209 53.0204C39.0872 51.5725 41.9921 51.9177 44.6597 54.0273C45.9602 55.0629 46.5868 56.4725 46.5963 58.1506C46.6058 59.5218 46.6058 60.9026 46.5963 62.2739C46.5963 62.8972 46.2925 63.204 45.7134 63.204C43.5395 63.1848 41.3656 63.1657 39.2011 63.1561C37.331 63.1465 35.4703 63.1561 33.6002 63.1561C32.7173 63.1561 32.48 62.9068 32.48 62.0341C32.4895 61.3341 32.48 60.6341 32.48 59.915ZM45.0489 61.5739C45.0489 60.3848 45.0489 59.2437 45.0489 58.093C45.0489 57.0862 44.7072 56.2136 43.9952 55.5136C41.5934 53.1642 37.8151 53.0971 35.2994 55.3506C34.4925 56.0793 34.0938 56.9903 34.0938 58.093C34.0938 59.0999 34.0464 60.0971 34.0274 61.104C34.0274 61.2478 34.0369 61.4013 34.0463 61.5643C37.7297 61.5739 41.3561 61.5739 45.0489 61.5739Z" fill="white"/>
<path d="M23.841 63.1466C21.8474 63.1466 19.8634 63.1466 17.8698 63.1466C17.0154 63.1466 16.7686 62.8972 16.7781 62.0534C16.7971 60.5863 16.7876 59.1192 16.873 57.6521C16.9774 55.8397 17.9552 54.5165 19.4172 53.5288C22.3506 51.5439 26.3092 51.7548 28.9768 54.037C30.2394 55.1206 30.8849 56.5014 30.8944 58.1699C30.9039 59.5411 30.9039 60.9219 30.8944 62.2931C30.8944 62.8972 30.5811 63.1945 30.0305 63.1945C27.961 63.1945 25.901 63.1945 23.8315 63.1945C23.841 63.1753 23.841 63.1657 23.841 63.1466ZM18.4299 61.5644C22.0373 61.5644 25.6827 61.5644 29.3565 61.5644C29.3565 60.4233 29.3565 59.311 29.3565 58.1986C29.3565 56.9425 28.8724 55.9165 27.8946 55.1493C25.4738 53.2507 22.4075 53.2411 19.9488 55.0534C19.1324 55.6576 18.5153 56.463 18.4489 57.4986C18.3635 58.8411 18.4299 60.1836 18.4299 61.5644Z" fill="white"/>
<path d="M29.926 21.2715C29.9355 23.6591 27.9894 25.6345 25.6541 25.6153C23.3188 25.5961 21.4202 23.6591 21.4107 21.2906C21.4012 18.9126 23.3568 16.9372 25.6921 16.9468C28.0179 16.9564 29.9166 18.903 29.926 21.2715ZM28.3976 21.2715C28.3882 19.7468 27.1351 18.4906 25.6446 18.5002C24.1542 18.5194 22.9011 19.8139 22.9391 21.3098C22.9676 22.8153 24.2017 24.0523 25.6731 24.0523C27.1635 24.0619 28.4071 22.7769 28.3976 21.2715Z" fill="white"/>
<path d="M39.5046 50.9779C37.3497 50.9491 35.5934 49.156 35.6219 46.9984C35.6504 44.7642 37.4351 43.0478 39.6945 43.0765C41.7355 43.1053 43.4633 44.9176 43.4633 47.0272C43.4633 49.2135 41.6691 50.9971 39.5046 50.9779ZM39.5616 49.4245C40.8621 49.4149 41.9254 48.3313 41.9254 47.0272C41.9349 45.7039 40.8527 44.6204 39.5236 44.63C38.223 44.6395 37.1598 45.7135 37.1598 47.0176C37.1503 48.3409 38.2515 49.4341 39.5616 49.4245Z" fill="white"/>
<path d="M55.2063 50.9779C53.0514 50.9491 51.2952 49.1464 51.3331 46.9984C51.3711 44.7546 53.1368 43.0478 55.4057 43.0765C57.4372 43.0957 59.1744 44.9176 59.1649 47.0272C59.1649 49.2135 57.3707 50.9971 55.2063 50.9779ZM55.2633 44.63C53.9437 44.6204 52.8615 45.7039 52.8615 47.0272C52.8615 48.3409 53.9247 49.4149 55.2253 49.4245C56.5353 49.4341 57.6271 48.3409 57.6271 47.0176C57.6271 45.7039 56.5638 44.6395 55.2633 44.63Z" fill="white"/>
<path d="M23.7937 50.9781C21.6388 50.9493 19.8826 49.1466 19.9205 46.9986C19.949 44.7644 21.7337 43.0575 23.9931 43.0863C26.0341 43.0959 27.7619 44.9178 27.7524 47.0274C27.7429 49.2233 25.9582 51.0068 23.7937 50.9781ZM23.8412 44.6301C22.5216 44.6301 21.4394 45.7137 21.4489 47.037C21.4584 48.3507 22.5216 49.4151 23.8222 49.4247C25.1323 49.4342 26.224 48.3315 26.2145 47.0082C26.205 45.6945 25.1418 44.6301 23.8412 44.6301Z" fill="white"/>
<path d="M54.6558 19.7275C55.1589 19.7275 55.6336 19.7275 56.1272 19.7275C56.1272 24.1289 56.1272 28.5015 56.1272 32.9221C55.6525 32.9221 55.1779 32.9221 54.6558 32.9221C54.6558 28.5495 54.6558 24.1577 54.6558 19.7275Z" fill="white"/>
<path d="M44.6025 25.1548C45.1057 25.1548 45.5804 25.1548 46.0645 25.1548C46.0645 27.7534 46.0645 30.3329 46.0645 32.9315C45.5804 32.9315 45.1057 32.9315 44.6025 32.9315C44.6025 30.3521 44.6025 27.7726 44.6025 25.1548Z" fill="white"/>
<path d="M52.0738 32.9412C51.5611 32.9412 51.0864 32.9412 50.5928 32.9412C50.5928 30.5151 50.5928 28.0987 50.5928 25.6631C51.0864 25.6631 51.5611 25.6631 52.0738 25.6631C52.0738 28.0795 52.0738 30.496 52.0738 32.9412Z" fill="white"/>
<path d="M49.1404 27.9741C49.1404 29.6426 49.1404 31.2728 49.1404 32.9317C48.6372 32.9317 48.1626 32.9317 47.6499 32.9317C47.6499 31.2823 47.6499 29.6426 47.6499 27.9741C48.1341 27.9741 48.6182 27.9741 49.1404 27.9741Z" fill="white"/>
</svg>
