<svg width="51" height="51" viewBox="0 0 51 51" fill="none" xmlns="http://www.w3.org/2000/svg">
<rect width="51" height="51" rx="25.5" fill="#CE6C39"/>
<path d="M19.8454 32.3219H24.4207C24.702 32.3219 24.9301 32.0938 24.9301 31.8125C24.9301 31.5311 24.702 31.303 24.4207 31.303H23.2368V30.4404C23.2368 30.159 23.0087 29.9309 22.7273 29.9309C22.4459 29.9309 22.2178 30.159 22.2178 30.4404V31.303H20.3549V28.7935C20.3549 27.5609 21.3575 26.5579 22.5899 26.5579H28.6291C29.8614 26.5579 30.864 27.5609 30.864 28.7935V31.303H29.0011V30.4404C29.0011 30.159 28.773 29.9309 28.4916 29.9309C28.2103 29.9309 27.9821 30.159 27.9821 30.4404V31.303H26.7983C26.5169 31.303 26.2888 31.5311 26.2888 31.8125C26.2888 32.0938 26.5169 32.3219 26.7983 32.3219H31.3735C31.6549 32.3219 31.883 32.0938 31.883 31.8125V28.7935C31.883 26.9989 30.4233 25.5389 28.6291 25.5389H28.2509C29.0483 24.8173 29.5501 23.7749 29.5501 22.6174C29.5501 20.4445 27.7823 18.6768 25.6095 18.6768C23.4366 18.6768 21.6689 20.4445 21.6689 22.6174C21.6689 23.7749 22.1707 24.8173 22.968 25.5389H22.5899C20.7957 25.5389 19.3359 26.9989 19.3359 28.7935V31.8125C19.3359 32.0938 19.5641 32.3219 19.8454 32.3219ZM22.6878 22.6174C22.6878 21.0064 23.9985 19.6957 25.6095 19.6957C27.2205 19.6957 28.5311 21.0064 28.5311 22.6174C28.5311 24.2271 27.2226 25.5367 25.6133 25.5389H25.6055C23.9964 25.5368 22.6878 24.2271 22.6878 22.6174Z" fill="white"/>
<path d="M42.4905 23.8925H40.8576C40.4953 20.4132 38.9421 17.1496 36.4509 14.6584C36.3916 14.5991 36.3315 14.5398 36.2708 14.482C36.067 14.2879 35.7445 14.2958 35.5504 14.4995C35.3564 14.7033 35.3642 15.0258 35.568 15.2199C35.6228 15.2721 35.6768 15.3255 35.7303 15.379C38.0308 17.6795 39.4746 20.6849 39.8328 23.8925H38.6466C38.2918 20.9981 36.9717 18.2857 34.8974 16.2113C32.8232 14.1369 30.1109 12.8168 27.2168 12.4621V11.2761C29.5848 11.5398 31.8489 12.391 33.7956 13.7547C33.8846 13.817 33.9866 13.8469 34.0875 13.8469C34.248 13.8469 34.4061 13.7712 34.5052 13.6297C34.6667 13.3993 34.6107 13.0816 34.3803 12.9201C32.2627 11.4367 29.7952 10.5189 27.2168 10.2511V8.61887C27.2168 8.33749 26.9887 8.10938 26.7073 8.10938H24.5114C24.23 8.10938 24.0019 8.33749 24.0019 8.61887V10.2518C20.5225 10.614 17.259 12.1673 14.7678 14.6585C12.2766 17.1497 10.7233 20.4132 10.3611 23.8926H8.72824C8.44687 23.8926 8.21875 24.1207 8.21875 24.4021V26.598C8.21875 26.8794 8.44687 27.1075 8.72824 27.1075H10.3612C10.7234 30.5868 12.2767 33.8504 14.7679 36.3416C17.2591 38.8328 20.5225 40.386 24.002 40.7483V42.3811C24.002 42.6625 24.2301 42.8906 24.5115 42.8906H26.7074C26.9887 42.8906 27.2169 42.6625 27.2169 42.3811V40.7482C30.6962 40.386 33.9597 38.8327 36.4509 36.3415C38.9421 33.8503 40.4954 30.5868 40.8576 27.1074H42.4905C42.7719 27.1074 43 26.8793 43 26.5979V24.402C43 24.1206 42.7719 23.8925 42.4905 23.8925ZM26.1979 9.12836V14.9716H25.0209V9.12836H26.1979ZM15.4884 15.379C17.7889 13.0785 20.7943 11.6347 24.0019 11.2765V12.4627C21.1075 12.8175 18.3951 14.1376 16.3207 16.2118C14.2463 18.2861 12.9262 20.9983 12.5714 23.8925H11.3859C11.7441 20.6849 13.1879 17.6795 15.4884 15.379ZM9.23773 24.9115H15.081V26.0884H9.23773V24.9115ZM15.4884 35.621C13.1879 33.3205 11.7441 30.3151 11.3859 27.1075H12.5714C12.8599 29.4677 13.781 31.6957 15.2503 33.5769C15.3508 33.7056 15.5007 33.7728 15.6522 33.7728C15.7619 33.7728 15.8723 33.7376 15.9655 33.6648C16.1872 33.4916 16.2266 33.1714 16.0534 32.9497C14.7241 31.2477 13.8818 29.2381 13.599 27.1075H15.5905C15.8718 27.1075 16.1 26.8794 16.1 26.5981V24.4021C16.1 24.1208 15.8718 23.8927 15.5905 23.8927H13.5976C14.3136 18.4628 18.5717 14.2049 24.0019 13.4891V15.4812C24.0019 15.7626 24.23 15.9907 24.5114 15.9907H26.7073C26.9887 15.9907 27.2168 15.7626 27.2168 15.4812V13.4882C32.6466 14.2042 36.9045 18.4624 37.6204 23.8925H35.6282C35.3468 23.8925 35.1187 24.1206 35.1187 24.402V26.5979C35.1187 26.8793 35.3468 27.1074 35.6282 27.1074H37.6204C36.9045 32.5376 32.6466 36.7958 27.2168 37.5117V35.5188C27.2168 35.2375 26.9887 35.0093 26.7073 35.0093H24.5114C24.23 35.0093 24.0019 35.2375 24.0019 35.5188V37.5114C21.6284 37.1988 19.4305 36.2011 17.6159 34.606C17.4045 34.4203 17.0825 34.441 16.8968 34.6524C16.7111 34.8637 16.7318 35.1856 16.9431 35.3714C18.9447 37.1308 21.3767 38.22 24.0019 38.5386V39.7234C20.7943 39.3653 17.7889 37.9215 15.4884 35.621ZM25.0209 41.8716V36.0284H26.1978V41.8716H25.0209ZM35.7304 35.621C33.4299 37.9215 30.4245 39.3653 27.2169 39.7235V38.5379C30.111 38.1831 32.8232 36.863 34.8975 34.7887C36.9717 32.7143 38.2918 30.0019 38.6466 27.1075H39.8329C39.4747 30.3151 38.0308 33.3205 35.7304 35.621ZM41.981 26.0885H36.1378V24.9116H41.981V26.0885Z" fill="white"/>
</svg>
