<svg width="51" height="51" viewBox="0 0 51 51" fill="none" xmlns="http://www.w3.org/2000/svg">
<rect width="51" height="51" rx="25.5" fill="#CE6C39"/>
<path d="M21.2773 17.5554C21.3853 17.6634 21.5318 17.724 21.6846 17.724C21.8373 17.724 21.9838 17.6634 22.0919 17.5554L24.0379 15.6093C24.3595 15.2875 24.5472 14.8556 24.5631 14.4008C24.5789 13.9461 24.4217 13.5022 24.1231 13.1587C23.8246 12.8153 23.407 12.5978 22.9544 12.5502C22.5019 12.5025 22.0481 12.6282 21.6846 12.9019C21.321 12.6281 20.8672 12.5023 20.4146 12.5499C19.962 12.5975 19.5442 12.815 19.2457 13.1585C18.9471 13.502 18.7899 13.9459 18.8058 14.4008C18.8217 14.8556 19.0094 15.2875 19.3312 15.6093L21.2773 17.5554ZM20.6025 13.6922C20.6873 13.692 20.7714 13.7086 20.8498 13.7411C20.9282 13.7736 20.9993 13.8213 21.0592 13.8814L21.2773 14.0995C21.3853 14.2075 21.5318 14.2682 21.6846 14.2682C21.8373 14.2682 21.9838 14.2075 22.0919 14.0995L22.31 13.8814C22.3699 13.8215 22.4411 13.7739 22.5195 13.7414C22.5978 13.709 22.6818 13.6923 22.7666 13.6923C22.8514 13.6923 22.9354 13.709 23.0137 13.7414C23.0921 13.7739 23.1633 13.8215 23.2233 13.8814C23.2832 13.9414 23.3308 14.0126 23.3633 14.0909C23.3957 14.1693 23.4124 14.2533 23.4124 14.3381C23.4124 14.4229 23.3957 14.5069 23.3633 14.5852C23.3308 14.6636 23.2832 14.7348 23.2233 14.7947L21.6846 16.3335L20.1458 14.7947C20.0555 14.7044 19.994 14.5894 19.969 14.4641C19.9441 14.3388 19.9569 14.2089 20.0058 14.0909C20.0547 13.9729 20.1374 13.872 20.2437 13.801C20.3499 13.7301 20.4748 13.6922 20.6025 13.6922Z" fill="white"/>
<path d="M42.4198 21.1309H24.5647C24.412 21.1309 24.2655 21.1916 24.1574 21.2996C24.0494 21.4076 23.9887 21.5541 23.9887 21.7068V31.5973L21.6474 28.9958C21.3771 28.696 21.047 28.4562 20.6783 28.292C20.3095 28.1278 19.9104 28.0428 19.5068 28.0425H18.7318C18.7803 27.8544 18.8048 27.6608 18.8047 27.4665V25.5325C19.1763 25.1127 19.3813 24.5713 19.381 24.0107V23.4347C19.381 23.282 19.3203 23.1355 19.2123 23.0275C19.1042 22.9195 18.9577 22.8588 18.805 22.8588H15.9298C15.5581 22.8588 15.1926 22.9538 14.8679 23.1348C14.5433 23.3159 14.2703 23.5769 14.0748 23.8931C13.8794 24.2093 13.7681 24.5702 13.7513 24.9415C13.7346 25.3129 13.8131 25.6823 13.9793 26.0148L14.1969 26.45V27.4665C14.1968 27.6608 14.2213 27.8544 14.2698 28.0425H12.9252C12.1417 28.0426 11.3719 28.2478 10.6924 28.6376C10.0128 29.0275 9.44708 29.5885 9.05153 30.2647C8.65598 30.941 8.44434 31.7091 8.43766 32.4925C8.43099 33.2759 8.6295 34.0475 9.01347 34.7304V40.7139H10.1654V36.3654L12.2929 39.2907C12.6141 39.7309 13.0345 40.0892 13.5201 40.3365C14.0057 40.5838 14.5428 40.7131 15.0878 40.7139H36.6601C36.8129 40.7139 36.9594 40.6532 37.0674 40.5452C37.1754 40.4372 37.2361 40.2907 37.2361 40.1379V33.2263H42.4198C42.5726 33.2263 42.7191 33.1656 42.8271 33.0576C42.9351 32.9495 42.9958 32.8031 42.9958 32.6503V21.7068C42.9958 21.5541 42.9351 21.4076 42.8271 21.2996C42.7191 21.1916 42.5726 21.1309 42.4198 21.1309ZM25.1407 22.2828H25.7167V32.0743H25.1407V22.2828ZM31.4764 33.2263V34.84L26.0132 33.8467L25.4548 33.2263H31.4764ZM25.3326 37.2581L24.0367 36.286C23.7879 36.0992 23.504 35.9646 23.2019 35.8902L21.4904 34.3498L23.4822 32.7564L25.2885 34.7635C25.3738 34.8583 25.4882 34.9221 25.6136 34.9449L31.4764 36.0109V37.834H25.6957C25.6488 37.6043 25.5197 37.3995 25.3326 37.2581ZM19.9569 34.5195L21.6599 36.0522C21.648 36.0579 21.6359 36.0627 21.6241 36.0686L20.4313 36.6649L19.9569 36.6056V34.5195ZM28.0205 38.986V39.562H22.4994L23.0754 38.986H28.0205ZM29.1725 38.986H32.0523C32.2051 38.986 32.3516 38.9253 32.4596 38.8173C32.5676 38.7093 32.6283 38.5628 32.6283 38.41V29.1945H33.2043V39.562H29.1725V38.986ZM32.7842 28.0425C32.885 27.8674 33.0301 27.722 33.205 27.6209C33.3798 27.5198 33.5783 27.4665 33.7803 27.4665C33.9823 27.4665 34.1807 27.5198 34.3556 27.6209C34.5304 27.722 34.6756 27.8674 34.7763 28.0425H32.7842ZM20.7912 29.7664L22.7103 31.8987L20.6226 33.5689L19.9569 32.9698V32.0743H18.805V36.4616L17.6771 36.3207L18.0603 35.9375C18.1223 35.8754 18.1694 35.8 18.1978 35.7171C18.2263 35.6341 18.2354 35.5458 18.2246 35.4587L17.6702 31.024L17.9484 30.4676L18.4855 30.8256L19.1245 29.8672L18.1154 29.1945H19.5068C19.749 29.1946 19.9885 29.2456 20.2097 29.3441C20.431 29.4427 20.6291 29.5865 20.7912 29.7664ZM15.3489 26.5535L15.9454 25.9569C16.2763 26.1907 16.6719 26.3157 17.0771 26.3146C17.2713 26.3147 17.4647 26.2903 17.6528 26.2418V27.4665C17.6528 27.7721 17.5314 28.0651 17.3154 28.2811C17.0993 28.4971 16.8063 28.6185 16.5008 28.6185C16.1953 28.6185 15.9023 28.4971 15.6863 28.2811C15.4702 28.0651 15.3489 27.7721 15.3489 27.4665V26.5535ZM16.1417 29.7423C16.3798 29.7798 16.6223 29.7798 16.8604 29.7422L16.9825 29.8236L16.7211 30.3464H16.2811L16.0197 29.8236L16.1417 29.7423ZM16.4336 31.4984H16.5686L17.0466 35.322L16.5011 35.8676L15.9556 35.322L16.4336 31.4984ZM14.9539 24.7142C15.022 24.5092 15.1529 24.3309 15.3281 24.2047C15.5033 24.0784 15.7139 24.0105 15.9298 24.0107H18.229C18.2287 24.3161 18.1072 24.6089 17.8912 24.8249C17.6753 25.0408 17.3825 25.1623 17.0771 25.1627C16.9701 25.163 16.864 25.142 16.7652 25.1011C16.6663 25.0601 16.5766 24.9999 16.5011 24.924L16.3324 24.7554C16.2244 24.6474 16.0779 24.5867 15.9251 24.5867C15.7724 24.5867 15.6259 24.6474 15.5178 24.7554L14.9428 25.3305C14.8829 25.1288 14.8867 24.9135 14.9539 24.7142ZM9.58944 32.5302C9.59044 31.6458 9.9422 30.7979 10.5676 30.1726C11.1929 29.5472 12.0408 29.1955 12.9252 29.1945H14.8868L13.8777 29.8672L14.5167 30.8256L15.0538 30.4676L15.332 31.024L14.9133 34.3731L12.9301 31.7288L12.0085 32.4199L13.0831 33.8528L10.8467 35.3437L10.2274 34.4923C9.8115 33.9227 9.58802 33.2354 9.58944 32.5302ZM15.0878 39.562C14.7245 39.5614 14.3664 39.4752 14.0427 39.3103C13.719 39.1455 13.4386 38.9067 13.2245 38.6132L11.5248 36.2761L13.7753 34.7757L15.4643 37.0277C15.5107 37.0895 15.5691 37.1414 15.636 37.1802C15.7029 37.2191 15.777 37.244 15.8537 37.2536L20.4615 37.8296C20.5743 37.8437 20.6888 37.8241 20.7904 37.7732L22.1393 37.0989C22.3304 37.0025 22.5447 36.9616 22.7579 36.9809C22.9711 37.0001 23.1747 37.0786 23.3455 37.2076L24.1807 37.834H22.8368C22.684 37.834 22.5375 37.8947 22.4295 38.0027L21.2077 39.2245C21.101 39.3319 20.974 39.4169 20.8342 39.4749C20.6944 39.5328 20.5445 39.5624 20.3931 39.562H15.0878ZM36.0841 39.562H34.3562V29.1945H36.0841V39.562ZM41.8439 32.0743H37.2361V28.6185C37.2361 28.4657 37.1754 28.3192 37.0674 28.2112C36.9594 28.1032 36.8129 28.0425 36.6601 28.0425H36.0112C35.871 27.4996 35.5376 27.0264 35.0735 26.7117C34.6094 26.397 34.0464 26.2623 33.4901 26.333C32.9338 26.4036 32.4224 26.6747 32.0517 27.0955C31.6809 27.5162 31.4764 28.0577 31.4764 28.6185V32.0743H26.8686V22.2828H41.8439V32.0743Z" fill="white"/>
<path d="M18.2289 19.979H19.9568V21.131C19.9568 21.2379 19.9866 21.3428 20.0428 21.4338C20.0991 21.5247 20.1795 21.5983 20.2752 21.6461C20.3709 21.694 20.478 21.7142 20.5845 21.7046C20.691 21.695 20.7928 21.6559 20.8783 21.5918L23.0287 19.979H25.1406C25.5987 19.9785 26.0379 19.7963 26.3618 19.4723C26.6857 19.1484 26.8679 18.7092 26.8685 18.2511V11.9154C26.8679 11.4573 26.6857 11.0181 26.3618 10.6942C26.0379 10.3702 25.5987 10.188 25.1406 10.1875H18.2289C17.7708 10.188 17.3316 10.3702 17.0076 10.6942C16.6837 11.0181 16.5015 11.4573 16.501 11.9154V18.2511C16.5015 18.7092 16.6837 19.1484 17.0076 19.4723C17.3316 19.7963 17.7708 19.9785 18.2289 19.979ZM17.6529 11.9154C17.6531 11.7627 17.7138 11.6163 17.8218 11.5083C17.9298 11.4004 18.0762 11.3396 18.2289 11.3394H25.1406C25.2933 11.3396 25.4397 11.4004 25.5476 11.5083C25.6556 11.6163 25.7163 11.7627 25.7165 11.9154V18.2511C25.7163 18.4038 25.6556 18.5502 25.5476 18.6582C25.4397 18.7662 25.2933 18.8269 25.1406 18.8271H22.8367C22.7121 18.8271 22.5908 18.8675 22.4911 18.9422L21.1088 19.979V19.403C21.1087 19.2503 21.0481 19.1038 20.94 18.9958C20.832 18.8878 20.6855 18.8271 20.5328 18.8271H18.2289C18.0762 18.8269 17.9298 18.7662 17.8218 18.6582C17.7138 18.5502 17.6531 18.4038 17.6529 18.2511V11.9154Z" fill="white"/>
</svg>
