<svg width="51" height="51" viewBox="0 0 51 51" fill="none" xmlns="http://www.w3.org/2000/svg">
<rect width="51" height="51" rx="25.5" fill="#CE6C39"/>
<path d="M28.3754 12.4892C28.0216 12.404 27.6667 12.6214 27.5816 12.9746C27.4965 13.3279 27.7138 13.6833 28.0671 13.7685C33.3999 15.054 37.1244 19.7883 37.1244 25.2813C37.1244 31.8117 31.8116 37.1245 25.2812 37.1245C18.7508 37.1245 13.438 31.8117 13.438 25.2813C13.438 19.7885 17.1623 15.0542 22.4949 13.7685C22.8481 13.6833 23.0655 13.3279 22.9803 12.9747C22.8951 12.6214 22.5396 12.4042 22.1865 12.4893C19.3652 13.1695 16.8091 14.8004 14.9891 17.0815C13.1135 19.4323 12.1221 22.2677 12.1221 25.2813C12.1221 32.5373 18.0253 38.4404 25.2812 38.4404C32.5371 38.4404 38.4403 32.5373 38.4403 25.2813C38.4403 22.2677 37.4489 19.4321 35.5731 17.0813C33.7531 14.8003 31.1969 13.1694 28.3754 12.4892Z" fill="white"/>
<path d="M41.7285 23.6987L40.9588 22.2625L41.0872 20.4871C41.2106 19.3491 40.7567 18.2385 39.8713 17.5142L38.5936 16.4679L38.091 14.9538C37.8095 13.7962 36.9303 12.8657 35.7895 12.5211L34.2123 12.0446L33.0044 10.6484C32.2898 9.80776 31.208 9.37048 30.1106 9.47832L28.4736 9.64143L26.8645 8.83418C25.8728 8.30551 24.6904 8.30505 23.6986 8.83412L22.2626 9.60379L20.4872 9.47536C19.3488 9.35193 18.2385 9.80592 17.5143 10.6912L16.468 11.9689L14.9539 12.4716C13.7962 12.753 12.8657 13.6323 12.5211 14.773L12.0447 16.3501L10.6485 17.5581C9.80792 18.2728 9.37038 19.3543 9.47835 20.4519L9.64146 22.0889L8.83421 23.6981C8.30548 24.6898 8.30509 25.8721 8.83408 26.864L9.60383 28.3L9.47539 30.0754C9.35203 31.2134 9.80595 32.324 10.6912 33.0484L11.969 34.0946L12.4716 35.6087C12.753 36.7664 13.6322 37.6969 14.7731 38.0415L16.3502 38.5179L17.5581 39.9141C18.2729 40.7547 19.3541 41.1923 20.4519 41.0842L22.0889 40.9211L23.6979 41.7282C24.1939 41.9927 24.7377 42.1251 25.2814 42.1251C25.8248 42.1251 26.3681 41.9929 26.8639 41.7285L28.3 40.9588L30.0753 41.0873C31.2133 41.2104 32.3239 40.7567 33.0483 39.8714L34.0946 38.5937L35.6088 38.0911C36.7664 37.8097 37.6968 36.9304 38.0414 35.7897L38.5179 34.2125L39.9141 33.0046C40.7547 32.2899 41.1922 31.2084 41.0843 30.1107L40.9211 28.4739L41.7283 26.8647C42.257 25.8729 42.2575 24.6905 41.7285 23.6987ZM40.5643 26.2506C40.5614 26.256 40.5586 26.2614 40.5559 26.2668L39.6593 28.0541C39.6035 28.1655 39.5804 28.2904 39.5927 28.4144L39.7747 30.2403C39.8404 30.9079 39.5739 31.5665 39.0574 32.0056L37.5127 33.3421C37.4185 33.4236 37.3494 33.5301 37.3134 33.6493L36.7817 35.409C36.5698 36.1107 35.994 36.6501 35.2791 36.8168C35.2596 36.8213 35.2402 36.8268 35.2212 36.8331L33.4991 37.4047C33.3809 37.444 33.2762 37.5159 33.1973 37.6123L32.0301 39.0379C31.5867 39.5798 30.9057 39.8565 30.2088 39.7781C30.2001 39.7771 30.1913 39.7763 30.1827 39.7756L28.2048 39.6326C28.0802 39.6236 27.9563 39.6501 27.8465 39.7089L26.2435 40.5681C25.6389 40.8905 24.9169 40.8892 24.3119 40.5643C24.3065 40.5615 24.3011 40.5587 24.2957 40.556L22.5085 39.6594C22.4166 39.6134 22.3155 39.5896 22.2134 39.5896C22.1917 39.5896 22.1699 39.5906 22.1482 39.5928L20.3223 39.7747C19.6548 39.8406 18.9961 39.5738 18.557 39.0575L17.2205 37.5127C17.1391 37.4185 17.0325 37.3494 16.9132 37.3134L15.1535 36.7818C14.4518 36.5699 13.9124 35.9941 13.7457 35.2792C13.7412 35.2596 13.7357 35.2403 13.7294 35.2213L13.1578 33.4991C13.1186 33.3808 13.0466 33.2762 12.9503 33.1973L11.5248 32.03C10.9829 31.5867 10.7062 30.9059 10.7846 30.2088C10.7856 30.2001 10.7864 30.1914 10.787 30.1827L10.9301 28.2047C10.9391 28.0805 10.9126 27.9562 10.8537 27.8464L9.99452 26.2435C9.67212 25.639 9.6735 24.9169 9.99821 24.3119C10.0011 24.3066 10.0039 24.3012 10.0066 24.2958L10.9031 22.5085C10.959 22.3972 10.982 22.2722 10.9697 22.1483L10.7878 20.3223C10.7221 19.6547 10.9886 18.9961 11.5051 18.5569L13.0498 17.2205C13.144 17.139 13.2131 17.0324 13.2492 16.9132L13.7808 15.1535C13.9927 14.4518 14.5685 13.9124 15.2834 13.7457C15.303 13.7412 15.3223 13.7357 15.3413 13.7294L17.0634 13.1577C17.1816 13.1185 17.2863 13.0466 17.3651 12.9502L18.5325 11.5246C18.9758 10.9828 19.6569 10.7062 20.3537 10.7845C20.3624 10.7855 20.3711 10.7863 20.3798 10.7869L22.3577 10.93C22.4816 10.9388 22.6062 10.9125 22.716 10.8536L24.319 9.99449C24.9234 9.67209 25.6455 9.67341 26.2505 9.99817C26.2558 10.001 26.2612 10.0038 26.2666 10.0065L28.054 10.9031C28.1653 10.9589 28.2902 10.9821 28.4142 10.9696L30.2401 10.7877C30.9077 10.7219 31.5663 10.9886 32.0055 11.505L33.3419 13.0498C33.4234 13.144 33.5299 13.2131 33.6492 13.2491L35.4089 13.7808C36.1106 13.9927 36.65 14.5685 36.8167 15.2834C36.8212 15.3029 36.8267 15.3222 36.833 15.3413L37.4047 17.0634C37.4439 17.1816 37.5158 17.2862 37.6122 17.3651L39.0378 18.5324C39.5797 18.9757 39.8563 19.6565 39.7779 20.3536C39.7769 20.3623 39.7761 20.371 39.7755 20.3797L39.6325 22.3578C39.6235 22.482 39.65 22.6062 39.7088 22.716L40.568 24.319C40.8904 24.9237 40.8891 25.6457 40.5643 26.2506Z" fill="white"/>
<path d="M22.4267 21.6968C22.3212 21.4744 22.0952 21.3202 21.8326 21.3202H18.3562C17.9928 21.3202 17.6982 21.6148 17.6982 21.9782V31.9374C17.6982 32.3008 17.9928 32.5953 18.3562 32.5953H21.8326C22.1054 32.5953 22.3393 32.4295 22.439 32.1931C22.9406 32.2635 23.4573 32.4061 23.9952 32.5551C24.804 32.779 25.6402 33.0105 26.509 33.0105H30.3073C31.4815 33.0105 32.433 32.388 32.8526 31.3452C33.0569 30.8372 33.0927 30.3099 32.9733 29.8684C33.1917 29.672 33.3764 29.4275 33.516 29.1421C33.799 28.5636 33.8555 27.9131 33.6951 27.3652C33.994 27.0763 34.2171 26.6949 34.3337 26.2452C34.4427 25.8248 34.4408 25.4099 34.3438 25.0505C34.9373 24.7014 35.337 24.0671 35.337 23.3524C35.337 22.7919 35.1188 22.2754 34.7224 21.8982C34.3418 21.5359 33.8349 21.3363 33.2952 21.3363L27.9413 21.3365C27.5346 20.8262 27.408 20.1338 27.6396 19.5764C28.1149 18.4325 28.0854 17.4642 27.5442 16.4369C27.1425 15.6743 26.0622 14.9152 25.1543 15.0448C24.6055 15.1232 24.2085 15.5111 24.092 16.0825C24.0577 16.2506 24.0483 16.4322 24.0375 16.6425C24.0106 17.1612 23.9738 17.8717 23.526 18.7296C23.2224 19.3111 23.1212 19.9093 23.0318 20.437C22.9039 21.193 22.8418 21.5572 22.4267 21.6968ZM19.0142 22.6361H21.1747V31.2794H19.0142V22.6361ZM24.3293 20.6567C24.406 20.2039 24.4852 19.7357 24.6926 19.3385C25.2731 18.2263 25.3222 17.2775 25.3517 16.7106C25.3595 16.5596 25.3669 16.4169 25.3815 16.3452C25.3815 16.3447 25.3817 16.3442 25.3818 16.3438C25.61 16.3469 26.1717 16.655 26.38 17.0503C26.7404 17.7343 26.7524 18.2822 26.4245 19.0716C26.1287 19.7834 26.1509 20.6093 26.4435 21.3437C26.1234 21.3882 25.8768 21.6623 25.8768 21.9946C25.8768 22.3579 26.1714 22.6526 26.5347 22.6526L33.2952 22.6524C33.4956 22.6524 33.6803 22.723 33.8151 22.8513C33.9091 22.9408 34.0211 23.1004 34.0211 23.3525C34.0211 23.7054 33.6976 24.0106 33.3146 24.0189L31.6211 24.0558C31.2578 24.0637 30.9697 24.3646 30.9776 24.7279C30.9854 25.0863 31.2783 25.3716 31.6351 25.3716C31.6399 25.3716 31.6448 25.3716 31.6497 25.3714L33.0601 25.3408C33.1061 25.4711 33.1301 25.7198 33.0332 26.0046C32.9508 26.2469 32.7295 26.6532 32.1729 26.6532C31.8096 26.6532 31.5149 26.9478 31.5149 27.3112C31.5149 27.6746 31.8096 27.9691 32.1729 27.9691C32.2726 27.9691 32.3705 27.9629 32.4663 27.9508C32.4745 28.137 32.4362 28.3551 32.334 28.5639C32.2132 28.8108 31.9744 29.1051 31.523 29.1051C31.1596 29.1051 30.865 29.3997 30.865 29.7631C30.865 30.1265 31.1596 30.4211 31.523 30.4211C31.5911 30.4211 31.6584 30.418 31.7249 30.412C31.7232 30.5383 31.6976 30.6962 31.6258 30.8688C31.5226 31.1171 31.1875 31.6946 30.3074 31.6946H26.5091C25.8191 31.6946 25.1038 31.4966 24.3465 31.2869C23.7439 31.12 23.126 30.9491 22.4907 30.8727V23.0284C23.9721 22.7599 24.1763 21.5608 24.3293 20.6567Z" fill="white"/>
<path d="M25.2822 13.438C25.6456 13.438 25.9401 13.1434 25.9401 12.78C25.9401 12.4166 25.6456 12.1221 25.2822 12.1221H25.2817C24.9183 12.1221 24.624 12.4166 24.624 12.78C24.624 13.1434 24.9188 13.438 25.2822 13.438Z" fill="white"/>
</svg>
