<svg width="51" height="51" viewBox="0 0 51 51" fill="none" xmlns="http://www.w3.org/2000/svg">
<rect width="51" height="51" rx="25.5" fill="#CE6C39"/>
<path d="M43 22.6774H41.7315L39.8409 23.6722C39.6281 23.5548 39.4067 23.4553 39.168 23.3955L36.7898 22.8004V22.53C37.8419 21.7956 38.4839 20.5825 38.4839 19.2903V18.3035C38.4839 16.1105 36.7655 14.2753 34.6535 14.2113C34.5463 14.2086 34.4407 14.2124 34.3346 14.2177L34.9512 12.7741L31.9619 9.78561L30.1997 10.9326C29.5302 10.5555 28.822 10.2619 28.0866 10.056L27.6514 8H23.3492L22.9139 10.0566C22.1785 10.2625 21.4698 10.556 20.8008 10.9331L19.0387 9.78616L16.0518 12.773L16.6579 14.2177C16.6348 14.2166 16.6127 14.2124 16.5896 14.2119C15.5085 14.1805 14.4903 14.5749 13.7168 15.3258C12.9423 16.0761 12.5161 17.083 12.5161 18.1613V19.2903C12.5161 20.5825 13.1575 21.7951 14.2097 22.5294V22.8004L12.6584 23.1882L9.84653 21.5484H8V33.2458L13.5536 35.0968H14.6353L14.7703 34.6238L16.4727 35.6456C16.5005 36.5712 17.2428 37.316 18.1676 37.3485C18.2002 38.2694 18.9403 39.0095 19.8612 39.042C19.8937 39.963 20.6338 40.7031 21.5547 40.7356C21.5884 41.678 22.3602 42.4355 23.3103 42.4355C23.6631 42.4355 24.009 42.3255 24.2999 42.1295L24.7999 42.5711C25.1133 42.847 25.5168 43 25.9358 43H26.0403C26.9797 43 27.744 42.2406 27.7559 41.3042C28.6851 41.2924 29.4376 40.5399 29.4494 39.6107C30.3792 39.5988 31.1322 38.8452 31.143 37.9155C32.0812 37.8934 32.8387 37.1269 32.8387 36.1834C32.8387 36.1266 32.836 36.0706 32.8302 36.0141L43 30.9296V22.6774ZM37.3548 18.3035V19.2903C37.3548 20.2923 36.8135 21.2284 35.9419 21.7331L35.6596 21.8962L35.6618 23.6827L38.4822 24.3872L32.2742 27.6547V26.134C32.2742 25.3751 31.9677 24.6802 31.4657 24.1667L33.4032 23.6827V21.8949L33.1215 21.732C32.2505 21.2284 31.7097 20.2923 31.7097 19.2903V18.1613C31.7097 17.3914 32.014 16.6714 32.5672 16.1353C33.1199 15.5995 33.8531 15.3106 34.6196 15.3404C36.1277 15.3856 37.3548 16.715 37.3548 18.3035ZM26.3512 27.2109L23.7957 26.3942C22.6311 26.021 21.3706 25.9653 20.1784 26.2294L19.8548 26.301V26.134C19.8548 25.3556 20.3827 24.6797 21.1374 24.4906L24.371 23.6827V21.8949L24.0893 21.732C23.2182 21.2284 22.6774 20.2923 22.6774 19.2903V18.1613C22.6774 17.3914 22.9817 16.6714 23.5349 16.1353C24.0876 15.5995 24.8255 15.3106 25.5874 15.3404C27.0954 15.3856 28.3226 16.715 28.3226 18.3035V19.2903C28.3226 20.2923 27.7812 21.2284 26.9096 21.7331L26.6274 21.8962L26.6296 23.6827L29.8626 24.4906C30.6173 24.6797 31.1452 25.3556 31.1452 26.134V28.2493L31.0057 28.3226H30.6598L27.1891 27.3308C26.9157 27.2534 26.634 27.2217 26.3512 27.2109ZM19.9814 16.449C21.0415 14.3949 23.1752 13.0806 25.5 13.0806C27.8027 13.0806 29.9274 14.3773 30.9955 16.4035C30.7267 16.9424 30.5806 17.5392 30.5806 18.1613V19.2903C30.5806 20.5825 31.2221 21.7951 32.2742 22.5294V22.8004L30.0161 23.3657L27.7575 22.8004V22.53C28.8096 21.7956 29.4516 20.5825 29.4516 19.2903V18.3035C29.4516 16.1105 27.7333 14.2753 25.6213 14.2113C24.5408 14.1796 23.522 14.5744 22.7485 15.3252C21.9745 16.0761 21.5484 17.083 21.5484 18.1613V19.2903C21.5484 20.5825 22.1898 21.7951 23.2419 22.5294V22.8004L20.9839 23.3657L18.7253 22.8004V22.53C19.7774 21.7956 20.4194 20.5825 20.4194 19.2903V18.3035C20.4194 17.6392 20.2595 17.0086 19.9814 16.449ZM17.3851 13.0349L19.1886 11.2314L20.776 12.2645L21.0798 12.0781C21.8408 11.6117 22.6634 11.2702 23.5242 11.0643L23.8715 10.9811L24.2643 9.12903H26.7363L27.1279 10.9805L27.4753 11.0635C28.3361 11.2697 29.1586 11.6112 29.9197 12.0776L30.2234 12.2639L31.8108 11.2308L33.6122 13.0327L32.9718 14.5319C32.5361 14.7193 32.132 14.9831 31.7802 15.3241C31.7571 15.3467 31.7372 15.371 31.7146 15.3941C30.3847 13.2799 28.0334 11.9516 25.5 11.9516C22.9484 11.9516 20.5905 13.2923 19.2639 15.428C18.9088 15.0565 18.4865 14.7554 18.0185 14.5451L17.3851 13.0349ZM15.3387 23.6827V21.8949L15.057 21.732C14.186 21.2284 13.6452 20.2923 13.6452 19.2903V18.1613C13.6452 17.3914 13.9495 16.6714 14.5027 16.1353C15.0553 15.5995 15.7902 15.3106 16.5551 15.3404C18.0632 15.3856 19.2903 16.715 19.2903 18.3035V19.2903C19.2903 20.2923 18.749 21.2284 17.8774 21.7331L17.5951 21.8962L17.5973 23.6827L19.5343 24.1667C19.0323 24.6802 18.7258 25.3751 18.7258 26.134V26.5521L16.965 26.9435L17.0108 26.7837L17.0323 25.7404L14.055 24.0035L15.3387 23.6827ZM9.12903 22.6774H9.54057L13.6005 25.0455L11.5519 33.2395L9.12903 32.4316V22.6774ZM13.7367 33.9677L12.6256 33.5976L14.6157 25.6378L15.9032 26.3887V26.5499L13.7841 33.9677H13.7367ZM17.5968 35.5929C17.5968 35.4264 17.664 35.2633 17.782 35.1453L18.7743 34.153C18.8923 34.035 19.0555 33.9677 19.222 33.9677C19.5709 33.9677 19.8548 34.2517 19.8548 34.6006C19.8548 34.7671 19.7876 34.9303 19.6696 35.0483L18.6773 36.0406C18.5593 36.1586 18.3961 36.2258 18.2296 36.2258C17.8807 36.2258 17.5968 35.9419 17.5968 35.5929ZM19.2903 37.2865C19.2903 37.12 19.3576 36.9568 19.4756 36.8388L20.4679 35.8465C20.5858 35.7285 20.749 35.6613 20.9155 35.6613C21.2645 35.6613 21.5484 35.9452 21.5484 36.2942C21.5484 36.4607 21.4811 36.6238 21.3632 36.7418L20.3708 37.7341C20.2529 37.8521 20.0897 37.9194 19.9232 37.9194C19.5742 37.9194 19.2903 37.6354 19.2903 37.2865ZM20.9839 38.98C20.9839 38.8135 21.0511 38.6504 21.1691 38.5324L22.1614 37.5401C22.2794 37.4221 22.4426 37.3548 22.6091 37.3548C22.958 37.3548 23.2419 37.6388 23.2419 37.9877C23.2419 38.1542 23.1747 38.3174 23.0567 38.4354L22.0644 39.4277C21.9464 39.5456 21.7832 39.6129 21.6167 39.6129C21.2678 39.6129 20.9839 39.329 20.9839 38.98ZM23.3103 41.3064C22.9613 41.3064 22.6774 41.0225 22.6774 40.6736C22.6774 40.5071 22.7447 40.3439 22.8627 40.2259L23.855 39.2336C23.9729 39.1156 24.1361 39.0484 24.3026 39.0484C24.6516 39.0484 24.9355 39.3323 24.9355 39.6813C24.9355 39.8477 24.8682 40.0109 24.7503 40.1289L23.7579 41.1212C23.64 41.2392 23.4768 41.3064 23.3103 41.3064ZM26.0403 41.871H25.9358C25.7919 41.871 25.6541 41.8186 25.5469 41.7235L25.1246 41.3511L25.5485 40.9272C25.6998 40.7758 25.8173 40.5958 25.9041 40.4026L26.4173 40.8299C26.5516 40.9418 26.629 41.1066 26.629 41.2822C26.629 41.6069 26.365 41.871 26.0403 41.871ZM31.1027 36.7903H31.0051C30.8635 36.7903 30.7251 36.7402 30.6168 36.6492L27.5555 34.0981L26.8322 34.9658L29.805 37.4428C29.9387 37.5547 30.0161 37.7195 30.0161 37.8951C30.0161 38.2198 29.7521 38.4839 29.4274 38.4839H29.3041C29.1672 38.4839 29.0332 38.4354 28.9276 38.3472L25.8614 35.7922L25.1381 36.6599L28.1109 39.1371C28.2451 39.2482 28.3226 39.4131 28.3226 39.5886C28.3226 39.9134 28.0585 40.1774 27.7338 40.1774C27.5172 40.1774 27.306 40.1005 27.1398 39.9624L25.8798 38.9122C25.6023 38.3449 25.032 37.9494 24.3641 37.9257C24.3316 37.0048 23.5915 36.2647 22.6705 36.2321C22.638 35.3112 21.8979 34.5711 20.977 34.5386C20.9439 33.5962 20.1721 32.8387 19.222 32.8387C18.7581 32.8387 18.3041 33.0267 17.9761 33.3547L16.9837 34.347C16.9245 34.4063 16.8754 34.4735 16.8255 34.5403L15.0915 33.4997L16.6116 28.1792L20.4227 27.3319C21.4224 27.1084 22.4765 27.1569 23.4514 27.4689L24.283 27.7349L21.4638 29.1445C20.8196 29.4673 20.4194 30.1154 20.4194 30.8359V30.9475C20.4194 31.9903 21.2678 32.8387 22.3105 32.8387C22.6532 32.8387 22.9903 32.7455 23.2833 32.5689L25.3853 31.3083C25.8076 31.0553 26.3743 31.1107 26.739 31.4387L31.5087 35.7313C31.6364 35.8471 31.7097 36.0114 31.7097 36.1834C31.7097 36.5183 31.4376 36.7903 31.1027 36.7903ZM41.871 30.2317L32.3605 34.9873C32.3296 34.9545 32.2973 34.9234 32.2634 34.8931L27.4946 30.6005C27.0767 30.2234 26.5364 30.0161 25.9736 30.0161C25.562 30.0161 25.1579 30.128 24.804 30.3403L22.7011 31.6013C22.5831 31.6725 22.4484 31.7097 22.3105 31.7097C21.8899 31.7097 21.5484 31.3682 21.5484 30.9475V30.8359C21.5484 30.5451 21.7099 30.2843 21.9696 30.1545L25.1185 28.58C25.6574 28.3102 26.2972 28.2498 26.8779 28.4169L30.4255 29.4301L31.2846 29.4516L41.871 23.8798V30.2317Z" fill="white"/>
</svg>
