<svg width="79" height="79" viewBox="0 0 79 79" fill="none" xmlns="http://www.w3.org/2000/svg">
<rect width="79" height="79" rx="39.5" fill="#CE6C39"/>
<path d="M43.3353 52.4994C41.7175 52.4994 40.4014 51.1876 40.4014 49.5752C40.4014 47.9574 41.7175 46.6412 43.3353 46.6412C44.9476 46.6412 46.2594 47.9574 46.2594 49.5752C46.2594 51.1876 44.9476 52.4994 43.3353 52.4994ZM43.3353 48.0084C42.4714 48.0084 41.7686 48.7112 41.7686 49.5752C41.7686 50.4338 42.4714 51.1322 43.3353 51.1322C44.1938 51.1322 44.8922 50.4337 44.8922 49.5752C44.8922 48.7112 44.1937 48.0084 43.3353 48.0084ZM33.1007 52.4994C31.4883 52.4994 30.1766 51.1876 30.1766 49.5752C30.1766 47.9574 31.4883 46.6412 33.1007 46.6412C34.7185 46.6412 36.0346 47.9574 36.0346 49.5752C36.0346 51.1876 34.7185 52.4994 33.1007 52.4994ZM33.1007 48.0084C32.2422 48.0084 31.5437 48.7112 31.5437 49.5752C31.5437 50.4338 32.2422 51.1322 33.1007 51.1322C33.9646 51.1322 34.6674 50.4337 34.6674 49.5752C34.6674 48.7112 33.9646 48.0084 33.1007 48.0084ZM46.5878 46.2346C46.4539 46.2346 46.3196 46.1955 46.2028 46.1158C45.9433 45.9389 45.8378 45.608 45.9469 45.3136C46.6537 43.4066 48.0339 41.7615 49.1431 40.4398C49.7201 39.7521 50.2184 39.1582 50.5236 38.6555C50.8448 38.1263 50.801 37.9376 50.7799 37.8923C50.7515 37.8315 50.5434 37.5156 49.2299 37.272C48.0281 37.0493 46.2176 36.9409 43.6948 36.9409C43.2102 36.9409 42.6907 36.945 42.1508 36.9531C41.7824 36.9586 41.4155 36.9613 41.0603 36.9613C35.3594 36.9613 31.3079 36.2715 28.6745 34.8525C26.3125 33.5798 25.4764 31.9469 24.8047 30.6348C24.6048 30.2442 24.4159 29.8752 24.2082 29.5632C24.0117 29.2678 24.0738 28.8711 24.3513 28.6499C24.6289 28.4289 25.0294 28.4568 25.2735 28.7143C29.0309 32.6781 32.3444 33.3751 47.4331 33.3751C53.7177 33.3751 56.2581 33.9298 56.8063 35.4216C57.2214 36.5513 56.2578 37.7713 55.3719 38.7079C54.3247 39.8152 52.7525 41.1509 50.932 42.6976C49.7541 43.6984 48.419 44.8326 47.0432 46.0609C46.9143 46.176 46.7514 46.2346 46.5878 46.2346ZM43.6948 35.5738C46.3022 35.5738 48.1942 35.6896 49.4791 35.9278C50.9123 36.1935 51.6956 36.6213 52.0189 37.3146C52.5659 38.4875 51.5175 39.7369 50.1903 41.3186C49.9896 41.5577 49.7841 41.8026 49.5784 42.0536C49.737 41.9187 49.8931 41.7861 50.0467 41.6557C51.8368 40.1349 53.3826 38.8215 54.3786 37.7685C55.6038 36.473 55.5643 36.0056 55.5229 35.8932C55.4828 35.784 55.2322 35.4056 53.6927 35.1187C52.3334 34.8654 50.2859 34.7423 47.4331 34.7423C40.215 34.7423 35.3605 34.6017 31.9069 33.8828C30.1919 33.5258 28.7859 33.0261 27.5099 32.2845C27.9651 32.766 28.5454 33.23 29.3231 33.649C31.7522 34.9579 35.5914 35.5942 41.0603 35.5942C41.409 35.5942 41.7691 35.5914 42.1306 35.5862C42.677 35.578 43.2034 35.5738 43.6948 35.5738Z" fill="white"/>
</svg>
