<svg width="79" height="79" viewBox="0 0 79 79" fill="none" xmlns="http://www.w3.org/2000/svg">
<rect width="79" height="79" rx="39.5" fill="#CE6C39"/>
<g clip-path="url(#clip0_1374_84582)">
<path d="M60.5 39.5002C60.5 50.2201 51.7716 58.914 41 58.914C30.2284 58.914 21.5 50.2201 21.5 39.5002C21.5 28.7803 30.2284 20.0864 41 20.0864C51.7716 20.0864 60.5 28.7803 60.5 39.5002Z" stroke="white"/>
<path d="M31.7787 56.6101C30.6685 56.0161 29.6218 55.3166 28.6528 54.5271C31.804 51.3645 36.1718 49.4062 41.0002 49.4062C45.8284 49.4062 50.1963 51.3644 53.3474 54.5271C52.3788 55.3162 51.333 56.0146 50.2217 56.6087L50.2206 56.6093C49.8503 56.8085 49.4726 56.9959 49.0873 57.1702L49.0866 57.1706C46.6236 58.2899 43.886 58.914 41.0001 58.914C38.1142 58.914 35.3766 58.29 32.9137 57.1706L32.9135 57.1705C32.5285 56.9956 32.1504 56.8093 31.779 56.6103L31.7787 56.6101Z" fill="white" stroke="white"/>
<path d="M51.0386 56.7271C50.6186 56.9714 50.1893 57.1984 49.7519 57.4108C47.1079 58.6946 44.1386 59.4141 40.9999 59.4141C37.8599 59.4141 34.8893 58.6932 32.2466 57.4095C31.8093 57.1971 31.3813 56.9688 30.9626 56.7257C33.6947 54.2034 37.1906 52.6899 41 52.6899C44.8106 52.6899 48.3066 54.2034 51.0386 56.7271Z" fill="white"/>
<path d="M33.2186 54.5939L34.698 49.9795H35.9146L34.4351 54.5939H33.2186Z" fill="white" stroke="white"/>
<path d="M47.5647 54.5939L46.0853 49.9795H47.3018L48.7813 54.5939H47.5647Z" fill="white" stroke="white"/>
<path d="M55.0987 39.6327C55.0987 39.6845 55.0987 39.7363 55.0974 39.7881C55.0747 41.964 54.5548 44.0204 53.6454 45.8511C52.7267 47.7044 51.4107 49.3254 49.8067 50.6066C47.3881 52.5396 44.3174 53.6946 40.9774 53.6946C34.9654 53.6946 29.8321 49.9548 27.7947 44.6842C27.1868 43.1163 26.8547 41.4131 26.8547 39.6328C26.8547 31.8677 33.1774 25.5723 40.9774 25.5723C46.2507 25.5723 50.8507 28.4518 53.2747 32.7187C53.7427 33.5418 54.1308 34.4166 54.4254 35.3327C54.8627 36.6882 55.0987 38.1326 55.0987 39.6327Z" fill="white"/>
<path d="M50.0666 50.2328L49.8066 50.6073C47.388 52.5402 44.3173 53.6952 40.9773 53.6952C34.9653 53.6952 29.832 49.9554 27.7947 44.6848C27.9121 42.9245 28.4067 41.2664 29.1987 39.7888C31.2561 35.9507 35.3173 33.3394 39.9907 33.3394C41.98 33.3394 43.8973 34.0669 45.6894 35.202L46.4214 36.7792L47.1774 38.7267L50.0666 50.2328Z" fill="#CE6C39"/>
<path d="M55.0985 39.6332C55.0985 39.6849 55.0985 39.7368 55.0971 39.7886C55.0745 41.9645 54.5546 44.0209 53.6451 45.8516L51.5104 44.4351L48.7197 39.7885L47.5437 37.8302C47.8437 35.4737 49.7104 33.2832 51.577 33.2832C51.677 33.2832 51.777 33.2925 51.877 33.3111C52.353 33.3974 52.8317 33.6815 53.289 34.0784C53.6916 34.4275 54.0757 34.8643 54.425 35.333C54.8624 36.6887 55.0985 38.1331 55.0985 39.6332Z" fill="#CE6C39"/>
<path d="M54.07 37.2099L48.2233 36.711C48.2343 36.62 48.2476 36.5184 48.2637 36.408C48.3342 35.9244 48.4563 35.2817 48.6621 34.6333C48.8694 33.9804 49.1529 33.3496 49.5322 32.8694C49.9063 32.3956 50.3543 32.0903 50.9071 32.0199C51.3985 31.9573 51.8443 32.1776 52.275 32.6729C52.7112 33.1745 53.0755 33.9012 53.3673 34.6818C53.6562 35.4552 53.8607 36.2449 53.9932 36.845C54.0223 36.977 54.0479 37.0994 54.07 37.2099Z" fill="white" stroke="white"/>
<path d="M53.2893 34.0786V39.7885H48.72L47.5439 37.8302C47.8439 35.4737 49.7107 33.2832 51.5772 33.2832C52.1493 33.2834 52.736 33.598 53.2893 34.0786Z" fill="#CE6C39"/>
<path d="M47.422 51.6172L47.4204 51.6174C47.1876 51.6505 46.9536 51.6701 46.7211 51.6764C46.6605 51.6777 46.6079 51.6789 46.5547 51.6789C44.3247 51.6789 43.4485 50.9264 43.0718 50.2359C42.7134 49.579 42.7303 48.8714 42.7409 48.4251C42.7424 48.3619 42.7438 48.3039 42.744 48.2521C42.7448 48.2484 42.7481 48.2272 42.7606 48.1825C42.7778 48.1203 42.8057 48.0369 42.8456 47.9306C42.9252 47.7183 43.0419 47.4432 43.1876 47.1154L43.2307 47.0184V47.0172C43.3534 46.7425 43.4936 46.4353 43.6438 46.1062C43.9896 45.3485 44.3888 44.4738 44.7503 43.6083C45.2845 42.3288 45.7715 40.9899 45.8963 39.9827L45.8964 39.9814C45.8976 39.9712 45.8989 39.9608 45.9002 39.9502C45.9043 39.9169 45.9085 39.8822 45.9126 39.847L45.9127 39.8466C46.0502 38.6697 46.1245 37.2774 46.1638 36.1209C46.4978 36.3575 46.8279 36.6091 47.1533 36.8726L47.2909 36.9841H47.2914C50.6985 39.7832 53.504 43.7783 55.258 46.2761C55.3904 46.4645 55.5167 46.6444 55.6368 46.8146C55.5211 46.9279 55.3727 47.0704 55.195 47.2347C54.7249 47.6698 54.0527 48.2562 53.246 48.8608C51.6181 50.0808 49.5024 51.3289 47.422 51.6172Z" fill="white" stroke="white"/>
<mask id="path-13-inside-1_1374_84582" fill="white">
<path d="M45.6893 35.2014C43.2107 30.3291 38.681 30.6046 36.7107 31.3248C34.0774 32.2874 32.0107 34.7766 32.1774 37.0334"/>
</mask>
<path d="M45.6893 35.2014C43.2107 30.3291 38.681 30.6046 36.7107 31.3248C34.0774 32.2874 32.0107 34.7766 32.1774 37.0334" fill="white"/>
<path d="M36.7107 31.3248L36.3674 30.3856L36.3674 30.3856L36.7107 31.3248ZM46.5806 34.748C45.2112 32.0561 43.2273 30.7223 41.267 30.1997C39.3492 29.6884 37.5129 29.9669 36.3674 30.3856L37.054 32.264C37.8788 31.9626 39.2925 31.7432 40.7518 32.1322C42.1686 32.5099 43.6888 33.4744 44.7981 35.6548L46.5806 34.748ZM36.3674 30.3856C34.8772 30.9303 33.5525 31.9024 32.6151 33.0666C31.6846 34.2224 31.0726 35.652 31.1801 37.1071L33.1747 36.9597C33.1154 36.158 33.4534 35.2146 34.173 34.3209C34.8856 33.4357 35.9109 32.6819 37.054 32.264L36.3674 30.3856Z" fill="white" mask="url(#path-13-inside-1_1374_84582)"/>
<path d="M41.9333 33.5659C43.232 33.8632 44.488 34.4407 45.6894 35.2014C45.6761 35.832 45.6507 36.6086 45.6067 37.4119C45.564 38.2163 45.5027 39.0474 45.416 39.7883H42.1067H29.1987C31.2561 35.9502 35.3174 33.3389 39.9908 33.3389C40.6468 33.3389 41.2961 33.4185 41.9333 33.5659Z" fill="#CE6C39"/>
<path d="M43.5774 47.754C41.6217 47.3557 37.7996 45.0103 37.7996 45.0103C37.7996 45.0103 40.4663 48.5947 44.0663 49.6125L43.5774 47.754Z" fill="white"/>
<path d="M50.7309 45.3403L47.185 51.6359L46.7069 51.6761C46.6522 51.6773 46.6037 51.6783 46.5547 51.6783C44.3247 51.6783 43.4485 50.9258 43.0718 50.2353C42.7134 49.5784 42.7303 48.8708 42.7409 48.4245C42.7424 48.3613 42.7438 48.3033 42.744 48.2515C42.7448 48.2478 42.7481 48.2266 42.7606 48.1818C42.7778 48.1196 42.8057 48.0362 42.8455 47.9299C42.9251 47.7177 43.0418 47.4426 43.1875 47.1149L43.1985 47.0903C43.3584 46.7578 43.7278 46.3006 44.2647 45.7029C44.4418 45.5058 44.6353 45.2952 44.8384 45.0741C45.2398 44.6372 45.6789 44.1594 46.1032 43.6637C47.2542 42.319 48.438 40.6893 48.7244 38.9513C48.9214 39.4291 49.1428 40.0503 49.369 40.7369C49.7274 41.8247 50.0809 43.0241 50.3455 43.9538C50.4776 44.4181 50.5873 44.8141 50.6638 45.0939C50.6903 45.1906 50.7128 45.2734 50.7309 45.3403Z" fill="white" stroke="white"/>
<path d="M55.637 46.8146C55.5171 46.6447 55.391 46.4652 55.259 46.2772C53.7683 44.1543 51.5176 40.9492 48.7835 38.3161C49.3629 40.4326 49.1571 42.9288 47.6008 45.4082L47.6007 45.4084C46.8165 46.6568 46.3403 47.6365 46.1788 48.4653L55.637 46.8146ZM55.637 46.8146C55.2048 47.2375 54.3196 48.0628 53.1698 48.9171C51.6058 50.0791 49.6087 51.2516 47.6287 51.5852C46.9824 51.066 46.5785 50.5828 46.3533 50.1097C46.1151 49.6093 46.0591 49.0825 46.1788 48.4654L55.637 46.8146Z" fill="white" stroke="white"/>
<path d="M46.121 48.9323C49.4415 49.3444 51.9865 48.9769 53.7337 48.4848C53.5541 48.6268 53.3658 48.7716 53.1698 48.9172C51.6058 50.0792 49.6087 51.2517 47.6287 51.5853C46.9824 51.0661 46.5785 50.5829 46.3533 50.1098C46.1774 49.7403 46.1009 49.3564 46.121 48.9323Z" stroke="white"/>
<path d="M45.6894 35.2015C45.676 35.832 45.6507 36.6087 45.6066 37.4119C45.564 38.2164 45.5027 39.0474 45.4159 39.7884H42.1066L41.9333 37.8859V33.5659C43.232 33.8633 44.488 34.4407 45.6894 35.2015Z" fill="#CE6C39"/>
<path d="M55.0988 39.633C55.0988 39.6847 55.0988 39.7365 55.0974 39.7883H51.8774V33.311C52.3535 33.3974 52.8321 33.6815 53.2895 34.0784C53.692 34.4275 54.0762 34.8643 54.4255 35.333C54.8628 36.6884 55.0988 38.1328 55.0988 39.633Z" fill="#CE6C39"/>
<path d="M43.4885 39.3902L41.8885 34.3896L40.6495 38.3786L35.4885 39.7885L42.3774 41.2489L43.4885 39.3902Z" fill="white"/>
<path d="M41.9328 41.691C42.9883 41.691 43.8439 40.839 43.8439 39.7881C43.8439 38.7372 42.9883 37.8853 41.9328 37.8853C40.8774 37.8853 40.0217 38.7372 40.0217 39.7881C40.0217 40.839 40.8774 41.691 41.9328 41.691Z" fill="white"/>
<path d="M53.2893 36.1372L52.5442 39.4009L54.0383 39.4238L53.2893 36.1372Z" fill="white"/>
<path d="M53.2899 41.1771C53.7186 41.1771 54.0662 40.5552 54.0662 39.788C54.0662 39.0208 53.7186 38.3989 53.2899 38.3989C52.8612 38.3989 52.5137 39.0208 52.5137 39.788C52.5137 40.5552 52.8612 41.1771 53.2899 41.1771Z" fill="white"/>
<path d="M53.2897 39.6076C53.4557 39.6076 53.5902 39.3668 53.5902 39.0699C53.5902 38.773 53.4557 38.5322 53.2897 38.5322C53.1238 38.5322 52.9893 38.773 52.9893 39.0699C52.9893 39.3668 53.1238 39.6076 53.2897 39.6076Z" fill="white"/>
<path d="M41.9328 39.5336C42.3068 39.5336 42.61 39.2317 42.61 38.8593C42.61 38.4869 42.3068 38.1851 41.9328 38.1851C41.5588 38.1851 41.2556 38.4869 41.2556 38.8593C41.2556 39.2317 41.5588 39.5336 41.9328 39.5336Z" fill="#CE6C39"/>
<path d="M32.7468 57.0938V55.5943H49.2521V57.0951C46.7462 58.2625 43.9506 58.9142 41.0001 58.9142C38.0484 58.9142 35.2516 58.2613 32.7468 57.0938Z" fill="white" stroke="white"/>
<path d="M49.252 55.5942V57.0951C46.8881 58.1963 44.2663 58.8387 41.5 58.908V55.5942H49.252Z" fill="white" stroke="white"/>
<path d="M49.93 56.7623C49.8653 56.7957 49.8004 56.8286 49.7354 56.8612L49.6226 55.4149L49.5922 55.0244H49.7758L49.93 56.7623ZM32.2243 55.0244H32.408L32.3775 55.4149L32.2648 56.8615C32.1997 56.829 32.1349 56.7962 32.0702 56.763L32.2243 55.0244Z" fill="white" stroke="white"/>
</g>
<defs>
<clipPath id="clip0_1374_84582">
<rect width="40" height="39.8276" fill="white" transform="translate(21 19.5864)"/>
</clipPath>
</defs>
</svg>
