<svg width="79" height="79" viewBox="0 0 79 79" fill="none" xmlns="http://www.w3.org/2000/svg">
<rect width="79" height="79" rx="39.5" fill="#CE6C39"/>
<g clip-path="url(#clip0_1374_82714)">
<path d="M50.9135 24.593L50.8767 25.0916L50.8768 25.0916L50.8773 25.0917L50.8792 25.0918L50.8867 25.0924L50.9159 25.0945L51.0269 25.1027L51.4243 25.1321L52.6414 25.2221C53.4452 25.2816 54.2604 25.3421 54.476 25.3586L54.5274 25.7308H54.5315C54.8011 27.5529 55.8813 34.8288 56.9574 42.0756L58.6532 53.4941L59.2114 57.252L59.3541 58.2131L45.8853 61.1144L20.5646 56.3904L20.6466 55.7586L21.0246 52.8485C21.338 50.4363 21.7572 47.2106 22.1802 43.9568C23.0267 37.4464 23.888 30.83 23.9504 30.382C23.993 30.0774 24.023 29.883 24.0609 29.7402C24.0963 29.6069 24.1281 29.5615 24.1496 29.5378C24.1749 29.51 24.2291 29.4654 24.3833 29.4002C24.5414 29.3334 24.757 29.2639 25.0806 29.1628L25.0808 29.1627C25.286 29.0986 26.9002 28.6001 29.1756 27.8981L29.4488 27.8138L29.5147 27.5355C29.9453 25.7171 30.8453 23.0333 32.3398 20.8171C33.8356 18.5989 35.8653 16.9316 38.5547 16.9316C39.1376 16.9316 39.8844 17.2456 40.521 18.0839L40.6818 18.2958L40.9474 18.2807C41.0136 18.277 41.0748 18.2747 41.1313 18.2747C43.2922 18.2747 44.6094 20.0967 45.4096 22.3893L45.5683 22.8443L46.0289 22.7024C46.442 22.5751 46.7735 22.4731 47.0053 22.4018L47.2758 22.3187L47.3505 22.2959L47.3715 22.2895C47.3773 22.2877 47.3789 22.2872 47.3782 22.2874M50.9135 24.593L50.5619 24.9485L50.5618 24.9485L50.5615 24.9481L50.5602 24.9468L50.555 24.9417L50.5347 24.9216L50.4573 24.8451L50.1792 24.5702L49.3173 23.7179C48.6793 23.0869 48.0065 22.4213 47.8721 22.2872C47.8711 22.2863 47.8614 22.2782 47.8333 22.2691C47.8003 22.2585 47.7531 22.2503 47.6922 22.2485C47.5665 22.2448 47.4393 22.2695 47.3782 22.2874M50.9135 24.593L50.8767 25.0916L50.693 25.0781L50.562 24.9486L50.9135 24.593ZM47.3782 22.2874L47.2374 21.8077M47.3782 22.2874C47.3782 22.2874 47.3781 22.2875 47.3781 22.2875L47.2374 21.8077M47.2374 21.8077C47.2077 21.8164 46.7081 21.9699 45.8816 22.2246M47.2374 21.8077C47.4391 21.7485 47.9588 21.668 48.2248 21.9329M45.8816 22.2246L48.2248 21.9329M45.8816 22.2246C45.0723 19.9057 43.644 17.7747 41.1313 17.7747C41.062 17.7747 40.9906 17.7775 40.9192 17.7815L45.8816 22.2246ZM48.2248 21.9329L47.8718 22.287C47.8719 22.2871 47.872 22.2871 47.872 22.2872L48.2248 21.9329ZM44.5983 23.143L45.0851 22.993L44.926 22.509C44.6402 21.6396 44.2653 20.794 43.773 20.1352C43.2804 19.4759 42.6327 18.9562 41.8011 18.8523L41.0004 18.7522L41.2672 19.5138C41.5677 20.3713 41.7623 21.4744 41.7623 22.8699C41.7623 23.0318 41.7616 23.1801 41.7608 23.332L41.7607 23.3376L41.7573 24.0185L42.408 23.818L44.5983 23.143ZM40.5971 19.4482L40.4068 18.9735L39.9365 19.1744C38.3331 19.8595 36.6178 21.6246 35.7181 25.082L35.4922 25.9502L36.3494 25.6857C37.203 25.4224 38.0554 25.1596 38.8867 24.9033C39.5664 24.6938 40.232 24.4886 40.8728 24.2909L41.2219 24.1832L41.2254 23.8179L41.2254 23.8149C41.2262 23.7338 41.227 23.6511 41.227 23.5605C41.227 21.7819 40.9884 20.4245 40.5971 19.4482ZM39.3568 18.7001L40.1485 18.3291L39.4273 17.8349C39.1147 17.6206 38.7634 17.495 38.3939 17.495H38.3938C36.0487 17.495 34.2761 19.0309 32.9985 20.8806C31.7152 22.7386 30.8578 25.0129 30.3537 26.7221L30.0901 27.616L30.9806 27.3413L34.5562 26.2386L34.8432 26.1501L34.8999 25.8552C35.727 21.5492 37.661 19.4946 39.3568 18.7001Z" stroke="white"/>
<mask id="path-3-inside-1_1374_82714" fill="white">
<path d="M54.5666 24.8639C54.4018 24.8502 50.9134 24.5928 50.9134 24.5928C50.9134 24.5928 48.4906 22.1978 48.2247 21.9327C48.1252 21.8341 47.991 21.7835 47.8507 21.7617L45.8936 61.6238L59.9175 58.603C59.9175 58.603 54.9939 25.4577 54.963 25.2306C54.9316 25.0035 54.7317 24.8778 54.5666 24.8639Z"/>
</mask>
<path d="M50.9134 24.5928L50.2103 25.3039L50.4723 25.5629L50.8398 25.5901L50.9134 24.5928ZM48.2247 21.9327L48.9307 21.2245L48.9287 21.2224L48.2247 21.9327ZM47.8507 21.7617L48.0041 20.7736L46.9064 20.6031L46.8519 21.7127L47.8507 21.7617ZM45.8936 61.6238L44.8948 61.5748L44.8309 62.8756L46.1041 62.6014L45.8936 61.6238ZM59.9175 58.603L60.128 59.5805L61.0443 59.3832L60.9066 58.456L59.9175 58.603ZM54.963 25.2306L55.9538 25.0957L55.9535 25.0937L54.963 25.2306ZM54.6494 23.8674C54.561 23.86 53.6398 23.7917 52.752 23.7259C52.3056 23.6929 51.8643 23.6603 51.5347 23.6359C51.3699 23.6238 51.2329 23.6136 51.1372 23.6066C51.0894 23.603 51.0518 23.6003 51.0262 23.5984C51.0134 23.5974 51.0036 23.5967 50.997 23.5962C50.9937 23.596 50.9912 23.5958 50.9895 23.5957C50.9887 23.5956 50.988 23.5956 50.9876 23.5955C50.9874 23.5955 50.9872 23.5955 50.9871 23.5955C50.9871 23.5955 50.987 23.5955 50.987 23.5955C50.987 23.5955 50.987 23.5955 50.9134 24.5928C50.8398 25.5901 50.8398 25.5901 50.8398 25.5901C50.8398 25.5901 50.8399 25.5901 50.8399 25.5901C50.84 25.5901 50.8402 25.5901 50.8404 25.5901C50.8408 25.5901 50.8414 25.5902 50.8423 25.5902C50.844 25.5904 50.8465 25.5906 50.8498 25.5908C50.8564 25.5913 50.8662 25.592 50.879 25.593C50.9045 25.5948 50.9421 25.5976 50.9899 25.6012C51.0856 25.6082 51.2225 25.6183 51.3873 25.6305C51.7169 25.6549 52.1581 25.6875 52.6044 25.7205C53.502 25.7869 54.4074 25.8542 54.4838 25.8605L54.6494 23.8674ZM50.9134 24.5928C51.6164 23.8816 51.6164 23.8816 51.6164 23.8816C51.6163 23.8816 51.6163 23.8815 51.6163 23.8815C51.6162 23.8814 51.6161 23.8813 51.616 23.8812C51.6157 23.8809 51.6152 23.8805 51.6146 23.8799C51.6135 23.8787 51.6117 23.877 51.6094 23.8747C51.6048 23.8702 51.598 23.8635 51.5891 23.8547C51.5713 23.8371 51.5452 23.8112 51.5118 23.7782C51.445 23.7122 51.3494 23.6176 51.2337 23.5033C51.0025 23.2747 50.6914 22.967 50.3719 22.6511C49.7318 22.018 49.0618 21.3552 48.9307 21.2245L47.5187 22.6409C47.6535 22.7753 48.3279 23.4425 48.9656 24.0732C49.2851 24.3891 49.5963 24.6968 49.8276 24.9255C49.9432 25.0399 50.0389 25.1345 50.1057 25.2005C50.1391 25.2335 50.1652 25.2594 50.1831 25.277C50.192 25.2858 50.1988 25.2925 50.2034 25.2971C50.2057 25.2993 50.2074 25.301 50.2086 25.3022C50.2092 25.3028 50.2096 25.3032 50.2099 25.3035C50.21 25.3036 50.2102 25.3038 50.2102 25.3038C50.2103 25.3039 50.2103 25.3039 50.2103 25.3039C50.2103 25.3039 50.2103 25.3039 50.9134 24.5928ZM48.9287 21.2224C48.6282 20.9247 48.2677 20.8145 48.0041 20.7736L47.6973 22.7499C47.7143 22.7525 47.6222 22.7434 47.5208 22.643L48.9287 21.2224ZM46.8519 21.7127L44.8948 61.5748L46.8924 61.6728L48.8495 21.8108L46.8519 21.7127ZM46.1041 62.6014L60.128 59.5805L59.7069 57.6254L45.683 60.6462L46.1041 62.6014ZM59.9175 58.603C60.9066 58.456 60.9066 58.4559 60.9066 58.4556C60.9065 58.4554 60.9065 58.455 60.9064 58.4545C60.9062 58.4535 60.906 58.452 60.9057 58.45C60.9051 58.446 60.9042 58.44 60.903 58.432C60.9007 58.4161 60.8971 58.3923 60.8925 58.3609C60.8832 58.2982 60.8693 58.2051 60.8513 58.0837C60.8152 57.8409 60.7623 57.4847 60.695 57.0314C60.5603 56.1246 60.3679 54.829 60.1368 53.2735C59.6748 50.1626 59.0583 46.0124 58.441 41.8551C57.8236 37.6977 57.2052 33.5333 56.7393 30.394C56.5064 28.8244 56.3115 27.5111 56.1739 26.5831C56.1051 26.1191 56.0507 25.7516 56.0129 25.4965C55.9941 25.3689 55.9794 25.2696 55.9692 25.2005C55.9583 25.1264 55.9538 25.0956 55.9538 25.0957L53.9721 25.3656C53.9887 25.4871 55.2291 33.8419 56.4627 42.1488C57.08 46.3062 57.6965 50.4565 58.1585 53.5674C58.3896 55.1228 58.582 56.4185 58.7167 57.3252C58.784 57.7786 58.8369 58.1348 58.873 58.3776C58.8911 58.499 58.9049 58.5921 58.9142 58.6548C58.9189 58.6862 58.9224 58.7099 58.9248 58.7259C58.9259 58.7338 58.9268 58.7398 58.9274 58.7438C58.9277 58.7459 58.9279 58.7474 58.9281 58.7484C58.9282 58.7489 58.9282 58.7493 58.9283 58.7495C58.9283 58.7498 58.9283 58.7499 59.9175 58.603ZM55.9535 25.0937C55.8428 24.2927 55.1605 23.9102 54.6501 23.8674L54.483 25.8604C54.3631 25.8504 54.2611 25.8069 54.1781 25.7383C54.083 25.6598 53.995 25.5309 53.9724 25.3676L55.9535 25.0937Z" fill="white" mask="url(#path-3-inside-1_1374_82714)"/>
<path d="M39.1048 37.0211C38.9535 36.9602 38.7734 36.8927 38.5691 36.8254C37.9256 36.6134 37.0278 36.3977 36.0299 36.3977C34.5584 36.3977 33.6784 36.8631 33.185 37.494C32.7093 38.1022 32.67 38.7691 32.67 39.0279C32.67 39.8471 33.2089 40.471 33.7991 40.9836C34.1035 41.248 34.4538 41.5093 34.8122 41.772C34.8712 41.8153 34.9304 41.8586 34.99 41.9022C35.2968 42.1265 35.6099 42.3553 35.9235 42.6014C37.412 43.7695 38.7944 45.2348 38.7944 47.7435C38.7944 49.792 38.1435 51.4359 37.0927 52.5631C36.0437 53.6884 34.5668 54.331 32.8455 54.331C30.7319 54.331 29.1423 53.6771 28.0827 53.0279C27.552 52.7027 27.1543 52.3786 26.8917 52.1386C26.8128 52.0665 26.7462 52.002 26.6919 51.9476L27.5873 49.0019C27.8278 49.1758 28.1313 49.3828 28.4762 49.5902C29.3222 50.0988 30.4978 50.66 31.6262 50.66C32.4158 50.66 33.0087 50.344 33.3965 49.8862C33.772 49.4429 33.9379 48.8885 33.9379 48.4126C33.9379 47.4894 33.5497 46.7944 33.0235 46.2132C32.6398 45.7895 32.1518 45.3965 31.6785 45.0154C31.5314 44.8969 31.3856 44.7795 31.2449 44.6628C30.6286 44.1514 30.0517 43.6109 29.6243 42.9163C29.2026 42.2308 28.9134 41.373 28.9134 40.2104C28.9134 38.219 29.6307 36.273 31.058 34.8266C32.4806 33.385 34.6424 32.4058 37.5966 32.4058C38.7314 32.4058 39.5688 32.5675 40.1136 32.7238C40.2703 32.7688 40.403 32.8134 40.5118 32.8536L39.1048 37.0211Z" fill="white" stroke="white"/>
</g>
<defs>
<clipPath id="clip0_1374_82714">
<rect width="40" height="45.4264" fill="white" transform="translate(20 16.3105)"/>
</clipPath>
</defs>
</svg>
