<svg width="79" height="79" viewBox="0 0 79 79" fill="none" xmlns="http://www.w3.org/2000/svg">
<rect width="79" height="79" rx="39.5" fill="#CE6C39"/>
<path d="M39.3113 46.1461L39.0803 46.0138H38.8141H25.2657C24.0014 46.0138 23 45.0066 23 43.7929V33.2209C23 32.0073 24.0012 31 25.2657 31H53.7343C54.9988 31 56.0001 32.0073 56 33.2208V33.2209V43.7929C56 45.0065 54.9988 46.0138 53.7343 46.0138H43.6195H42.212L42.6752 47.3429L42.9935 48.2561L39.3113 46.1461Z" stroke="white" stroke-width="2"/>
<path d="M29.6435 43.7271C29.6398 43.7271 29.6363 43.7271 29.6327 43.727C29.3401 43.7232 29.0677 43.5663 28.9031 43.3067C28.6432 42.8966 28.2621 41.9511 27.6176 38.2492C27.2721 36.265 27.0124 34.3964 27.0099 34.3778C26.9371 33.8531 27.2747 33.3646 27.7639 33.2865C28.2527 33.2084 28.7084 33.5706 28.7811 34.0955C28.7836 34.1137 29.0375 35.9395 29.3753 37.8819C29.5704 39.0038 29.7373 39.8408 29.876 40.4635C30.7202 38.7944 31.7508 36.5497 32.2044 35.536C32.3705 35.1649 32.7385 34.9486 33.1197 34.9984C33.5008 35.0481 33.8097 35.3528 33.8881 35.7558C34.0364 36.5167 34.4205 38.101 34.9663 39.539C35.1676 37.4945 35.5571 34.8998 36.2997 33.2667C36.5165 32.7899 37.0526 32.5919 37.497 32.8245C37.9414 33.0571 38.126 33.6322 37.9091 34.1089C36.7283 36.7058 36.5516 42.6213 36.5498 42.6808C36.5393 43.064 36.3173 43.4037 35.9852 43.545C35.6531 43.6864 35.2745 43.6025 35.0218 43.3314C34.2196 42.4708 33.4883 40.9878 32.8482 38.9235C32.8205 38.8342 32.7936 38.7458 32.7674 38.6585C31.9826 40.3343 30.9508 42.4575 30.3716 43.3258C30.2033 43.5777 29.932 43.7271 29.6435 43.7271Z" fill="white"/>
<path d="M43.647 35.5063C43.2804 34.6643 42.6508 34.082 41.8283 33.8231C40.89 33.5286 39.8735 33.9203 39.1089 34.8725C38.2012 36.0002 37.5391 38.1139 38.4021 40.661C38.9932 42.4067 39.9227 42.7271 40.5234 42.7271C40.5883 42.7271 40.6488 42.7231 40.7049 42.7172C42.3035 42.5456 43.6462 40.1532 43.9048 38.5127C44.0907 37.3373 44.004 36.3256 43.647 35.5063ZM42.172 38.1625C42.0904 38.6753 41.8072 39.3537 41.4486 39.8903C41.0802 40.4428 40.7189 40.7156 40.5392 40.7344C40.4296 40.7463 40.2261 40.4805 40.0463 39.9488C39.685 38.8836 39.564 37.2648 40.4112 36.2114C40.6637 35.8971 40.9575 35.7194 41.2101 35.7194C41.2609 35.7194 41.31 35.7264 41.3565 35.7413C42.2992 36.0379 42.3202 37.2212 42.172 38.1625Z" fill="white"/>
<path d="M50.6478 35.5063C50.4637 35.0858 50.2146 34.7287 49.9094 34.446C49.6025 34.1634 49.2394 33.9531 48.828 33.8231C47.8905 33.5286 46.874 33.9203 46.1084 34.8725C45.2016 36.0002 44.5394 38.1139 45.4015 40.661C45.9926 42.4067 46.9223 42.7271 47.523 42.7271C47.5879 42.7271 47.6493 42.7231 47.7054 42.7172C49.3033 42.5456 50.646 40.1532 50.9048 38.5127C51.0908 37.3373 51.0039 36.3256 50.6478 35.5063ZM49.1718 38.1625C49.0911 38.6753 48.8069 39.3537 48.4491 39.8903C48.0799 40.4428 47.7186 40.7156 47.5388 40.7344C47.43 40.7463 47.2257 40.4805 47.0459 39.9488C46.6854 38.8836 46.5645 37.2648 47.4108 36.2114C47.6643 35.8971 47.958 35.7194 48.2097 35.7194C48.2606 35.7194 48.3097 35.7264 48.357 35.7413C49.2999 36.0379 49.32 37.2212 49.1718 38.1625Z" fill="white"/>
</svg>
